M48
;DRILL file {kicad (2014-12-16 BZR 5324)-product} date Di 27 Jan 2015 13:58:36 CET
;FORMAT={-:-/ absolute / metric / decimal}
FMAT,2
METRIC,TZ
T1C0.800
T2C0.813
T3C0.900
T4C0.998
T5C1.016
T6C1.501
T7C2.301
T8C3.701
%
G90
G05
M71
T1
X131.445Y-74.041
X136.525Y-74.041
X167.434Y-86.44
T2
X81.28Y-48.26
X81.28Y-50.8
X81.28Y-53.34
X81.28Y-55.88
X81.28Y-62.23
X81.28Y-64.77
X81.28Y-67.31
X81.28Y-69.85
X90.043Y-117.094
X90.043Y-122.174
X93.726Y-125.476
X93.726Y-133.096
X97.663Y-117.094
X97.663Y-122.174
X98.806Y-125.476
X98.806Y-133.096
X100.711Y-92.075
X103.251Y-92.075
X105.791Y-92.075
X106.045Y-119.507
X106.045Y-122.047
X108.331Y-92.075
X110.871Y-92.075
X111.252Y-119.507
X111.252Y-122.047
X113.284Y-83.566
X113.284Y-86.106
X113.411Y-92.075
X115.951Y-92.075
X118.491Y-92.075
X124.841Y-84.836
X127.381Y-84.836
X144.78Y-107.061
X144.78Y-112.141
X147.32Y-107.061
X147.32Y-112.141
X154.686Y-109.601
X154.686Y-112.141
X156.685Y-109.601
X156.685Y-112.141
X167.434Y-92.67
X167.434Y-95.21
T3
X81.153Y-76.581
X89.662Y-78.613
X102.616Y-78.867
X102.743Y-66.929
X104.267Y-52.959
X104.267Y-64.643
X104.267Y-71.12
X105.537Y-115.316
X106.553Y-99.441
X114.173Y-119.126
X115.189Y-82.169
X115.316Y-66.929
X115.697Y-78.74
X116.205Y-99.949
X116.332Y-118.364
X116.967Y-52.959
X116.967Y-64.643
X116.967Y-71.12
X121.031Y-119.126
X122.301Y-97.536
X122.682Y-94.996
X125.222Y-106.934
X125.603Y-99.568
X125.603Y-113.157
X127.635Y-111.76
X127.762Y-66.929
X128.905Y-52.959
X128.905Y-64.643
X128.905Y-71.12
X131.445Y-97.409
X131.445Y-99.695
X131.445Y-101.981
X132.207Y-106.934
X140.208Y-69.596
X140.462Y-105.283
X141.859Y-65.278
X145.034Y-115.824
X150.495Y-115.951
X152.654Y-101.6
X167.386Y-102.616
T4
X92.329Y-84.201
X92.329Y-90.678
X92.329Y-93.218
X92.456Y-97.917
X92.456Y-100.457
X92.456Y-102.997
X92.456Y-108.458
X92.456Y-110.998
X92.456Y-113.538
X94.869Y-84.201
X97.409Y-84.201
X99.949Y-84.201
X102.489Y-84.201
X105.029Y-84.201
X164.465Y-68.961
X164.465Y-71.501
T5
X112.395Y-130.429
X112.395Y-132.969
X114.935Y-130.429
X114.935Y-132.969
X117.475Y-130.429
X117.475Y-132.969
T6
X147.955Y-69.39
X147.955Y-91.392
T7
X159.385Y-104.872
X159.385Y-116.87
T8
X75.434Y-41.94
X75.434Y-130.94
X164.434Y-41.94
X164.434Y-130.94
T0
M30
