G04 #@! TF.FileFunction,Copper,L2,Bot,Signal*
%FSLAX46Y46*%
G04 Gerber Fmt 4.6, Leading zero omitted, Abs format (unit mm)*
G04 Created by KiCad (PCBNEW (2014-12-16 BZR 5324)-product) date Mo 26 Jan 2015 14:40:25 CET*
%MOMM*%
G01*
G04 APERTURE LIST*
%ADD10C,0.100000*%
%ADD11C,0.300000*%
%ADD12C,1.501140*%
%ADD13O,2.499360X4.000500*%
%ADD14C,1.524000*%
%ADD15C,2.700020*%
%ADD16O,3.014980X1.506220*%
%ADD17O,1.506220X3.014980*%
%ADD18R,1.397000X1.397000*%
%ADD19C,1.397000*%
%ADD20R,1.727200X1.727200*%
%ADD21O,1.727200X1.727200*%
%ADD22C,1.676400*%
%ADD23R,1.501140X1.501140*%
%ADD24C,1.500000*%
%ADD25C,0.254000*%
%ADD26C,0.304800*%
%ADD27C,0.431800*%
%ADD28C,1.270000*%
G04 APERTURE END LIST*
D10*
D11*
X164373286Y-122320857D02*
X164159000Y-122392286D01*
X164087572Y-122463714D01*
X164016143Y-122606571D01*
X164016143Y-122820857D01*
X164087572Y-122963714D01*
X164159000Y-123035143D01*
X164301858Y-123106571D01*
X164873286Y-123106571D01*
X164873286Y-121606571D01*
X164373286Y-121606571D01*
X164230429Y-121678000D01*
X164159000Y-121749429D01*
X164087572Y-121892286D01*
X164087572Y-122035143D01*
X164159000Y-122178000D01*
X164230429Y-122249429D01*
X164373286Y-122320857D01*
X164873286Y-122320857D01*
X163087572Y-121606571D02*
X162801858Y-121606571D01*
X162659000Y-121678000D01*
X162516143Y-121820857D01*
X162444715Y-122106571D01*
X162444715Y-122606571D01*
X162516143Y-122892286D01*
X162659000Y-123035143D01*
X162801858Y-123106571D01*
X163087572Y-123106571D01*
X163230429Y-123035143D01*
X163373286Y-122892286D01*
X163444715Y-122606571D01*
X163444715Y-122106571D01*
X163373286Y-121820857D01*
X163230429Y-121678000D01*
X163087572Y-121606571D01*
X162016143Y-121606571D02*
X161159000Y-121606571D01*
X161587571Y-123106571D02*
X161587571Y-121606571D01*
X160873286Y-121606571D02*
X160016143Y-121606571D01*
X160444714Y-123106571D02*
X160444714Y-121606571D01*
X159230429Y-121606571D02*
X158944715Y-121606571D01*
X158801857Y-121678000D01*
X158659000Y-121820857D01*
X158587572Y-122106571D01*
X158587572Y-122606571D01*
X158659000Y-122892286D01*
X158801857Y-123035143D01*
X158944715Y-123106571D01*
X159230429Y-123106571D01*
X159373286Y-123035143D01*
X159516143Y-122892286D01*
X159587572Y-122606571D01*
X159587572Y-122106571D01*
X159516143Y-121820857D01*
X159373286Y-121678000D01*
X159230429Y-121606571D01*
X157944714Y-123106571D02*
X157944714Y-121606571D01*
X157444714Y-122678000D01*
X156944714Y-121606571D01*
X156944714Y-123106571D01*
X137020228Y-71531943D02*
X135877371Y-71531943D01*
X136448800Y-72103371D02*
X136448800Y-70960514D01*
X168028249Y-48272571D02*
X167840749Y-46772571D01*
X167483606Y-46772571D01*
X167278250Y-46844000D01*
X167153249Y-46986857D01*
X167099678Y-47129714D01*
X167063964Y-47415429D01*
X167090749Y-47629714D01*
X167197893Y-47915429D01*
X167287178Y-48058286D01*
X167447893Y-48201143D01*
X167671106Y-48272571D01*
X168028249Y-48272571D01*
X166528249Y-48272571D02*
X166403249Y-47272571D01*
X166340749Y-46772571D02*
X166421107Y-46844000D01*
X166358607Y-46915429D01*
X166278250Y-46844000D01*
X166340749Y-46772571D01*
X166358607Y-46915429D01*
X165233607Y-48201143D02*
X165385392Y-48272571D01*
X165671106Y-48272571D01*
X165805035Y-48201143D01*
X165858607Y-48058286D01*
X165787178Y-47486857D01*
X165697892Y-47344000D01*
X165546106Y-47272571D01*
X165260392Y-47272571D01*
X165126464Y-47344000D01*
X165072892Y-47486857D01*
X165090749Y-47629714D01*
X165822892Y-47772571D01*
X164590750Y-48201143D02*
X164456821Y-48272571D01*
X164171106Y-48272571D01*
X164019321Y-48201143D01*
X163930036Y-48058286D01*
X163921107Y-47986857D01*
X163974678Y-47844000D01*
X164108606Y-47772571D01*
X164322892Y-47772571D01*
X164456821Y-47701143D01*
X164510393Y-47558286D01*
X164501464Y-47486857D01*
X164412178Y-47344000D01*
X164260392Y-47272571D01*
X164046106Y-47272571D01*
X163912178Y-47344000D01*
X162733607Y-48201143D02*
X162885392Y-48272571D01*
X163171106Y-48272571D01*
X163305035Y-48201143D01*
X163358607Y-48058286D01*
X163287178Y-47486857D01*
X163197892Y-47344000D01*
X163046106Y-47272571D01*
X162760392Y-47272571D01*
X162626464Y-47344000D01*
X162572892Y-47486857D01*
X162590749Y-47629714D01*
X163322892Y-47772571D01*
X160885392Y-48272571D02*
X160697892Y-46772571D01*
X160126464Y-46772571D01*
X159992535Y-46844000D01*
X159930036Y-46915429D01*
X159876464Y-47058286D01*
X159903249Y-47272571D01*
X159992536Y-47415429D01*
X160072892Y-47486857D01*
X160224679Y-47558286D01*
X160796107Y-47558286D01*
X159171106Y-48272571D02*
X159305036Y-48201143D01*
X159358607Y-48058286D01*
X159197892Y-46772571D01*
X157956821Y-48272571D02*
X157858607Y-47486857D01*
X157912179Y-47344000D01*
X158046107Y-47272571D01*
X158331821Y-47272571D01*
X158483607Y-47344000D01*
X157947893Y-48201143D02*
X158099678Y-48272571D01*
X158456821Y-48272571D01*
X158590750Y-48201143D01*
X158644322Y-48058286D01*
X158626465Y-47915429D01*
X158537178Y-47772571D01*
X158385393Y-47701143D01*
X158028250Y-47701143D01*
X157876464Y-47629714D01*
X157242535Y-48272571D02*
X157055035Y-46772571D01*
X157028250Y-47701143D02*
X156671107Y-48272571D01*
X156546107Y-47272571D02*
X157188964Y-47844000D01*
X155447893Y-48201143D02*
X155599678Y-48272571D01*
X155885392Y-48272571D01*
X156019321Y-48201143D01*
X156072893Y-48058286D01*
X156001464Y-47486857D01*
X155912178Y-47344000D01*
X155760392Y-47272571D01*
X155474678Y-47272571D01*
X155340750Y-47344000D01*
X155287178Y-47486857D01*
X155305035Y-47629714D01*
X156037178Y-47772571D01*
X154831821Y-47272571D02*
X154260392Y-47272571D01*
X154555035Y-46772571D02*
X154715750Y-48058286D01*
X154662179Y-48201143D01*
X154528249Y-48272571D01*
X154385392Y-48272571D01*
X153974678Y-47272571D02*
X153403249Y-47272571D01*
X153697892Y-46772571D02*
X153858607Y-48058286D01*
X153805036Y-48201143D01*
X153671106Y-48272571D01*
X153528249Y-48272571D01*
X152447893Y-48201143D02*
X152599678Y-48272571D01*
X152885392Y-48272571D01*
X153019321Y-48201143D01*
X153072893Y-48058286D01*
X153001464Y-47486857D01*
X152912178Y-47344000D01*
X152760392Y-47272571D01*
X152474678Y-47272571D01*
X152340750Y-47344000D01*
X152287178Y-47486857D01*
X152305035Y-47629714D01*
X153037178Y-47772571D01*
X149831821Y-47272571D02*
X149983607Y-48486857D01*
X150072893Y-48629714D01*
X150153250Y-48701143D01*
X150305035Y-48772571D01*
X150519321Y-48772571D01*
X150653250Y-48701143D01*
X149947893Y-48201143D02*
X150099678Y-48272571D01*
X150385392Y-48272571D01*
X150519322Y-48201143D01*
X150581821Y-48129714D01*
X150635393Y-47986857D01*
X150581822Y-47558286D01*
X150492536Y-47415429D01*
X150412179Y-47344000D01*
X150260392Y-47272571D01*
X149974678Y-47272571D01*
X149840750Y-47344000D01*
X148662179Y-48201143D02*
X148813964Y-48272571D01*
X149099678Y-48272571D01*
X149233607Y-48201143D01*
X149287179Y-48058286D01*
X149215750Y-47486857D01*
X149126464Y-47344000D01*
X148974678Y-47272571D01*
X148688964Y-47272571D01*
X148555036Y-47344000D01*
X148501464Y-47486857D01*
X148519321Y-47629714D01*
X149251464Y-47772571D01*
X147313964Y-48272571D02*
X147126464Y-46772571D01*
X147305036Y-48201143D02*
X147456821Y-48272571D01*
X147742535Y-48272571D01*
X147876465Y-48201143D01*
X147938964Y-48129714D01*
X147992536Y-47986857D01*
X147938965Y-47558286D01*
X147849679Y-47415429D01*
X147769322Y-47344000D01*
X147617535Y-47272571D01*
X147331821Y-47272571D01*
X147197893Y-47344000D01*
X146019322Y-48201143D02*
X146171107Y-48272571D01*
X146456821Y-48272571D01*
X146590750Y-48201143D01*
X146644322Y-48058286D01*
X146572893Y-47486857D01*
X146483607Y-47344000D01*
X146331821Y-47272571D01*
X146046107Y-47272571D01*
X145912179Y-47344000D01*
X145858607Y-47486857D01*
X145876464Y-47629714D01*
X146608607Y-47772571D01*
X145188964Y-47272571D02*
X145313964Y-48272571D01*
X145206822Y-47415429D02*
X145126465Y-47344000D01*
X144974678Y-47272571D01*
X144760393Y-47272571D01*
X144626465Y-47344000D01*
X144572893Y-47486857D01*
X144671107Y-48272571D01*
X143956821Y-48272571D02*
X143769321Y-46772571D01*
X143742536Y-47701143D02*
X143385393Y-48272571D01*
X143260393Y-47272571D02*
X143903250Y-47844000D01*
X142831821Y-47272571D02*
X142260392Y-47272571D01*
X142555035Y-46772571D02*
X142715750Y-48058286D01*
X142662179Y-48201143D01*
X142528249Y-48272571D01*
X142385392Y-48272571D01*
X140099678Y-48272571D02*
X140001464Y-47486857D01*
X140055036Y-47344000D01*
X140188964Y-47272571D01*
X140474678Y-47272571D01*
X140626464Y-47344000D01*
X140090750Y-48201143D02*
X140242535Y-48272571D01*
X140599678Y-48272571D01*
X140733607Y-48201143D01*
X140787179Y-48058286D01*
X140769322Y-47915429D01*
X140680035Y-47772571D01*
X140528250Y-47701143D01*
X140171107Y-47701143D01*
X140019321Y-47629714D01*
X139171106Y-48272571D02*
X139305036Y-48201143D01*
X139358607Y-48058286D01*
X139197892Y-46772571D01*
X138385392Y-48272571D02*
X138519322Y-48201143D01*
X138572893Y-48058286D01*
X138412178Y-46772571D01*
X136028250Y-48272571D02*
X135840750Y-46772571D01*
X136019322Y-48201143D02*
X136171107Y-48272571D01*
X136456821Y-48272571D01*
X136590751Y-48201143D01*
X136653250Y-48129714D01*
X136706822Y-47986857D01*
X136653251Y-47558286D01*
X136563965Y-47415429D01*
X136483608Y-47344000D01*
X136331821Y-47272571D01*
X136046107Y-47272571D01*
X135912179Y-47344000D01*
X134733608Y-48201143D02*
X134885393Y-48272571D01*
X135171107Y-48272571D01*
X135305036Y-48201143D01*
X135358608Y-48058286D01*
X135287179Y-47486857D01*
X135197893Y-47344000D01*
X135046107Y-47272571D01*
X134760393Y-47272571D01*
X134626465Y-47344000D01*
X134572893Y-47486857D01*
X134590750Y-47629714D01*
X135322893Y-47772571D01*
X133903250Y-47272571D02*
X134028250Y-48272571D01*
X133921108Y-47415429D02*
X133840751Y-47344000D01*
X133688964Y-47272571D01*
X133474679Y-47272571D01*
X133340751Y-47344000D01*
X133287179Y-47486857D01*
X133385393Y-48272571D01*
X166510392Y-49672571D02*
X165938963Y-49672571D01*
X166233606Y-49172571D02*
X166394321Y-50458286D01*
X166340750Y-50601143D01*
X166206820Y-50672571D01*
X166063963Y-50672571D01*
X164921106Y-50672571D02*
X164822892Y-49886857D01*
X164876464Y-49744000D01*
X165010392Y-49672571D01*
X165296106Y-49672571D01*
X165447892Y-49744000D01*
X164912178Y-50601143D02*
X165063963Y-50672571D01*
X165421106Y-50672571D01*
X165555035Y-50601143D01*
X165608607Y-50458286D01*
X165590750Y-50315429D01*
X165501463Y-50172571D01*
X165349678Y-50101143D01*
X164992535Y-50101143D01*
X164840749Y-50029714D01*
X164081820Y-49672571D02*
X164269320Y-51172571D01*
X164090749Y-49744000D02*
X163938963Y-49672571D01*
X163653249Y-49672571D01*
X163519321Y-49744000D01*
X163456821Y-49815429D01*
X163403249Y-49958286D01*
X163456820Y-50386857D01*
X163546106Y-50529714D01*
X163626464Y-50601143D01*
X163778249Y-50672571D01*
X164063963Y-50672571D01*
X164197892Y-50601143D01*
X162938963Y-49672571D02*
X162367534Y-49672571D01*
X162849677Y-50672571D02*
X162688963Y-49386857D01*
X162599678Y-49244000D01*
X162447891Y-49172571D01*
X162305034Y-49172571D01*
X161412178Y-50601143D02*
X161563963Y-50672571D01*
X161849677Y-50672571D01*
X161983606Y-50601143D01*
X162037178Y-50458286D01*
X161965749Y-49886857D01*
X161876463Y-49744000D01*
X161724677Y-49672571D01*
X161438963Y-49672571D01*
X161305035Y-49744000D01*
X161251463Y-49886857D01*
X161269320Y-50029714D01*
X162001463Y-50172571D01*
X160706820Y-50672571D02*
X160581820Y-49672571D01*
X160617535Y-49958286D02*
X160528250Y-49815429D01*
X160447892Y-49744000D01*
X160296106Y-49672571D01*
X160153249Y-49672571D01*
X159197893Y-50601143D02*
X159349678Y-50672571D01*
X159635392Y-50672571D01*
X159769321Y-50601143D01*
X159822893Y-50458286D01*
X159751464Y-49886857D01*
X159662178Y-49744000D01*
X159510392Y-49672571D01*
X159224678Y-49672571D01*
X159090750Y-49744000D01*
X159037178Y-49886857D01*
X159055035Y-50029714D01*
X159787178Y-50172571D01*
X158367535Y-49672571D02*
X158492535Y-50672571D01*
X158385393Y-49815429D02*
X158305036Y-49744000D01*
X158153249Y-49672571D01*
X157938964Y-49672571D01*
X157805036Y-49744000D01*
X157751464Y-49886857D01*
X157849678Y-50672571D01*
X156010393Y-50244000D02*
X155296107Y-50244000D01*
X156206821Y-50672571D02*
X155519321Y-49172571D01*
X155206821Y-50672571D01*
X154706821Y-50672571D02*
X154581821Y-49672571D01*
X154617536Y-49958286D02*
X154528251Y-49815429D01*
X154447893Y-49744000D01*
X154296107Y-49672571D01*
X154153250Y-49672571D01*
X153778250Y-50672571D02*
X153590750Y-49172571D01*
X153662179Y-49744000D02*
X153510393Y-49672571D01*
X153224679Y-49672571D01*
X153090751Y-49744000D01*
X153028251Y-49815429D01*
X152974679Y-49958286D01*
X153028250Y-50386857D01*
X153117536Y-50529714D01*
X153197894Y-50601143D01*
X153349679Y-50672571D01*
X153635393Y-50672571D01*
X153769322Y-50601143D01*
X151840751Y-50601143D02*
X151992536Y-50672571D01*
X152278250Y-50672571D01*
X152412179Y-50601143D01*
X152465751Y-50458286D01*
X152394322Y-49886857D01*
X152305036Y-49744000D01*
X152153250Y-49672571D01*
X151867536Y-49672571D01*
X151733608Y-49744000D01*
X151680036Y-49886857D01*
X151697893Y-50029714D01*
X152430036Y-50172571D01*
X151135393Y-50672571D02*
X151010393Y-49672571D01*
X150947893Y-49172571D02*
X151028251Y-49244000D01*
X150965751Y-49315429D01*
X150885394Y-49244000D01*
X150947893Y-49172571D01*
X150965751Y-49315429D01*
X150510393Y-49672571D02*
X149938964Y-49672571D01*
X150233607Y-49172571D02*
X150394322Y-50458286D01*
X150340751Y-50601143D01*
X150206821Y-50672571D01*
X150063964Y-50672571D01*
X148983608Y-50601143D02*
X149135393Y-50672571D01*
X149421107Y-50672571D01*
X149555036Y-50601143D01*
X149608608Y-50458286D01*
X149537179Y-49886857D01*
X149447893Y-49744000D01*
X149296107Y-49672571D01*
X149010393Y-49672571D01*
X148876465Y-49744000D01*
X148822893Y-49886857D01*
X148840750Y-50029714D01*
X149572893Y-50172571D01*
X148278250Y-50672571D02*
X148153250Y-49672571D01*
X148188965Y-49958286D02*
X148099680Y-49815429D01*
X148019322Y-49744000D01*
X147867536Y-49672571D01*
X147724679Y-49672571D01*
X147224679Y-49672571D02*
X147349679Y-50672571D01*
X147242537Y-49815429D02*
X147162180Y-49744000D01*
X147010393Y-49672571D01*
X146796108Y-49672571D01*
X146662180Y-49744000D01*
X146608608Y-49886857D01*
X146706822Y-50672571D01*
X145912180Y-50601143D02*
X145921108Y-50672571D01*
X146010394Y-50815429D01*
X146090751Y-50886857D01*
X143492536Y-50672571D02*
X143305036Y-49172571D01*
X143483608Y-50601143D02*
X143635393Y-50672571D01*
X143921107Y-50672571D01*
X144055037Y-50601143D01*
X144117536Y-50529714D01*
X144171108Y-50386857D01*
X144117537Y-49958286D01*
X144028251Y-49815429D01*
X143947894Y-49744000D01*
X143796107Y-49672571D01*
X143510393Y-49672571D01*
X143376465Y-49744000D01*
X142778250Y-50672571D02*
X142653250Y-49672571D01*
X142590750Y-49172571D02*
X142671108Y-49244000D01*
X142608608Y-49315429D01*
X142528251Y-49244000D01*
X142590750Y-49172571D01*
X142608608Y-49315429D01*
X141483608Y-50601143D02*
X141635393Y-50672571D01*
X141921107Y-50672571D01*
X142055036Y-50601143D01*
X142108608Y-50458286D01*
X142037179Y-49886857D01*
X141947893Y-49744000D01*
X141796107Y-49672571D01*
X141510393Y-49672571D01*
X141376465Y-49744000D01*
X141322893Y-49886857D01*
X141340750Y-50029714D01*
X142072893Y-50172571D01*
X139635393Y-50672571D02*
X139447893Y-49172571D01*
X139519322Y-49744000D02*
X139367536Y-49672571D01*
X139081822Y-49672571D01*
X138947894Y-49744000D01*
X138885394Y-49815429D01*
X138831822Y-49958286D01*
X138885393Y-50386857D01*
X138974679Y-50529714D01*
X139055037Y-50601143D01*
X139206822Y-50672571D01*
X139492536Y-50672571D01*
X139626465Y-50601143D01*
X137697894Y-50601143D02*
X137849679Y-50672571D01*
X138135393Y-50672571D01*
X138269322Y-50601143D01*
X138322894Y-50458286D01*
X138251465Y-49886857D01*
X138162179Y-49744000D01*
X138010393Y-49672571D01*
X137724679Y-49672571D01*
X137590751Y-49744000D01*
X137537179Y-49886857D01*
X137555036Y-50029714D01*
X138287179Y-50172571D01*
X136992536Y-50672571D02*
X136867536Y-49672571D01*
X136805036Y-49172571D02*
X136885394Y-49244000D01*
X136822894Y-49315429D01*
X136742537Y-49244000D01*
X136805036Y-49172571D01*
X136822894Y-49315429D01*
X136278250Y-50672571D02*
X136153250Y-49672571D01*
X136171108Y-49815429D02*
X136090751Y-49744000D01*
X135938964Y-49672571D01*
X135724679Y-49672571D01*
X135590751Y-49744000D01*
X135537179Y-49886857D01*
X135635393Y-50672571D01*
X135537179Y-49886857D02*
X135447893Y-49744000D01*
X135296107Y-49672571D01*
X135081822Y-49672571D01*
X134947893Y-49744000D01*
X134894322Y-49886857D01*
X134992536Y-50672571D01*
X160358607Y-52286857D02*
X160153250Y-52358286D01*
X160090750Y-52429714D01*
X160037178Y-52572571D01*
X160063964Y-52786857D01*
X160153250Y-52929714D01*
X160233607Y-53001143D01*
X160385393Y-53072571D01*
X160956821Y-53072571D01*
X160769321Y-51572571D01*
X160269321Y-51572571D01*
X160135393Y-51644000D01*
X160072893Y-51715429D01*
X160019322Y-51858286D01*
X160037179Y-52001143D01*
X160126464Y-52144000D01*
X160206822Y-52215429D01*
X160358607Y-52286857D01*
X160858607Y-52286857D01*
X159242535Y-53072571D02*
X159376465Y-53001143D01*
X159438964Y-52929714D01*
X159492536Y-52786857D01*
X159438965Y-52358286D01*
X159349679Y-52215429D01*
X159269322Y-52144000D01*
X159117535Y-52072571D01*
X158903250Y-52072571D01*
X158769322Y-52144000D01*
X158706822Y-52215429D01*
X158653250Y-52358286D01*
X158706821Y-52786857D01*
X158796107Y-52929714D01*
X158876465Y-53001143D01*
X159028250Y-53072571D01*
X159242535Y-53072571D01*
X158099678Y-53072571D02*
X157912178Y-51572571D01*
X157456821Y-53072571D02*
X157358607Y-52286857D01*
X157412179Y-52144000D01*
X157546107Y-52072571D01*
X157760392Y-52072571D01*
X157912179Y-52144000D01*
X157992536Y-52215429D01*
X156742535Y-53072571D02*
X156617535Y-52072571D01*
X156653250Y-52358286D02*
X156563965Y-52215429D01*
X156483607Y-52144000D01*
X156331821Y-52072571D01*
X156188964Y-52072571D01*
X155233608Y-53001143D02*
X155385393Y-53072571D01*
X155671107Y-53072571D01*
X155805036Y-53001143D01*
X155858608Y-52858286D01*
X155787179Y-52286857D01*
X155697893Y-52144000D01*
X155546107Y-52072571D01*
X155260393Y-52072571D01*
X155126465Y-52144000D01*
X155072893Y-52286857D01*
X155090750Y-52429714D01*
X155822893Y-52572571D01*
X154403250Y-52072571D02*
X154528250Y-53072571D01*
X154421108Y-52215429D02*
X154340751Y-52144000D01*
X154188964Y-52072571D01*
X153974679Y-52072571D01*
X153840751Y-52144000D01*
X153787179Y-52286857D01*
X153885393Y-53072571D01*
X151260393Y-52072571D02*
X151385393Y-53072571D01*
X151903250Y-52072571D02*
X152001465Y-52858286D01*
X151947894Y-53001143D01*
X151813964Y-53072571D01*
X151599679Y-53072571D01*
X151447894Y-53001143D01*
X151367536Y-52929714D01*
X150546107Y-52072571D02*
X150671107Y-53072571D01*
X150563965Y-52215429D02*
X150483608Y-52144000D01*
X150331821Y-52072571D01*
X150117536Y-52072571D01*
X149983608Y-52144000D01*
X149930036Y-52286857D01*
X150028250Y-53072571D01*
X148671107Y-53072571D02*
X148483607Y-51572571D01*
X148662179Y-53001143D02*
X148813964Y-53072571D01*
X149099678Y-53072571D01*
X149233608Y-53001143D01*
X149296107Y-52929714D01*
X149349679Y-52786857D01*
X149296108Y-52358286D01*
X149206822Y-52215429D01*
X149126465Y-52144000D01*
X148974678Y-52072571D01*
X148688964Y-52072571D01*
X148555036Y-52144000D01*
X146813964Y-53072571D02*
X146626464Y-51572571D01*
X145956821Y-53072571D01*
X145769321Y-51572571D01*
X145242535Y-53072571D02*
X145117535Y-52072571D01*
X145055035Y-51572571D02*
X145135393Y-51644000D01*
X145072893Y-51715429D01*
X144992536Y-51644000D01*
X145055035Y-51572571D01*
X145072893Y-51715429D01*
X143947893Y-53001143D02*
X144099678Y-53072571D01*
X144385392Y-53072571D01*
X144519321Y-53001143D01*
X144572893Y-52858286D01*
X144501464Y-52286857D01*
X144412178Y-52144000D01*
X144260392Y-52072571D01*
X143974678Y-52072571D01*
X143840750Y-52144000D01*
X143787178Y-52286857D01*
X143805035Y-52429714D01*
X144537178Y-52572571D01*
X143331821Y-52072571D02*
X142760392Y-52072571D01*
X143055035Y-51572571D02*
X143215750Y-52858286D01*
X143162179Y-53001143D01*
X143028249Y-53072571D01*
X142885392Y-53072571D01*
X141805036Y-53001143D02*
X141956821Y-53072571D01*
X142242535Y-53072571D01*
X142376464Y-53001143D01*
X142430036Y-52858286D01*
X142358607Y-52286857D01*
X142269321Y-52144000D01*
X142117535Y-52072571D01*
X141831821Y-52072571D01*
X141697893Y-52144000D01*
X141644321Y-52286857D01*
X141662178Y-52429714D01*
X142394321Y-52572571D01*
X140974678Y-52072571D02*
X141099678Y-53072571D01*
X140992536Y-52215429D02*
X140912179Y-52144000D01*
X140760392Y-52072571D01*
X140546107Y-52072571D01*
X140412179Y-52144000D01*
X140358607Y-52286857D01*
X140456821Y-53072571D01*
X162706821Y-55472571D02*
X162519321Y-53972571D01*
X162697893Y-55401143D02*
X162849678Y-55472571D01*
X163135392Y-55472571D01*
X163269322Y-55401143D01*
X163331821Y-55329714D01*
X163385393Y-55186857D01*
X163331822Y-54758286D01*
X163242536Y-54615429D01*
X163162179Y-54544000D01*
X163010392Y-54472571D01*
X162724678Y-54472571D01*
X162590750Y-54544000D01*
X161412179Y-55401143D02*
X161563964Y-55472571D01*
X161849678Y-55472571D01*
X161983607Y-55401143D01*
X162037179Y-55258286D01*
X161965750Y-54686857D01*
X161876464Y-54544000D01*
X161724678Y-54472571D01*
X161438964Y-54472571D01*
X161305036Y-54544000D01*
X161251464Y-54686857D01*
X161269321Y-54829714D01*
X162001464Y-54972571D01*
X160706821Y-55472571D02*
X160581821Y-54472571D01*
X160617536Y-54758286D02*
X160528251Y-54615429D01*
X160447893Y-54544000D01*
X160296107Y-54472571D01*
X160153250Y-54472571D01*
X158662179Y-53972571D02*
X158349679Y-55472571D01*
X157662179Y-53972571D01*
X157349679Y-55472571D02*
X157224679Y-54472571D01*
X157162179Y-53972571D02*
X157242537Y-54044000D01*
X157180037Y-54115429D01*
X157099680Y-54044000D01*
X157162179Y-53972571D01*
X157180037Y-54115429D01*
X155992536Y-55472571D02*
X155894322Y-54686857D01*
X155947894Y-54544000D01*
X156081822Y-54472571D01*
X156367536Y-54472571D01*
X156519322Y-54544000D01*
X155983608Y-55401143D02*
X156135393Y-55472571D01*
X156492536Y-55472571D01*
X156626465Y-55401143D01*
X156680037Y-55258286D01*
X156662180Y-55115429D01*
X156572893Y-54972571D01*
X156421108Y-54901143D01*
X156063965Y-54901143D01*
X155912179Y-54829714D01*
X155340751Y-55401143D02*
X155206822Y-55472571D01*
X154921107Y-55472571D01*
X154769322Y-55401143D01*
X154680037Y-55258286D01*
X154671108Y-55186857D01*
X154724679Y-55044000D01*
X154858607Y-54972571D01*
X155072893Y-54972571D01*
X155206822Y-54901143D01*
X155260394Y-54758286D01*
X155251465Y-54686857D01*
X155162179Y-54544000D01*
X155010393Y-54472571D01*
X154796107Y-54472571D01*
X154662179Y-54544000D01*
X152153250Y-54472571D02*
X152305036Y-55686857D01*
X152394322Y-55829714D01*
X152474679Y-55901143D01*
X152626464Y-55972571D01*
X152840750Y-55972571D01*
X152974679Y-55901143D01*
X152269322Y-55401143D02*
X152421107Y-55472571D01*
X152706821Y-55472571D01*
X152840751Y-55401143D01*
X152903250Y-55329714D01*
X152956822Y-55186857D01*
X152903251Y-54758286D01*
X152813965Y-54615429D01*
X152733608Y-54544000D01*
X152581821Y-54472571D01*
X152296107Y-54472571D01*
X152162179Y-54544000D01*
X150983608Y-55401143D02*
X151135393Y-55472571D01*
X151421107Y-55472571D01*
X151555036Y-55401143D01*
X151608608Y-55258286D01*
X151537179Y-54686857D01*
X151447893Y-54544000D01*
X151296107Y-54472571D01*
X151010393Y-54472571D01*
X150876465Y-54544000D01*
X150822893Y-54686857D01*
X150840750Y-54829714D01*
X151572893Y-54972571D01*
X150367536Y-54472571D02*
X149796107Y-54472571D01*
X150278250Y-55472571D02*
X150117536Y-54186857D01*
X150028251Y-54044000D01*
X149876464Y-53972571D01*
X149733607Y-53972571D01*
X148778250Y-55472571D02*
X148680036Y-54686857D01*
X148733608Y-54544000D01*
X148867536Y-54472571D01*
X149153250Y-54472571D01*
X149305036Y-54544000D01*
X148769322Y-55401143D02*
X148921107Y-55472571D01*
X149278250Y-55472571D01*
X149412179Y-55401143D01*
X149465751Y-55258286D01*
X149447894Y-55115429D01*
X149358607Y-54972571D01*
X149206822Y-54901143D01*
X148849679Y-54901143D01*
X148697893Y-54829714D01*
X147849678Y-55472571D02*
X147983608Y-55401143D01*
X148037179Y-55258286D01*
X147876464Y-53972571D01*
X147063964Y-55472571D02*
X147197894Y-55401143D01*
X147251465Y-55258286D01*
X147090750Y-53972571D01*
X145912180Y-55401143D02*
X146063965Y-55472571D01*
X146349679Y-55472571D01*
X146483608Y-55401143D01*
X146537180Y-55258286D01*
X146465751Y-54686857D01*
X146376465Y-54544000D01*
X146224679Y-54472571D01*
X145938965Y-54472571D01*
X145805037Y-54544000D01*
X145751465Y-54686857D01*
X145769322Y-54829714D01*
X146501465Y-54972571D01*
X145081822Y-54472571D02*
X145206822Y-55472571D01*
X145099680Y-54615429D02*
X145019323Y-54544000D01*
X144867536Y-54472571D01*
X144653251Y-54472571D01*
X144519323Y-54544000D01*
X144465751Y-54686857D01*
X144563965Y-55472571D01*
X142769323Y-55401143D02*
X142635394Y-55472571D01*
X142349679Y-55472571D01*
X142197894Y-55401143D01*
X142108609Y-55258286D01*
X142099680Y-55186857D01*
X142153251Y-55044000D01*
X142287179Y-54972571D01*
X142501465Y-54972571D01*
X142635394Y-54901143D01*
X142688966Y-54758286D01*
X142680037Y-54686857D01*
X142590751Y-54544000D01*
X142438965Y-54472571D01*
X142224679Y-54472571D01*
X142090751Y-54544000D01*
X141492536Y-55472571D02*
X141367536Y-54472571D01*
X141305036Y-53972571D02*
X141385394Y-54044000D01*
X141322894Y-54115429D01*
X141242537Y-54044000D01*
X141305036Y-53972571D01*
X141322894Y-54115429D01*
X140653250Y-54472571D02*
X140778250Y-55472571D01*
X140671108Y-54615429D02*
X140590751Y-54544000D01*
X140438964Y-54472571D01*
X140224679Y-54472571D01*
X140090751Y-54544000D01*
X140037179Y-54686857D01*
X140135393Y-55472571D01*
X138778250Y-55472571D02*
X138590750Y-53972571D01*
X138769322Y-55401143D02*
X138921107Y-55472571D01*
X139206821Y-55472571D01*
X139340751Y-55401143D01*
X139403250Y-55329714D01*
X139456822Y-55186857D01*
X139403251Y-54758286D01*
X139313965Y-54615429D01*
X139233608Y-54544000D01*
X139081821Y-54472571D01*
X138796107Y-54472571D01*
X138662179Y-54544000D01*
X138046107Y-55329714D02*
X137983608Y-55401143D01*
X138063964Y-55472571D01*
X138126465Y-55401143D01*
X138046107Y-55329714D01*
X138063964Y-55472571D01*
X161385392Y-57872571D02*
X161197892Y-56372571D01*
X160831821Y-57444000D01*
X160197892Y-56372571D01*
X160385392Y-57872571D01*
X159456820Y-57872571D02*
X159590750Y-57801143D01*
X159653249Y-57729714D01*
X159706821Y-57586857D01*
X159653250Y-57158286D01*
X159563964Y-57015429D01*
X159483607Y-56944000D01*
X159331820Y-56872571D01*
X159117535Y-56872571D01*
X158983607Y-56944000D01*
X158921107Y-57015429D01*
X158867535Y-57158286D01*
X158921106Y-57586857D01*
X159010392Y-57729714D01*
X159090750Y-57801143D01*
X159242535Y-57872571D01*
X159456820Y-57872571D01*
X159412178Y-56372571D02*
X159349678Y-56444000D01*
X159430036Y-56515429D01*
X159492535Y-56444000D01*
X159412178Y-56372571D01*
X159430036Y-56515429D01*
X158840749Y-56372571D02*
X158778249Y-56444000D01*
X158858607Y-56515429D01*
X158921107Y-56444000D01*
X158840749Y-56372571D01*
X158858607Y-56515429D01*
X157546106Y-56872571D02*
X157697892Y-58086857D01*
X157787178Y-58229714D01*
X157867535Y-58301143D01*
X158019320Y-58372571D01*
X158233606Y-58372571D01*
X158367535Y-58301143D01*
X157662178Y-57801143D02*
X157813963Y-57872571D01*
X158099677Y-57872571D01*
X158233607Y-57801143D01*
X158296106Y-57729714D01*
X158349678Y-57586857D01*
X158296107Y-57158286D01*
X158206821Y-57015429D01*
X158126464Y-56944000D01*
X157974677Y-56872571D01*
X157688963Y-56872571D01*
X157555035Y-56944000D01*
X156376464Y-57801143D02*
X156528249Y-57872571D01*
X156813963Y-57872571D01*
X156947892Y-57801143D01*
X157001464Y-57658286D01*
X156930035Y-57086857D01*
X156840749Y-56944000D01*
X156688963Y-56872571D01*
X156403249Y-56872571D01*
X156269321Y-56944000D01*
X156215749Y-57086857D01*
X156233606Y-57229714D01*
X156965749Y-57372571D01*
X154528249Y-57872571D02*
X154403249Y-56872571D01*
X154340749Y-56372571D02*
X154421107Y-56444000D01*
X154358607Y-56515429D01*
X154278250Y-56444000D01*
X154340749Y-56372571D01*
X154358607Y-56515429D01*
X153813963Y-57872571D02*
X153626463Y-56372571D01*
X153171106Y-57872571D02*
X153072892Y-57086857D01*
X153126464Y-56944000D01*
X153260392Y-56872571D01*
X153474677Y-56872571D01*
X153626464Y-56944000D01*
X153706821Y-57015429D01*
X152456820Y-57872571D02*
X152331820Y-56872571D01*
X152367535Y-57158286D02*
X152278250Y-57015429D01*
X152197892Y-56944000D01*
X152046106Y-56872571D01*
X151903249Y-56872571D01*
X149912178Y-56372571D02*
X149626464Y-56372571D01*
X149492535Y-56444000D01*
X149367535Y-56586857D01*
X149331821Y-56872571D01*
X149394321Y-57372571D01*
X149501464Y-57658286D01*
X149662178Y-57801143D01*
X149813964Y-57872571D01*
X150099678Y-57872571D01*
X150233607Y-57801143D01*
X150358607Y-57658286D01*
X150394321Y-57372571D01*
X150331821Y-56872571D01*
X150224678Y-56586857D01*
X150063964Y-56444000D01*
X149912178Y-56372571D01*
X148688963Y-56872571D02*
X148876463Y-58372571D01*
X148697892Y-56944000D02*
X148546106Y-56872571D01*
X148260392Y-56872571D01*
X148126464Y-56944000D01*
X148063964Y-57015429D01*
X148010392Y-57158286D01*
X148063963Y-57586857D01*
X148153249Y-57729714D01*
X148233607Y-57801143D01*
X148385392Y-57872571D01*
X148671106Y-57872571D01*
X148805035Y-57801143D01*
X147546106Y-56872571D02*
X146974677Y-56872571D01*
X147456820Y-57872571D02*
X147296106Y-56586857D01*
X147206821Y-56444000D01*
X147055034Y-56372571D01*
X146912177Y-56372571D01*
X146019321Y-57801143D02*
X146171106Y-57872571D01*
X146456820Y-57872571D01*
X146590749Y-57801143D01*
X146644321Y-57658286D01*
X146572892Y-57086857D01*
X146483606Y-56944000D01*
X146331820Y-56872571D01*
X146046106Y-56872571D01*
X145912178Y-56944000D01*
X145858606Y-57086857D01*
X145876463Y-57229714D01*
X146608606Y-57372571D01*
X145313963Y-57872571D02*
X145188963Y-56872571D01*
X145224678Y-57158286D02*
X145135393Y-57015429D01*
X145055035Y-56944000D01*
X144903249Y-56872571D01*
X144760392Y-56872571D01*
X142474678Y-56872571D02*
X142599678Y-57872571D01*
X143117535Y-56872571D02*
X143215750Y-57658286D01*
X143162179Y-57801143D01*
X143028249Y-57872571D01*
X142813964Y-57872571D01*
X142662179Y-57801143D01*
X142581821Y-57729714D01*
X141760392Y-56872571D02*
X141885392Y-57872571D01*
X141778250Y-57015429D02*
X141697893Y-56944000D01*
X141546106Y-56872571D01*
X141331821Y-56872571D01*
X141197893Y-56944000D01*
X141144321Y-57086857D01*
X141242535Y-57872571D01*
X140590750Y-57801143D02*
X140456821Y-57872571D01*
X140171106Y-57872571D01*
X140019321Y-57801143D01*
X139930036Y-57658286D01*
X139921107Y-57586857D01*
X139974678Y-57444000D01*
X140108606Y-57372571D01*
X140322892Y-57372571D01*
X140456821Y-57301143D01*
X140510393Y-57158286D01*
X140501464Y-57086857D01*
X140412178Y-56944000D01*
X140260392Y-56872571D01*
X140046106Y-56872571D01*
X139912178Y-56944000D01*
X163885392Y-60272571D02*
X163697892Y-58772571D01*
X163769321Y-59344000D02*
X163617535Y-59272571D01*
X163331821Y-59272571D01*
X163197893Y-59344000D01*
X163135393Y-59415429D01*
X163081821Y-59558286D01*
X163135392Y-59986857D01*
X163224678Y-60129714D01*
X163305036Y-60201143D01*
X163456821Y-60272571D01*
X163742535Y-60272571D01*
X163876464Y-60201143D01*
X161947893Y-60201143D02*
X162099678Y-60272571D01*
X162385392Y-60272571D01*
X162519321Y-60201143D01*
X162572893Y-60058286D01*
X162501464Y-59486857D01*
X162412178Y-59344000D01*
X162260392Y-59272571D01*
X161974678Y-59272571D01*
X161840750Y-59344000D01*
X161787178Y-59486857D01*
X161805035Y-59629714D01*
X162537178Y-59772571D01*
X161305036Y-60201143D02*
X161171107Y-60272571D01*
X160885392Y-60272571D01*
X160733607Y-60201143D01*
X160644322Y-60058286D01*
X160635393Y-59986857D01*
X160688964Y-59844000D01*
X160822892Y-59772571D01*
X161037178Y-59772571D01*
X161171107Y-59701143D01*
X161224679Y-59558286D01*
X161215750Y-59486857D01*
X161126464Y-59344000D01*
X160974678Y-59272571D01*
X160760392Y-59272571D01*
X160626464Y-59344000D01*
X160090750Y-60201143D02*
X159956821Y-60272571D01*
X159671106Y-60272571D01*
X159519321Y-60201143D01*
X159430036Y-60058286D01*
X159421107Y-59986857D01*
X159474678Y-59844000D01*
X159608606Y-59772571D01*
X159822892Y-59772571D01*
X159956821Y-59701143D01*
X160010393Y-59558286D01*
X160001464Y-59486857D01*
X159912178Y-59344000D01*
X159760392Y-59272571D01*
X159546106Y-59272571D01*
X159412178Y-59344000D01*
X158233607Y-60201143D02*
X158385392Y-60272571D01*
X158671106Y-60272571D01*
X158805035Y-60201143D01*
X158858607Y-60058286D01*
X158787178Y-59486857D01*
X158697892Y-59344000D01*
X158546106Y-59272571D01*
X158260392Y-59272571D01*
X158126464Y-59344000D01*
X158072892Y-59486857D01*
X158090749Y-59629714D01*
X158822892Y-59772571D01*
X157528249Y-60272571D02*
X157403249Y-59272571D01*
X157438964Y-59558286D02*
X157349679Y-59415429D01*
X157269321Y-59344000D01*
X157117535Y-59272571D01*
X156974678Y-59272571D01*
X156019322Y-60201143D02*
X156171107Y-60272571D01*
X156456821Y-60272571D01*
X156590750Y-60201143D01*
X156644322Y-60058286D01*
X156572893Y-59486857D01*
X156483607Y-59344000D01*
X156331821Y-59272571D01*
X156046107Y-59272571D01*
X155912179Y-59344000D01*
X155858607Y-59486857D01*
X155876464Y-59629714D01*
X156608607Y-59772571D01*
X155376465Y-60201143D02*
X155242536Y-60272571D01*
X154956821Y-60272571D01*
X154805036Y-60201143D01*
X154715751Y-60058286D01*
X154706822Y-59986857D01*
X154760393Y-59844000D01*
X154894321Y-59772571D01*
X155108607Y-59772571D01*
X155242536Y-59701143D01*
X155296108Y-59558286D01*
X155287179Y-59486857D01*
X155197893Y-59344000D01*
X155046107Y-59272571D01*
X154831821Y-59272571D01*
X154697893Y-59344000D01*
X152242535Y-60272571D02*
X152956821Y-60272571D01*
X152769321Y-58772571D01*
X151099678Y-60272571D02*
X151001464Y-59486857D01*
X151055036Y-59344000D01*
X151188964Y-59272571D01*
X151474678Y-59272571D01*
X151626464Y-59344000D01*
X151090750Y-60201143D02*
X151242535Y-60272571D01*
X151599678Y-60272571D01*
X151733607Y-60201143D01*
X151787179Y-60058286D01*
X151769322Y-59915429D01*
X151680035Y-59772571D01*
X151528250Y-59701143D01*
X151171107Y-59701143D01*
X151019321Y-59629714D01*
X150403249Y-59272571D02*
X150171106Y-60272571D01*
X149688964Y-59272571D02*
X150171106Y-60272571D01*
X150358607Y-60629714D01*
X150438964Y-60701143D01*
X150590749Y-60772571D01*
X149028249Y-60272571D02*
X149162179Y-60201143D01*
X149224678Y-60129714D01*
X149278250Y-59986857D01*
X149224679Y-59558286D01*
X149135393Y-59415429D01*
X149055036Y-59344000D01*
X148903249Y-59272571D01*
X148688964Y-59272571D01*
X148555036Y-59344000D01*
X148492536Y-59415429D01*
X148438964Y-59558286D01*
X148492535Y-59986857D01*
X148581821Y-60129714D01*
X148662179Y-60201143D01*
X148813964Y-60272571D01*
X149028249Y-60272571D01*
X147117535Y-59272571D02*
X147242535Y-60272571D01*
X147760392Y-59272571D02*
X147858607Y-60058286D01*
X147805036Y-60201143D01*
X147671106Y-60272571D01*
X147456821Y-60272571D01*
X147305036Y-60201143D01*
X147224678Y-60129714D01*
X146617535Y-59272571D02*
X146046106Y-59272571D01*
X146340749Y-58772571D02*
X146501464Y-60058286D01*
X146447893Y-60201143D01*
X146313963Y-60272571D01*
X146171106Y-60272571D01*
X144313963Y-60272571D02*
X144447893Y-60201143D01*
X144501464Y-60058286D01*
X144340749Y-58772571D01*
X143162179Y-60201143D02*
X143313964Y-60272571D01*
X143599678Y-60272571D01*
X143733607Y-60201143D01*
X143787179Y-60058286D01*
X143715750Y-59486857D01*
X143626464Y-59344000D01*
X143474678Y-59272571D01*
X143188964Y-59272571D01*
X143055036Y-59344000D01*
X143001464Y-59486857D01*
X143019321Y-59629714D01*
X143751464Y-59772571D01*
X142456821Y-60272571D02*
X142269321Y-58772571D01*
X141813964Y-60272571D02*
X141715750Y-59486857D01*
X141769322Y-59344000D01*
X141903250Y-59272571D01*
X142117535Y-59272571D01*
X142269322Y-59344000D01*
X142349679Y-59415429D01*
X141099678Y-60272571D02*
X140974678Y-59272571D01*
X141010393Y-59558286D02*
X140921108Y-59415429D01*
X140840750Y-59344000D01*
X140688964Y-59272571D01*
X140546107Y-59272571D01*
X139590751Y-60201143D02*
X139742536Y-60272571D01*
X140028250Y-60272571D01*
X140162179Y-60201143D01*
X140215751Y-60058286D01*
X140144322Y-59486857D01*
X140055036Y-59344000D01*
X139903250Y-59272571D01*
X139617536Y-59272571D01*
X139483608Y-59344000D01*
X139430036Y-59486857D01*
X139447893Y-59629714D01*
X140180036Y-59772571D01*
X138760393Y-59272571D02*
X138885393Y-60272571D01*
X138778251Y-59415429D02*
X138697894Y-59344000D01*
X138546107Y-59272571D01*
X138331822Y-59272571D01*
X138197894Y-59344000D01*
X138144322Y-59486857D01*
X138242536Y-60272571D01*
X137510393Y-60129714D02*
X137447894Y-60201143D01*
X137528250Y-60272571D01*
X137590751Y-60201143D01*
X137510393Y-60129714D01*
X137528250Y-60272571D01*
X137456822Y-59701143D02*
X137421108Y-58844000D01*
X137340750Y-58772571D01*
X137278251Y-58844000D01*
X137456822Y-59701143D01*
X137340750Y-58772571D01*
D12*
X131445000Y-74041000D03*
X136525000Y-74041000D03*
D13*
X147955000Y-69390260D03*
X147955000Y-91391740D03*
D14*
X154686000Y-112141000D03*
X154686000Y-109601000D03*
X156684980Y-109601000D03*
X156684980Y-112141000D03*
D15*
X159385000Y-116870480D03*
X159385000Y-104871520D03*
D16*
X92456000Y-113538000D03*
X92456000Y-110998000D03*
X92456000Y-108458000D03*
X92456000Y-102997000D03*
X92456000Y-100457000D03*
X92456000Y-97917000D03*
X92329000Y-90678000D03*
X92329000Y-93218000D03*
X164465000Y-68961000D03*
X164465000Y-71501000D03*
D17*
X92329000Y-84201000D03*
X94869000Y-84201000D03*
X97409000Y-84201000D03*
X99949000Y-84201000D03*
X102489000Y-84201000D03*
X105029000Y-84201000D03*
D18*
X81280000Y-55880000D03*
D19*
X81280000Y-53340000D03*
X81280000Y-50800000D03*
X81280000Y-48260000D03*
D18*
X118491000Y-92075000D03*
D19*
X115951000Y-92075000D03*
X113411000Y-92075000D03*
X110871000Y-92075000D03*
X108331000Y-92075000D03*
X105791000Y-92075000D03*
X103251000Y-92075000D03*
X100711000Y-92075000D03*
D18*
X167434000Y-95210000D03*
D19*
X167434000Y-92670000D03*
D20*
X112395000Y-130429000D03*
D21*
X112395000Y-132969000D03*
X114935000Y-130429000D03*
X114935000Y-132969000D03*
X117475000Y-130429000D03*
X117475000Y-132969000D03*
D18*
X81280000Y-62230000D03*
D19*
X81280000Y-64770000D03*
X81280000Y-67310000D03*
X81280000Y-69850000D03*
X98806000Y-125476000D03*
X93726000Y-125476000D03*
X98806000Y-133096000D03*
X93726000Y-133096000D03*
X90043000Y-117094000D03*
X90043000Y-122174000D03*
X97663000Y-117094000D03*
X97663000Y-122174000D03*
D22*
X113284000Y-83566000D03*
X113284000Y-86106000D03*
X127381000Y-84836000D03*
X124841000Y-84836000D03*
X147320000Y-107061000D03*
X144780000Y-107061000D03*
X147320000Y-112141000D03*
X144780000Y-112141000D03*
X106045000Y-119507000D03*
X106045000Y-122047000D03*
X111252000Y-119507000D03*
X111252000Y-122047000D03*
D23*
X167434000Y-86440000D03*
D24*
X105537000Y-115316000D03*
X106553000Y-99441000D03*
X115189000Y-82169000D03*
X132207000Y-106934000D03*
X122682000Y-94996000D03*
X121031000Y-119126000D03*
X122301000Y-97536000D03*
X140462000Y-105283000D03*
X152654000Y-101600000D03*
X145034000Y-115824000D03*
X141859000Y-65278000D03*
X127762000Y-66929000D03*
X115316000Y-66929000D03*
X102743000Y-66929000D03*
X81153000Y-76581000D03*
X140208000Y-69596000D03*
X104267000Y-64643000D03*
X104267000Y-52959000D03*
X131445000Y-101981000D03*
X104267000Y-71120000D03*
X116967000Y-64643000D03*
X116967000Y-52959000D03*
X131445000Y-99695000D03*
X116967000Y-71120000D03*
X114173000Y-119126000D03*
X102616000Y-78867000D03*
X116332000Y-118364000D03*
X115697000Y-78740000D03*
X128905000Y-52959000D03*
X128905000Y-64643000D03*
X131445000Y-97409000D03*
X128905000Y-71120000D03*
X125603000Y-99568000D03*
X89662000Y-78613000D03*
X125222000Y-106934000D03*
X127635000Y-111760000D03*
X116205000Y-99949000D03*
X125603000Y-113157000D03*
X167386000Y-102616000D03*
X150495000Y-115951000D03*
D25*
X116205000Y-123952000D02*
X121031000Y-119126000D01*
X104902000Y-123952000D02*
X116205000Y-123952000D01*
X103124000Y-122174000D02*
X104902000Y-123952000D01*
X103124000Y-117729000D02*
X103124000Y-122174000D01*
X105537000Y-115316000D02*
X103124000Y-117729000D01*
X121031000Y-119126000D02*
X123317000Y-119126000D01*
X123317000Y-119126000D02*
X132207000Y-110236000D01*
X132207000Y-110236000D02*
X132207000Y-106934000D01*
X122555000Y-95123000D02*
X122555000Y-91440000D01*
X118999000Y-85979000D02*
X115189000Y-82169000D01*
X118999000Y-87884000D02*
X118999000Y-85979000D01*
X122555000Y-91440000D02*
X118999000Y-87884000D01*
D26*
X121031000Y-119126000D02*
X121031000Y-119126000D01*
D25*
X132207000Y-106934000D02*
X133985000Y-105156000D01*
D26*
X122301000Y-97536000D02*
X122301000Y-99441000D01*
X140335000Y-105156000D02*
X140462000Y-105283000D01*
X128016000Y-105156000D02*
X133985000Y-105156000D01*
X133985000Y-105156000D02*
X140335000Y-105156000D01*
X122301000Y-99441000D02*
X128016000Y-105156000D01*
X106553000Y-99441000D02*
X107950000Y-99441000D01*
X109855000Y-97536000D02*
X122301000Y-97536000D01*
X107950000Y-99441000D02*
X109855000Y-97536000D01*
X106553000Y-99441000D02*
X106553000Y-104648000D01*
X106553000Y-104648000D02*
X121031000Y-119126000D01*
D25*
X122301000Y-97536000D02*
X122301000Y-95377000D01*
X122301000Y-95377000D02*
X122555000Y-95123000D01*
X122555000Y-95123000D02*
X122682000Y-94996000D01*
D27*
X142113000Y-103632000D02*
X140462000Y-105283000D01*
X150622000Y-103632000D02*
X142113000Y-103632000D01*
X152654000Y-101600000D02*
X150622000Y-103632000D01*
D25*
X132207000Y-106934000D02*
X132207000Y-109601000D01*
X132207000Y-109601000D02*
X136398000Y-113792000D01*
X136398000Y-113792000D02*
X143002000Y-113792000D01*
X143002000Y-113792000D02*
X145034000Y-115824000D01*
D28*
X141668500Y-65087500D02*
X136334500Y-65087500D01*
X141859000Y-65278000D02*
X141668500Y-65087500D01*
X134493000Y-66929000D02*
X127762000Y-66929000D01*
X136334500Y-65087500D02*
X134493000Y-66929000D01*
X127762000Y-66929000D02*
X115316000Y-66929000D01*
X115316000Y-66929000D02*
X102743000Y-66929000D01*
X85598000Y-76581000D02*
X81153000Y-76581000D01*
X93091000Y-69088000D02*
X85598000Y-76581000D01*
X139700000Y-69088000D02*
X93091000Y-69088000D01*
X140208000Y-69596000D02*
X139700000Y-69088000D01*
D25*
X104267000Y-64643000D02*
X104267000Y-52959000D01*
X131445000Y-101981000D02*
X130937000Y-101981000D01*
X107823000Y-74676000D02*
X104267000Y-71120000D01*
X118618000Y-74676000D02*
X107823000Y-74676000D01*
X120650000Y-76708000D02*
X118618000Y-74676000D01*
X120650000Y-87249000D02*
X120650000Y-76708000D01*
X126492000Y-93091000D02*
X120650000Y-87249000D01*
X126492000Y-97536000D02*
X126492000Y-93091000D01*
X130937000Y-101981000D02*
X126492000Y-97536000D01*
X116967000Y-64643000D02*
X116967000Y-52959000D01*
X131445000Y-99695000D02*
X129921000Y-99695000D01*
X116967000Y-71628000D02*
X116967000Y-71120000D01*
X121539000Y-76200000D02*
X116967000Y-71628000D01*
X121539000Y-86868000D02*
X121539000Y-76200000D01*
X127381000Y-92710000D02*
X121539000Y-86868000D01*
X127381000Y-97155000D02*
X127381000Y-92710000D01*
X129921000Y-99695000D02*
X127381000Y-97155000D01*
X114173000Y-119126000D02*
X114173000Y-116586000D01*
X98298000Y-100711000D02*
X98298000Y-91059000D01*
X114173000Y-116586000D02*
X98298000Y-100711000D01*
X98298000Y-91059000D02*
X101092000Y-88265000D01*
X101092000Y-88265000D02*
X106045000Y-88265000D01*
X106045000Y-88265000D02*
X107569000Y-86741000D01*
X107569000Y-86741000D02*
X107569000Y-83439000D01*
X107569000Y-83439000D02*
X105156000Y-81026000D01*
X105156000Y-81026000D02*
X103251000Y-81026000D01*
X103251000Y-81026000D02*
X102616000Y-80391000D01*
X102616000Y-80391000D02*
X102616000Y-78867000D01*
X116332000Y-118364000D02*
X116332000Y-117729000D01*
X108204000Y-88900000D02*
X109474000Y-87630000D01*
X101346000Y-88900000D02*
X108204000Y-88900000D01*
X98933000Y-91313000D02*
X101346000Y-88900000D01*
X98933000Y-100330000D02*
X98933000Y-91313000D01*
X116332000Y-117729000D02*
X98933000Y-100330000D01*
X114681000Y-78740000D02*
X115697000Y-78740000D01*
X109474000Y-83947000D02*
X114681000Y-78740000D01*
X109474000Y-87630000D02*
X109474000Y-83947000D01*
X128905000Y-64643000D02*
X128905000Y-52959000D01*
X131445000Y-97409000D02*
X131445000Y-83947000D01*
X127635000Y-72390000D02*
X128905000Y-71120000D01*
X127635000Y-80137000D02*
X127635000Y-72390000D01*
X131445000Y-83947000D02*
X127635000Y-80137000D01*
X125603000Y-99568000D02*
X125603000Y-93218000D01*
X89662000Y-77724000D02*
X89662000Y-78613000D01*
X91948000Y-75438000D02*
X89662000Y-77724000D01*
X118237000Y-75438000D02*
X91948000Y-75438000D01*
X119888000Y-77089000D02*
X118237000Y-75438000D01*
X119888000Y-87503000D02*
X119888000Y-77089000D01*
X125603000Y-93218000D02*
X119888000Y-87503000D01*
X125222000Y-106934000D02*
X126365000Y-108077000D01*
X126365000Y-108077000D02*
X126365000Y-110490000D01*
X126365000Y-110490000D02*
X127635000Y-111760000D01*
X116205000Y-99949000D02*
X116205000Y-104775000D01*
X124587000Y-113157000D02*
X125603000Y-113157000D01*
X116205000Y-104775000D02*
X124587000Y-113157000D01*
D27*
X156083000Y-115951000D02*
X167386000Y-104648000D01*
X167386000Y-104648000D02*
X167386000Y-102616000D01*
X150495000Y-115951000D02*
X156083000Y-115951000D01*
D25*
G36*
X169224000Y-135230000D02*
X169179321Y-135230000D01*
X169179321Y-61429000D01*
X169179321Y-45459000D01*
X166919821Y-45459000D01*
X166919821Y-41447794D01*
X166542240Y-40533979D01*
X165843699Y-39834217D01*
X164930544Y-39455042D01*
X163941794Y-39454179D01*
X163027979Y-39831760D01*
X162328217Y-40530301D01*
X161949042Y-41443456D01*
X161948179Y-42432206D01*
X162325760Y-43346021D01*
X163024301Y-44045783D01*
X163937456Y-44424958D01*
X164926206Y-44425821D01*
X165840021Y-44048240D01*
X166539783Y-43349699D01*
X166918958Y-42436544D01*
X166919821Y-41447794D01*
X166919821Y-45459000D01*
X132064679Y-45459000D01*
X132064679Y-61429000D01*
X169179321Y-61429000D01*
X169179321Y-135230000D01*
X168819570Y-135230000D01*
X168819570Y-87316880D01*
X168819570Y-87064261D01*
X168819570Y-86725750D01*
X168819570Y-86154250D01*
X168819570Y-85815739D01*
X168819570Y-85563120D01*
X168722897Y-85329731D01*
X168544268Y-85151103D01*
X168310879Y-85054430D01*
X167719750Y-85054430D01*
X167561000Y-85213180D01*
X167561000Y-86313000D01*
X168660820Y-86313000D01*
X168819570Y-86154250D01*
X168819570Y-86725750D01*
X168660820Y-86567000D01*
X167561000Y-86567000D01*
X167561000Y-87666820D01*
X167719750Y-87825570D01*
X168310879Y-87825570D01*
X168544268Y-87728897D01*
X168722897Y-87550269D01*
X168819570Y-87316880D01*
X168819570Y-135230000D01*
X168779940Y-135230000D01*
X168779940Y-95908500D01*
X168779940Y-94511500D01*
X168779927Y-94511432D01*
X168779927Y-92862520D01*
X168751148Y-92332801D01*
X168603800Y-91977071D01*
X168368188Y-91915417D01*
X168188583Y-92095022D01*
X168188583Y-91735812D01*
X168126929Y-91500200D01*
X167626520Y-91324073D01*
X167307000Y-91341432D01*
X167307000Y-87666820D01*
X167307000Y-86567000D01*
X167307000Y-86313000D01*
X167307000Y-85213180D01*
X167148250Y-85054430D01*
X166649464Y-85054430D01*
X166649464Y-68961000D01*
X166543800Y-68429793D01*
X166242896Y-67979458D01*
X165792561Y-67678554D01*
X165261354Y-67572890D01*
X163668646Y-67572890D01*
X163137439Y-67678554D01*
X162687104Y-67979458D01*
X162386200Y-68429793D01*
X162280536Y-68961000D01*
X162386200Y-69492207D01*
X162687104Y-69942542D01*
X163137439Y-70243446D01*
X163140305Y-70244016D01*
X163062081Y-70267154D01*
X162639276Y-70609260D01*
X162379573Y-71087125D01*
X162365217Y-71159326D01*
X162487838Y-71374000D01*
X164338000Y-71374000D01*
X164338000Y-71354000D01*
X164592000Y-71354000D01*
X164592000Y-71374000D01*
X166442162Y-71374000D01*
X166564783Y-71159326D01*
X166550427Y-71087125D01*
X166290724Y-70609260D01*
X165867919Y-70267154D01*
X165789694Y-70244016D01*
X165792561Y-70243446D01*
X166242896Y-69942542D01*
X166543800Y-69492207D01*
X166649464Y-68961000D01*
X166649464Y-85054430D01*
X166564783Y-85054430D01*
X166564783Y-71842674D01*
X166442162Y-71628000D01*
X164592000Y-71628000D01*
X164592000Y-72889110D01*
X165346380Y-72889110D01*
X165867919Y-72734846D01*
X166290724Y-72392740D01*
X166550427Y-71914875D01*
X166564783Y-71842674D01*
X166564783Y-85054430D01*
X166557121Y-85054430D01*
X166323732Y-85151103D01*
X166145103Y-85329731D01*
X166048430Y-85563120D01*
X166048430Y-85815739D01*
X166048430Y-86154250D01*
X166207180Y-86313000D01*
X167307000Y-86313000D01*
X167307000Y-86567000D01*
X166207180Y-86567000D01*
X166048430Y-86725750D01*
X166048430Y-87064261D01*
X166048430Y-87316880D01*
X166145103Y-87550269D01*
X166323732Y-87728897D01*
X166557121Y-87825570D01*
X167148250Y-87825570D01*
X167307000Y-87666820D01*
X167307000Y-91341432D01*
X167096801Y-91352852D01*
X166741071Y-91500200D01*
X166679417Y-91735812D01*
X167434000Y-92490395D01*
X168188583Y-91735812D01*
X168188583Y-92095022D01*
X167613605Y-92670000D01*
X168368188Y-93424583D01*
X168603800Y-93362929D01*
X168779927Y-92862520D01*
X168779927Y-94511432D01*
X168732963Y-94269377D01*
X168593173Y-94056573D01*
X168382140Y-93914123D01*
X168132500Y-93864060D01*
X168068360Y-93864060D01*
X168126929Y-93839800D01*
X168188583Y-93604188D01*
X167434000Y-92849605D01*
X167254395Y-93029210D01*
X167254395Y-92670000D01*
X166499812Y-91915417D01*
X166264200Y-91977071D01*
X166088073Y-92477480D01*
X166116852Y-93007199D01*
X166264200Y-93362929D01*
X166499812Y-93424583D01*
X167254395Y-92670000D01*
X167254395Y-93029210D01*
X166679417Y-93604188D01*
X166741071Y-93839800D01*
X166809998Y-93864060D01*
X166735500Y-93864060D01*
X166493377Y-93911037D01*
X166280573Y-94050827D01*
X166138123Y-94261860D01*
X166088060Y-94511500D01*
X166088060Y-95908500D01*
X166135037Y-96150623D01*
X166274827Y-96363427D01*
X166485860Y-96505877D01*
X166735500Y-96555940D01*
X168132500Y-96555940D01*
X168374623Y-96508963D01*
X168587427Y-96369173D01*
X168729877Y-96158140D01*
X168779940Y-95908500D01*
X168779940Y-135230000D01*
X168771240Y-135230000D01*
X168771240Y-102341715D01*
X168560831Y-101832485D01*
X168171564Y-101442539D01*
X167662702Y-101231241D01*
X167111715Y-101230760D01*
X166602485Y-101441169D01*
X166212539Y-101830436D01*
X166001241Y-102339298D01*
X166000760Y-102890285D01*
X166211169Y-103399515D01*
X166535100Y-103724011D01*
X166535100Y-104295546D01*
X164338000Y-106492645D01*
X164338000Y-72889110D01*
X164338000Y-71628000D01*
X162487838Y-71628000D01*
X162365217Y-71842674D01*
X162379573Y-71914875D01*
X162639276Y-72392740D01*
X163062081Y-72734846D01*
X163583620Y-72889110D01*
X164338000Y-72889110D01*
X164338000Y-106492645D01*
X161370354Y-109460291D01*
X161370354Y-104478409D01*
X161068791Y-103748571D01*
X160510886Y-103189691D01*
X159781575Y-102886855D01*
X158991889Y-102886166D01*
X158262051Y-103187729D01*
X157703171Y-103745634D01*
X157400335Y-104474945D01*
X157399646Y-105264631D01*
X157701209Y-105994469D01*
X158259114Y-106553349D01*
X158988425Y-106856185D01*
X159778111Y-106856874D01*
X160507949Y-106555311D01*
X161066829Y-105997406D01*
X161369665Y-105268095D01*
X161370354Y-104478409D01*
X161370354Y-109460291D01*
X158082222Y-112748423D01*
X158082222Y-111864339D01*
X157869990Y-111350697D01*
X157477350Y-110957371D01*
X157269467Y-110871050D01*
X157475283Y-110786010D01*
X157868609Y-110393370D01*
X158081737Y-109880100D01*
X158082222Y-109324339D01*
X157869990Y-108810697D01*
X157477350Y-108417371D01*
X156964080Y-108204243D01*
X156408319Y-108203758D01*
X155894677Y-108415990D01*
X155685469Y-108624832D01*
X155478370Y-108417371D01*
X154965100Y-108204243D01*
X154409339Y-108203758D01*
X154039240Y-108356679D01*
X154039240Y-101325715D01*
X153828831Y-100816485D01*
X153439564Y-100426539D01*
X152930702Y-100215241D01*
X152379715Y-100214760D01*
X151870485Y-100425169D01*
X151480539Y-100814436D01*
X151269241Y-101323298D01*
X151268840Y-101781805D01*
X150269546Y-102781100D01*
X149839680Y-102781100D01*
X149839680Y-92193938D01*
X149839680Y-90589542D01*
X149839680Y-70192458D01*
X149839680Y-68588062D01*
X149696217Y-67866826D01*
X149287670Y-67255392D01*
X148676236Y-66846845D01*
X147955000Y-66703382D01*
X147233764Y-66846845D01*
X146622330Y-67255392D01*
X146213783Y-67866826D01*
X146070320Y-68588062D01*
X146070320Y-70192458D01*
X146213783Y-70913694D01*
X146622330Y-71525128D01*
X147233764Y-71933675D01*
X147955000Y-72077138D01*
X148676236Y-71933675D01*
X149287670Y-71525128D01*
X149696217Y-70913694D01*
X149839680Y-70192458D01*
X149839680Y-90589542D01*
X149696217Y-89868306D01*
X149287670Y-89256872D01*
X148676236Y-88848325D01*
X147955000Y-88704862D01*
X147233764Y-88848325D01*
X146622330Y-89256872D01*
X146213783Y-89868306D01*
X146070320Y-90589542D01*
X146070320Y-92193938D01*
X146213783Y-92915174D01*
X146622330Y-93526608D01*
X147233764Y-93935155D01*
X147955000Y-94078618D01*
X148676236Y-93935155D01*
X149287670Y-93526608D01*
X149696217Y-92915174D01*
X149839680Y-92193938D01*
X149839680Y-102781100D01*
X142113000Y-102781100D01*
X141787375Y-102845871D01*
X141511323Y-103030323D01*
X140643488Y-103898157D01*
X140187715Y-103897760D01*
X139678485Y-104108169D01*
X139417599Y-104368600D01*
X133985000Y-104368600D01*
X132842767Y-104368600D01*
X132842767Y-74245966D01*
X132814805Y-73695462D01*
X132657931Y-73316735D01*
X132416930Y-73248675D01*
X132237325Y-73428280D01*
X132237325Y-73069070D01*
X132169265Y-72828069D01*
X131649966Y-72643233D01*
X131099462Y-72671195D01*
X130720735Y-72828069D01*
X130652675Y-73069070D01*
X131445000Y-73861395D01*
X132237325Y-73069070D01*
X132237325Y-73428280D01*
X131624605Y-74041000D01*
X132416930Y-74833325D01*
X132657931Y-74765265D01*
X132842767Y-74245966D01*
X132842767Y-104368600D01*
X128342152Y-104368600D01*
X123088400Y-99114848D01*
X123088400Y-98706952D01*
X123474461Y-98321564D01*
X123685759Y-97812702D01*
X123686240Y-97261715D01*
X123475831Y-96752485D01*
X123086564Y-96362539D01*
X123063000Y-96352754D01*
X123063000Y-96337146D01*
X123465515Y-96170831D01*
X123855461Y-95781564D01*
X124066759Y-95272702D01*
X124067240Y-94721715D01*
X123856831Y-94212485D01*
X123467564Y-93822539D01*
X123317000Y-93760019D01*
X123317000Y-92009630D01*
X124841000Y-93533630D01*
X124841000Y-98384279D01*
X124819485Y-98393169D01*
X124429539Y-98782436D01*
X124218241Y-99291298D01*
X124217760Y-99842285D01*
X124428169Y-100351515D01*
X124817436Y-100741461D01*
X125326298Y-100952759D01*
X125877285Y-100953240D01*
X126386515Y-100742831D01*
X126776461Y-100353564D01*
X126987759Y-99844702D01*
X126988240Y-99293715D01*
X126858789Y-98980419D01*
X130059824Y-102181455D01*
X130059760Y-102255285D01*
X130270169Y-102764515D01*
X130659436Y-103154461D01*
X131168298Y-103365759D01*
X131719285Y-103366240D01*
X132228515Y-103155831D01*
X132618461Y-102766564D01*
X132829759Y-102257702D01*
X132830240Y-101706715D01*
X132619831Y-101197485D01*
X132260687Y-100837714D01*
X132618461Y-100480564D01*
X132829759Y-99971702D01*
X132830240Y-99420715D01*
X132619831Y-98911485D01*
X132260687Y-98551714D01*
X132618461Y-98194564D01*
X132829759Y-97685702D01*
X132830240Y-97134715D01*
X132619831Y-96625485D01*
X132237325Y-96242311D01*
X132237325Y-75012930D01*
X131445000Y-74220605D01*
X131265395Y-74400210D01*
X131265395Y-74041000D01*
X130473070Y-73248675D01*
X130232069Y-73316735D01*
X130047233Y-73836034D01*
X130075195Y-74386538D01*
X130232069Y-74765265D01*
X130473070Y-74833325D01*
X131265395Y-74041000D01*
X131265395Y-74400210D01*
X130652675Y-75012930D01*
X130720735Y-75253931D01*
X131240034Y-75438767D01*
X131790538Y-75410805D01*
X132169265Y-75253931D01*
X132237325Y-75012930D01*
X132237325Y-96242311D01*
X132230564Y-96235539D01*
X132207000Y-96225754D01*
X132207000Y-83947000D01*
X132148996Y-83655396D01*
X132148996Y-83655395D01*
X132082834Y-83556376D01*
X131983816Y-83408185D01*
X128397000Y-79821369D01*
X128397000Y-72705630D01*
X128606798Y-72495831D01*
X128628298Y-72504759D01*
X129179285Y-72505240D01*
X129688515Y-72294831D01*
X130078461Y-71905564D01*
X130289759Y-71396702D01*
X130290240Y-70845715D01*
X130088720Y-70358000D01*
X134735229Y-70358000D01*
X134735229Y-73259800D01*
X135349109Y-73259800D01*
X135139671Y-73764184D01*
X135139190Y-74315398D01*
X135349686Y-74824837D01*
X135739113Y-75214944D01*
X136248184Y-75426329D01*
X136799398Y-75426810D01*
X137308837Y-75216314D01*
X137698944Y-74826887D01*
X137910329Y-74317816D01*
X137910810Y-73766602D01*
X137701403Y-73259800D01*
X138162372Y-73259800D01*
X138162372Y-70358000D01*
X139024279Y-70358000D01*
X139033169Y-70379515D01*
X139422436Y-70769461D01*
X139931298Y-70980759D01*
X140482285Y-70981240D01*
X140991515Y-70770831D01*
X141381461Y-70381564D01*
X141592759Y-69872702D01*
X141593240Y-69321715D01*
X141382831Y-68812485D01*
X140993564Y-68422539D01*
X140714864Y-68306812D01*
X140598026Y-68189974D01*
X140186008Y-67914673D01*
X139700000Y-67817999D01*
X139699994Y-67818000D01*
X130290240Y-67818000D01*
X130290240Y-64368715D01*
X130079831Y-63859485D01*
X129690564Y-63469539D01*
X129667000Y-63459754D01*
X129667000Y-54142720D01*
X129688515Y-54133831D01*
X130078461Y-53744564D01*
X130289759Y-53235702D01*
X130290240Y-52684715D01*
X130079831Y-52175485D01*
X129690564Y-51785539D01*
X129181702Y-51574241D01*
X128630715Y-51573760D01*
X128121485Y-51784169D01*
X127731539Y-52173436D01*
X127520241Y-52682298D01*
X127519760Y-53233285D01*
X127730169Y-53742515D01*
X128119436Y-54132461D01*
X128143000Y-54142245D01*
X128143000Y-63459279D01*
X128121485Y-63468169D01*
X127731539Y-63857436D01*
X127520241Y-64366298D01*
X127519760Y-64917285D01*
X127730169Y-65426515D01*
X128119436Y-65816461D01*
X128628298Y-66027759D01*
X129179285Y-66028240D01*
X129688515Y-65817831D01*
X130078461Y-65428564D01*
X130289759Y-64919702D01*
X130290240Y-64368715D01*
X130290240Y-67818000D01*
X118352240Y-67818000D01*
X118352240Y-64368715D01*
X118141831Y-63859485D01*
X117752564Y-63469539D01*
X117729000Y-63459754D01*
X117729000Y-54142720D01*
X117750515Y-54133831D01*
X118140461Y-53744564D01*
X118351759Y-53235702D01*
X118352240Y-52684715D01*
X118141831Y-52175485D01*
X117752564Y-51785539D01*
X117243702Y-51574241D01*
X116692715Y-51573760D01*
X116183485Y-51784169D01*
X115793539Y-52173436D01*
X115582241Y-52682298D01*
X115581760Y-53233285D01*
X115792169Y-53742515D01*
X116181436Y-54132461D01*
X116205000Y-54142245D01*
X116205000Y-63459279D01*
X116183485Y-63468169D01*
X115793539Y-63857436D01*
X115582241Y-64366298D01*
X115581760Y-64917285D01*
X115792169Y-65426515D01*
X116181436Y-65816461D01*
X116690298Y-66027759D01*
X117241285Y-66028240D01*
X117750515Y-65817831D01*
X118140461Y-65428564D01*
X118351759Y-64919702D01*
X118352240Y-64368715D01*
X118352240Y-67818000D01*
X105652240Y-67818000D01*
X105652240Y-64368715D01*
X105441831Y-63859485D01*
X105052564Y-63469539D01*
X105029000Y-63459754D01*
X105029000Y-54142720D01*
X105050515Y-54133831D01*
X105440461Y-53744564D01*
X105651759Y-53235702D01*
X105652240Y-52684715D01*
X105441831Y-52175485D01*
X105052564Y-51785539D01*
X104543702Y-51574241D01*
X103992715Y-51573760D01*
X103483485Y-51784169D01*
X103093539Y-52173436D01*
X102882241Y-52682298D01*
X102881760Y-53233285D01*
X103092169Y-53742515D01*
X103481436Y-54132461D01*
X103505000Y-54142245D01*
X103505000Y-63459279D01*
X103483485Y-63468169D01*
X103093539Y-63857436D01*
X102882241Y-64366298D01*
X102881760Y-64917285D01*
X103092169Y-65426515D01*
X103481436Y-65816461D01*
X103990298Y-66027759D01*
X104541285Y-66028240D01*
X105050515Y-65817831D01*
X105440461Y-65428564D01*
X105651759Y-64919702D01*
X105652240Y-64368715D01*
X105652240Y-67818000D01*
X93091000Y-67818000D01*
X92604992Y-67914673D01*
X92192974Y-68189974D01*
X92192971Y-68189977D01*
X85071948Y-75311000D01*
X82625940Y-75311000D01*
X82625940Y-62928500D01*
X82625940Y-61531500D01*
X82625940Y-56578500D01*
X82625940Y-55181500D01*
X82578963Y-54939377D01*
X82439173Y-54726573D01*
X82228140Y-54584123D01*
X81978500Y-54534060D01*
X81882116Y-54534060D01*
X82034380Y-54471146D01*
X82409827Y-54096353D01*
X82613268Y-53606413D01*
X82613731Y-53075914D01*
X82411146Y-52585620D01*
X82036353Y-52210173D01*
X81698553Y-52069906D01*
X82034380Y-51931146D01*
X82409827Y-51556353D01*
X82613268Y-51066413D01*
X82613731Y-50535914D01*
X82411146Y-50045620D01*
X82036353Y-49670173D01*
X81698553Y-49529906D01*
X82034380Y-49391146D01*
X82409827Y-49016353D01*
X82613268Y-48526413D01*
X82613731Y-47995914D01*
X82411146Y-47505620D01*
X82036353Y-47130173D01*
X81546413Y-46926732D01*
X81015914Y-46926269D01*
X80525620Y-47128854D01*
X80150173Y-47503647D01*
X79946732Y-47993587D01*
X79946269Y-48524086D01*
X80148854Y-49014380D01*
X80523647Y-49389827D01*
X80861446Y-49530093D01*
X80525620Y-49668854D01*
X80150173Y-50043647D01*
X79946732Y-50533587D01*
X79946269Y-51064086D01*
X80148854Y-51554380D01*
X80523647Y-51929827D01*
X80861446Y-52070093D01*
X80525620Y-52208854D01*
X80150173Y-52583647D01*
X79946732Y-53073587D01*
X79946269Y-53604086D01*
X80148854Y-54094380D01*
X80523647Y-54469827D01*
X80678337Y-54534060D01*
X80581500Y-54534060D01*
X80339377Y-54581037D01*
X80126573Y-54720827D01*
X79984123Y-54931860D01*
X79934060Y-55181500D01*
X79934060Y-56578500D01*
X79981037Y-56820623D01*
X80120827Y-57033427D01*
X80331860Y-57175877D01*
X80581500Y-57225940D01*
X81978500Y-57225940D01*
X82220623Y-57178963D01*
X82433427Y-57039173D01*
X82575877Y-56828140D01*
X82625940Y-56578500D01*
X82625940Y-61531500D01*
X82578963Y-61289377D01*
X82439173Y-61076573D01*
X82228140Y-60934123D01*
X81978500Y-60884060D01*
X80581500Y-60884060D01*
X80339377Y-60931037D01*
X80126573Y-61070827D01*
X79984123Y-61281860D01*
X79934060Y-61531500D01*
X79934060Y-62928500D01*
X79981037Y-63170623D01*
X80120827Y-63383427D01*
X80331860Y-63525877D01*
X80581500Y-63575940D01*
X80677883Y-63575940D01*
X80525620Y-63638854D01*
X80150173Y-64013647D01*
X79946732Y-64503587D01*
X79946269Y-65034086D01*
X80148854Y-65524380D01*
X80523647Y-65899827D01*
X80861446Y-66040093D01*
X80525620Y-66178854D01*
X80150173Y-66553647D01*
X79946732Y-67043587D01*
X79946269Y-67574086D01*
X80148854Y-68064380D01*
X80523647Y-68439827D01*
X80861446Y-68580093D01*
X80525620Y-68718854D01*
X80150173Y-69093647D01*
X79946732Y-69583587D01*
X79946269Y-70114086D01*
X80148854Y-70604380D01*
X80523647Y-70979827D01*
X81013587Y-71183268D01*
X81544086Y-71183731D01*
X82034380Y-70981146D01*
X82409827Y-70606353D01*
X82613268Y-70116413D01*
X82613731Y-69585914D01*
X82411146Y-69095620D01*
X82036353Y-68720173D01*
X81698553Y-68579906D01*
X82034380Y-68441146D01*
X82409827Y-68066353D01*
X82613268Y-67576413D01*
X82613731Y-67045914D01*
X82411146Y-66555620D01*
X82036353Y-66180173D01*
X81698553Y-66039906D01*
X82034380Y-65901146D01*
X82409827Y-65526353D01*
X82613268Y-65036413D01*
X82613731Y-64505914D01*
X82411146Y-64015620D01*
X82036353Y-63640173D01*
X81881662Y-63575940D01*
X81978500Y-63575940D01*
X82220623Y-63528963D01*
X82433427Y-63389173D01*
X82575877Y-63178140D01*
X82625940Y-62928500D01*
X82625940Y-75311000D01*
X81706072Y-75311000D01*
X81429702Y-75196241D01*
X80878715Y-75195760D01*
X80369485Y-75406169D01*
X79979539Y-75795436D01*
X79768241Y-76304298D01*
X79767760Y-76855285D01*
X79978169Y-77364515D01*
X80367436Y-77754461D01*
X80876298Y-77965759D01*
X81427285Y-77966240D01*
X81706187Y-77851000D01*
X85597994Y-77851000D01*
X85598000Y-77851001D01*
X85598000Y-77851000D01*
X86084008Y-77754327D01*
X86496026Y-77479026D01*
X93617051Y-70358000D01*
X103083754Y-70358000D01*
X102882241Y-70843298D01*
X102881760Y-71394285D01*
X103092169Y-71903515D01*
X103481436Y-72293461D01*
X103990298Y-72504759D01*
X104541285Y-72505240D01*
X104564866Y-72495496D01*
X106745369Y-74676000D01*
X91948000Y-74676000D01*
X91656395Y-74734004D01*
X91409184Y-74899185D01*
X89123185Y-77185185D01*
X88983001Y-77394983D01*
X88878485Y-77438169D01*
X88488539Y-77827436D01*
X88277241Y-78336298D01*
X88276760Y-78887285D01*
X88487169Y-79396515D01*
X88876436Y-79786461D01*
X89385298Y-79997759D01*
X89936285Y-79998240D01*
X90445515Y-79787831D01*
X90835461Y-79398564D01*
X91046759Y-78889702D01*
X91047240Y-78338715D01*
X90836831Y-77829485D01*
X90735576Y-77728053D01*
X92263630Y-76200000D01*
X117921369Y-76200000D01*
X119126000Y-77404630D01*
X119126000Y-85028369D01*
X116564831Y-82467201D01*
X116573759Y-82445702D01*
X116574240Y-81894715D01*
X116363831Y-81385485D01*
X115974564Y-80995539D01*
X115465702Y-80784241D01*
X114914715Y-80783760D01*
X114405485Y-80994169D01*
X114015539Y-81383436D01*
X113804241Y-81892298D01*
X113803983Y-82186758D01*
X113578323Y-82093056D01*
X112992248Y-82092545D01*
X112450589Y-82316353D01*
X112035810Y-82730409D01*
X111811056Y-83271677D01*
X111810545Y-83857752D01*
X112034353Y-84399411D01*
X112448409Y-84814190D01*
X112500391Y-84835775D01*
X112450589Y-84856353D01*
X112035810Y-85270409D01*
X111811056Y-85811677D01*
X111810545Y-86397752D01*
X112034353Y-86939411D01*
X112448409Y-87354190D01*
X112989677Y-87578944D01*
X113575752Y-87579455D01*
X114117411Y-87355647D01*
X114532190Y-86941591D01*
X114756944Y-86400323D01*
X114757455Y-85814248D01*
X114533647Y-85272589D01*
X114119591Y-84857810D01*
X114067608Y-84836224D01*
X114117411Y-84815647D01*
X114532190Y-84401591D01*
X114756944Y-83860323D01*
X114757267Y-83489384D01*
X114912298Y-83553759D01*
X115463285Y-83554240D01*
X115486866Y-83544496D01*
X118237000Y-86294630D01*
X118237000Y-87884000D01*
X118295004Y-88175605D01*
X118460185Y-88422815D01*
X121793000Y-91755630D01*
X121793000Y-93926470D01*
X121508539Y-94210436D01*
X121297241Y-94719298D01*
X121296760Y-95270285D01*
X121507169Y-95779515D01*
X121539000Y-95811401D01*
X121539000Y-96352279D01*
X121517485Y-96361169D01*
X121129378Y-96748600D01*
X119836940Y-96748600D01*
X119836940Y-92773500D01*
X119836940Y-91376500D01*
X119789963Y-91134377D01*
X119650173Y-90921573D01*
X119439140Y-90779123D01*
X119189500Y-90729060D01*
X117792500Y-90729060D01*
X117550377Y-90776037D01*
X117337573Y-90915827D01*
X117195123Y-91126860D01*
X117145060Y-91376500D01*
X117145060Y-91472883D01*
X117082146Y-91320620D01*
X116707353Y-90945173D01*
X116217413Y-90741732D01*
X115686914Y-90741269D01*
X115196620Y-90943854D01*
X114821173Y-91318647D01*
X114680906Y-91656446D01*
X114542146Y-91320620D01*
X114167353Y-90945173D01*
X113677413Y-90741732D01*
X113146914Y-90741269D01*
X112656620Y-90943854D01*
X112281173Y-91318647D01*
X112140906Y-91656446D01*
X112002146Y-91320620D01*
X111627353Y-90945173D01*
X111137413Y-90741732D01*
X110606914Y-90741269D01*
X110116620Y-90943854D01*
X109741173Y-91318647D01*
X109600906Y-91656446D01*
X109462146Y-91320620D01*
X109087353Y-90945173D01*
X108597413Y-90741732D01*
X108066914Y-90741269D01*
X107576620Y-90943854D01*
X107201173Y-91318647D01*
X107060906Y-91656446D01*
X106922146Y-91320620D01*
X106547353Y-90945173D01*
X106057413Y-90741732D01*
X105526914Y-90741269D01*
X105036620Y-90943854D01*
X104661173Y-91318647D01*
X104520906Y-91656446D01*
X104382146Y-91320620D01*
X104007353Y-90945173D01*
X103517413Y-90741732D01*
X102986914Y-90741269D01*
X102496620Y-90943854D01*
X102121173Y-91318647D01*
X101980906Y-91656446D01*
X101842146Y-91320620D01*
X101467353Y-90945173D01*
X100977413Y-90741732D01*
X100582243Y-90741387D01*
X101661630Y-89662000D01*
X108204000Y-89662000D01*
X108204000Y-89661999D01*
X108495604Y-89603996D01*
X108495605Y-89603996D01*
X108742815Y-89438815D01*
X110012815Y-88168816D01*
X110012815Y-88168815D01*
X110177996Y-87921605D01*
X110235999Y-87630000D01*
X110236000Y-87630000D01*
X110236000Y-84262630D01*
X114748444Y-79750185D01*
X114911436Y-79913461D01*
X115420298Y-80124759D01*
X115971285Y-80125240D01*
X116480515Y-79914831D01*
X116870461Y-79525564D01*
X117081759Y-79016702D01*
X117082240Y-78465715D01*
X116871831Y-77956485D01*
X116482564Y-77566539D01*
X115973702Y-77355241D01*
X115422715Y-77354760D01*
X114913485Y-77565169D01*
X114523539Y-77954436D01*
X114498696Y-78014262D01*
X114389395Y-78036004D01*
X114142185Y-78201185D01*
X108935185Y-83408185D01*
X108770004Y-83655395D01*
X108712000Y-83947000D01*
X108712000Y-87314369D01*
X107888369Y-88138000D01*
X107249630Y-88138000D01*
X108107815Y-87279816D01*
X108107815Y-87279815D01*
X108272996Y-87032605D01*
X108330999Y-86741000D01*
X108331000Y-86741000D01*
X108331000Y-83439000D01*
X108272996Y-83147395D01*
X108107815Y-82900185D01*
X108107815Y-82900184D01*
X105694815Y-80487185D01*
X105447605Y-80322004D01*
X105156000Y-80264000D01*
X103566630Y-80264000D01*
X103378000Y-80075369D01*
X103378000Y-80050720D01*
X103399515Y-80041831D01*
X103789461Y-79652564D01*
X104000759Y-79143702D01*
X104001240Y-78592715D01*
X103790831Y-78083485D01*
X103401564Y-77693539D01*
X102892702Y-77482241D01*
X102341715Y-77481760D01*
X101832485Y-77692169D01*
X101442539Y-78081436D01*
X101231241Y-78590298D01*
X101230760Y-79141285D01*
X101441169Y-79650515D01*
X101830436Y-80040461D01*
X101854000Y-80050245D01*
X101854000Y-80391000D01*
X101912004Y-80682605D01*
X102077185Y-80929815D01*
X102712185Y-81564816D01*
X102860376Y-81663834D01*
X102959395Y-81729996D01*
X102959396Y-81729996D01*
X103251000Y-81788000D01*
X104840369Y-81788000D01*
X105232507Y-82180137D01*
X105156000Y-82223838D01*
X105156000Y-84074000D01*
X106417110Y-84074000D01*
X106417110Y-83364740D01*
X106807000Y-83754630D01*
X106807000Y-86425369D01*
X106417110Y-86815259D01*
X106417110Y-85082380D01*
X106417110Y-84328000D01*
X105156000Y-84328000D01*
X105156000Y-86178162D01*
X105370674Y-86300783D01*
X105442875Y-86286427D01*
X105920740Y-86026724D01*
X106262846Y-85603919D01*
X106417110Y-85082380D01*
X106417110Y-86815259D01*
X105729369Y-87503000D01*
X104902000Y-87503000D01*
X104902000Y-86178162D01*
X104902000Y-84328000D01*
X104882000Y-84328000D01*
X104882000Y-84074000D01*
X104902000Y-84074000D01*
X104902000Y-82223838D01*
X104687326Y-82101217D01*
X104615125Y-82115573D01*
X104137260Y-82375276D01*
X103795154Y-82798081D01*
X103772016Y-82876305D01*
X103771446Y-82873439D01*
X103470542Y-82423104D01*
X103020207Y-82122200D01*
X102489000Y-82016536D01*
X101957793Y-82122200D01*
X101507458Y-82423104D01*
X101219000Y-82854812D01*
X100930542Y-82423104D01*
X100480207Y-82122200D01*
X99949000Y-82016536D01*
X99417793Y-82122200D01*
X98967458Y-82423104D01*
X98679000Y-82854812D01*
X98390542Y-82423104D01*
X97940207Y-82122200D01*
X97409000Y-82016536D01*
X96877793Y-82122200D01*
X96427458Y-82423104D01*
X96139000Y-82854812D01*
X95850542Y-82423104D01*
X95400207Y-82122200D01*
X94869000Y-82016536D01*
X94337793Y-82122200D01*
X93887458Y-82423104D01*
X93599000Y-82854812D01*
X93310542Y-82423104D01*
X92860207Y-82122200D01*
X92329000Y-82016536D01*
X91797793Y-82122200D01*
X91347458Y-82423104D01*
X91046554Y-82873439D01*
X90940890Y-83404646D01*
X90940890Y-84997354D01*
X91046554Y-85528561D01*
X91347458Y-85978896D01*
X91797793Y-86279800D01*
X92329000Y-86385464D01*
X92860207Y-86279800D01*
X93310542Y-85978896D01*
X93599000Y-85547187D01*
X93887458Y-85978896D01*
X94337793Y-86279800D01*
X94869000Y-86385464D01*
X95400207Y-86279800D01*
X95850542Y-85978896D01*
X96139000Y-85547187D01*
X96427458Y-85978896D01*
X96877793Y-86279800D01*
X97409000Y-86385464D01*
X97940207Y-86279800D01*
X98390542Y-85978896D01*
X98679000Y-85547187D01*
X98967458Y-85978896D01*
X99417793Y-86279800D01*
X99949000Y-86385464D01*
X100480207Y-86279800D01*
X100930542Y-85978896D01*
X101219000Y-85547187D01*
X101507458Y-85978896D01*
X101957793Y-86279800D01*
X102489000Y-86385464D01*
X103020207Y-86279800D01*
X103470542Y-85978896D01*
X103771446Y-85528561D01*
X103772016Y-85525694D01*
X103795154Y-85603919D01*
X104137260Y-86026724D01*
X104615125Y-86286427D01*
X104687326Y-86300783D01*
X104902000Y-86178162D01*
X104902000Y-87503000D01*
X101092000Y-87503000D01*
X100800395Y-87561004D01*
X100701376Y-87627165D01*
X100553185Y-87726184D01*
X97759185Y-90520185D01*
X97594004Y-90767395D01*
X97536000Y-91059000D01*
X97536000Y-100711000D01*
X97594004Y-101002605D01*
X97759185Y-101249815D01*
X113411000Y-116901630D01*
X113411000Y-117942279D01*
X113389485Y-117951169D01*
X112999539Y-118340436D01*
X112788241Y-118849298D01*
X112787760Y-119400285D01*
X112998169Y-119909515D01*
X113387436Y-120299461D01*
X113896298Y-120510759D01*
X114447285Y-120511240D01*
X114956515Y-120300831D01*
X115346461Y-119911564D01*
X115514914Y-119505884D01*
X115546436Y-119537461D01*
X116055298Y-119748759D01*
X116606285Y-119749240D01*
X117115515Y-119538831D01*
X117505461Y-119149564D01*
X117716759Y-118640702D01*
X117717240Y-118089715D01*
X117506831Y-117580485D01*
X117117564Y-117190539D01*
X116696207Y-117015576D01*
X99695000Y-100014369D01*
X99695000Y-92944726D01*
X99954647Y-93204827D01*
X100444587Y-93408268D01*
X100975086Y-93408731D01*
X101465380Y-93206146D01*
X101840827Y-92831353D01*
X101981093Y-92493553D01*
X102119854Y-92829380D01*
X102494647Y-93204827D01*
X102984587Y-93408268D01*
X103515086Y-93408731D01*
X104005380Y-93206146D01*
X104380827Y-92831353D01*
X104521093Y-92493553D01*
X104659854Y-92829380D01*
X105034647Y-93204827D01*
X105524587Y-93408268D01*
X106055086Y-93408731D01*
X106545380Y-93206146D01*
X106920827Y-92831353D01*
X107061093Y-92493553D01*
X107199854Y-92829380D01*
X107574647Y-93204827D01*
X108064587Y-93408268D01*
X108595086Y-93408731D01*
X109085380Y-93206146D01*
X109460827Y-92831353D01*
X109601093Y-92493553D01*
X109739854Y-92829380D01*
X110114647Y-93204827D01*
X110604587Y-93408268D01*
X111135086Y-93408731D01*
X111625380Y-93206146D01*
X112000827Y-92831353D01*
X112141093Y-92493553D01*
X112279854Y-92829380D01*
X112654647Y-93204827D01*
X113144587Y-93408268D01*
X113675086Y-93408731D01*
X114165380Y-93206146D01*
X114540827Y-92831353D01*
X114681093Y-92493553D01*
X114819854Y-92829380D01*
X115194647Y-93204827D01*
X115684587Y-93408268D01*
X116215086Y-93408731D01*
X116705380Y-93206146D01*
X117080827Y-92831353D01*
X117145060Y-92676662D01*
X117145060Y-92773500D01*
X117192037Y-93015623D01*
X117331827Y-93228427D01*
X117542860Y-93370877D01*
X117792500Y-93420940D01*
X119189500Y-93420940D01*
X119431623Y-93373963D01*
X119644427Y-93234173D01*
X119786877Y-93023140D01*
X119836940Y-92773500D01*
X119836940Y-96748600D01*
X109855000Y-96748600D01*
X109553675Y-96808537D01*
X109298224Y-96979224D01*
X107673943Y-98603504D01*
X107338564Y-98267539D01*
X106829702Y-98056241D01*
X106278715Y-98055760D01*
X105769485Y-98266169D01*
X105379539Y-98655436D01*
X105168241Y-99164298D01*
X105167760Y-99715285D01*
X105378169Y-100224515D01*
X105765600Y-100612621D01*
X105765600Y-104648000D01*
X105825537Y-104949325D01*
X105996224Y-105204776D01*
X119646236Y-118854788D01*
X119645760Y-119400285D01*
X119655503Y-119423865D01*
X115889369Y-123190000D01*
X112192244Y-123190000D01*
X112500190Y-122882591D01*
X112724944Y-122341323D01*
X112725455Y-121755248D01*
X112501647Y-121213589D01*
X112087591Y-120798810D01*
X112035608Y-120777224D01*
X112085411Y-120756647D01*
X112500190Y-120342591D01*
X112724944Y-119801323D01*
X112725455Y-119215248D01*
X112501647Y-118673589D01*
X112087591Y-118258810D01*
X111546323Y-118034056D01*
X110960248Y-118033545D01*
X110418589Y-118257353D01*
X110003810Y-118671409D01*
X109779056Y-119212677D01*
X109778545Y-119798752D01*
X110002353Y-120340411D01*
X110416409Y-120755190D01*
X110468391Y-120776775D01*
X110418589Y-120797353D01*
X110003810Y-121211409D01*
X109779056Y-121752677D01*
X109778545Y-122338752D01*
X110002353Y-122880411D01*
X110311402Y-123190000D01*
X106985244Y-123190000D01*
X107293190Y-122882591D01*
X107517944Y-122341323D01*
X107518455Y-121755248D01*
X107294647Y-121213589D01*
X106880591Y-120798810D01*
X106828608Y-120777224D01*
X106878411Y-120756647D01*
X107293190Y-120342591D01*
X107517944Y-119801323D01*
X107518455Y-119215248D01*
X107294647Y-118673589D01*
X106880591Y-118258810D01*
X106339323Y-118034056D01*
X105753248Y-118033545D01*
X105211589Y-118257353D01*
X104796810Y-118671409D01*
X104572056Y-119212677D01*
X104571545Y-119798752D01*
X104795353Y-120340411D01*
X105209409Y-120755190D01*
X105261391Y-120776775D01*
X105211589Y-120797353D01*
X104796810Y-121211409D01*
X104572056Y-121752677D01*
X104571545Y-122338752D01*
X104716005Y-122688375D01*
X103886000Y-121858369D01*
X103886000Y-118044630D01*
X105238798Y-116691831D01*
X105260298Y-116700759D01*
X105811285Y-116701240D01*
X106320515Y-116490831D01*
X106710461Y-116101564D01*
X106921759Y-115592702D01*
X106922240Y-115041715D01*
X106711831Y-114532485D01*
X106322564Y-114142539D01*
X105813702Y-113931241D01*
X105262715Y-113930760D01*
X104753485Y-114141169D01*
X104363539Y-114530436D01*
X104152241Y-115039298D01*
X104151760Y-115590285D01*
X104161503Y-115613865D01*
X102585185Y-117190185D01*
X102420004Y-117437395D01*
X102362000Y-117729000D01*
X102362000Y-122174000D01*
X102420004Y-122465605D01*
X102585185Y-122712815D01*
X104363185Y-124490816D01*
X104511376Y-124589834D01*
X104610395Y-124655996D01*
X104610396Y-124655996D01*
X104902000Y-124714000D01*
X116205000Y-124714000D01*
X116205000Y-124713999D01*
X116496604Y-124655996D01*
X116496605Y-124655996D01*
X116743815Y-124490815D01*
X120732798Y-120501831D01*
X120754298Y-120510759D01*
X121305285Y-120511240D01*
X121814515Y-120300831D01*
X122204461Y-119911564D01*
X122214245Y-119888000D01*
X123317000Y-119888000D01*
X123317000Y-119887999D01*
X123608604Y-119829996D01*
X123608605Y-119829996D01*
X123855815Y-119664815D01*
X132524500Y-110996130D01*
X135859185Y-114330815D01*
X136106395Y-114495996D01*
X136398000Y-114554000D01*
X142686370Y-114554000D01*
X143658168Y-115525798D01*
X143649241Y-115547298D01*
X143648760Y-116098285D01*
X143859169Y-116607515D01*
X144248436Y-116997461D01*
X144757298Y-117208759D01*
X145308285Y-117209240D01*
X145817515Y-116998831D01*
X146207461Y-116609564D01*
X146418759Y-116100702D01*
X146419240Y-115549715D01*
X146208831Y-115040485D01*
X145819564Y-114650539D01*
X145310702Y-114439241D01*
X144759715Y-114438760D01*
X144736133Y-114448503D01*
X143540815Y-113253185D01*
X143293605Y-113088004D01*
X143002000Y-113030000D01*
X136713630Y-113030000D01*
X132969000Y-109285370D01*
X132969000Y-108117720D01*
X132990515Y-108108831D01*
X133380461Y-107719564D01*
X133591759Y-107210702D01*
X133592240Y-106659715D01*
X133582496Y-106636133D01*
X134275230Y-105943400D01*
X139236299Y-105943400D01*
X139287169Y-106066515D01*
X139676436Y-106456461D01*
X140185298Y-106667759D01*
X140736285Y-106668240D01*
X141245515Y-106457831D01*
X141635461Y-106068564D01*
X141846759Y-105559702D01*
X141847159Y-105101194D01*
X142465454Y-104482900D01*
X150622000Y-104482900D01*
X150947625Y-104418129D01*
X150947626Y-104418129D01*
X151223677Y-104233677D01*
X152472511Y-102984842D01*
X152928285Y-102985240D01*
X153437515Y-102774831D01*
X153827461Y-102385564D01*
X154038759Y-101876702D01*
X154039240Y-101325715D01*
X154039240Y-108356679D01*
X153895697Y-108415990D01*
X153502371Y-108808630D01*
X153289243Y-109321900D01*
X153288758Y-109877661D01*
X153500990Y-110391303D01*
X153893630Y-110784629D01*
X154101512Y-110870949D01*
X153895697Y-110955990D01*
X153502371Y-111348630D01*
X153289243Y-111861900D01*
X153288758Y-112417661D01*
X153500990Y-112931303D01*
X153893630Y-113324629D01*
X154406900Y-113537757D01*
X154962661Y-113538242D01*
X155476303Y-113326010D01*
X155685510Y-113117167D01*
X155892610Y-113324629D01*
X156405880Y-113537757D01*
X156961641Y-113538242D01*
X157475283Y-113326010D01*
X157868609Y-112933370D01*
X158081737Y-112420100D01*
X158082222Y-111864339D01*
X158082222Y-112748423D01*
X155730545Y-115100100D01*
X151602563Y-115100100D01*
X151280564Y-114777539D01*
X150771702Y-114566241D01*
X150220715Y-114565760D01*
X149711485Y-114776169D01*
X149321539Y-115165436D01*
X149110241Y-115674298D01*
X149109760Y-116225285D01*
X149320169Y-116734515D01*
X149709436Y-117124461D01*
X150218298Y-117335759D01*
X150769285Y-117336240D01*
X151278515Y-117125831D01*
X151603011Y-116801900D01*
X156083000Y-116801900D01*
X156408625Y-116737129D01*
X156408626Y-116737129D01*
X156684677Y-116552677D01*
X167987677Y-105249677D01*
X168172129Y-104973625D01*
X168236900Y-104648000D01*
X168236900Y-103723563D01*
X168559461Y-103401564D01*
X168770759Y-102892702D01*
X168771240Y-102341715D01*
X168771240Y-135230000D01*
X166919821Y-135230000D01*
X166919821Y-130447794D01*
X166542240Y-129533979D01*
X166015429Y-129006247D01*
X166015429Y-124263000D01*
X166015429Y-120293000D01*
X161370354Y-120293000D01*
X161370354Y-116477369D01*
X161068791Y-115747531D01*
X160510886Y-115188651D01*
X159781575Y-114885815D01*
X158991889Y-114885126D01*
X158262051Y-115186689D01*
X157703171Y-115744594D01*
X157400335Y-116473905D01*
X157399646Y-117263591D01*
X157701209Y-117993429D01*
X158259114Y-118552309D01*
X158988425Y-118855145D01*
X159778111Y-118855834D01*
X160507949Y-118554271D01*
X161066829Y-117996366D01*
X161369665Y-117267055D01*
X161370354Y-116477369D01*
X161370354Y-120293000D01*
X155802571Y-120293000D01*
X155802571Y-124263000D01*
X166015429Y-124263000D01*
X166015429Y-129006247D01*
X165843699Y-128834217D01*
X164930544Y-128455042D01*
X163941794Y-128454179D01*
X163027979Y-128831760D01*
X162328217Y-129530301D01*
X161949042Y-130443456D01*
X161948179Y-131432206D01*
X162325760Y-132346021D01*
X163024301Y-133045783D01*
X163937456Y-133424958D01*
X164926206Y-133425821D01*
X165840021Y-133048240D01*
X166539783Y-132349699D01*
X166918958Y-131436544D01*
X166919821Y-130447794D01*
X166919821Y-135230000D01*
X148793455Y-135230000D01*
X148793455Y-111849248D01*
X148793455Y-106769248D01*
X148569647Y-106227589D01*
X148155591Y-105812810D01*
X147614323Y-105588056D01*
X147028248Y-105587545D01*
X146486589Y-105811353D01*
X146071810Y-106225409D01*
X146050224Y-106277391D01*
X146029647Y-106227589D01*
X145615591Y-105812810D01*
X145074323Y-105588056D01*
X144488248Y-105587545D01*
X143946589Y-105811353D01*
X143531810Y-106225409D01*
X143307056Y-106766677D01*
X143306545Y-107352752D01*
X143530353Y-107894411D01*
X143944409Y-108309190D01*
X144485677Y-108533944D01*
X145071752Y-108534455D01*
X145613411Y-108310647D01*
X146028190Y-107896591D01*
X146049775Y-107844608D01*
X146070353Y-107894411D01*
X146484409Y-108309190D01*
X147025677Y-108533944D01*
X147611752Y-108534455D01*
X148153411Y-108310647D01*
X148568190Y-107896591D01*
X148792944Y-107355323D01*
X148793455Y-106769248D01*
X148793455Y-111849248D01*
X148569647Y-111307589D01*
X148155591Y-110892810D01*
X147614323Y-110668056D01*
X147028248Y-110667545D01*
X146486589Y-110891353D01*
X146071810Y-111305409D01*
X146050224Y-111357391D01*
X146029647Y-111307589D01*
X145615591Y-110892810D01*
X145074323Y-110668056D01*
X144488248Y-110667545D01*
X143946589Y-110891353D01*
X143531810Y-111305409D01*
X143307056Y-111846677D01*
X143306545Y-112432752D01*
X143530353Y-112974411D01*
X143944409Y-113389190D01*
X144485677Y-113613944D01*
X145071752Y-113614455D01*
X145613411Y-113390647D01*
X146028190Y-112976591D01*
X146049775Y-112924608D01*
X146070353Y-112974411D01*
X146484409Y-113389190D01*
X147025677Y-113613944D01*
X147611752Y-113614455D01*
X148153411Y-113390647D01*
X148568190Y-112976591D01*
X148792944Y-112435323D01*
X148793455Y-111849248D01*
X148793455Y-135230000D01*
X119002959Y-135230000D01*
X119002959Y-130429000D01*
X118888885Y-129855511D01*
X118564029Y-129369330D01*
X118077848Y-129044474D01*
X117504359Y-128930400D01*
X117445641Y-128930400D01*
X116872152Y-129044474D01*
X116385971Y-129369330D01*
X116205000Y-129640172D01*
X116024029Y-129369330D01*
X115537848Y-129044474D01*
X114964359Y-128930400D01*
X114905641Y-128930400D01*
X114332152Y-129044474D01*
X113865470Y-129356300D01*
X113859063Y-129323277D01*
X113719273Y-129110473D01*
X113508240Y-128968023D01*
X113258600Y-128917960D01*
X111531400Y-128917960D01*
X111289277Y-128964937D01*
X111076473Y-129104727D01*
X110934023Y-129315760D01*
X110883960Y-129565400D01*
X110883960Y-131292600D01*
X110930937Y-131534723D01*
X111070727Y-131747527D01*
X111281760Y-131889977D01*
X111322659Y-131898179D01*
X111305971Y-131909330D01*
X110981115Y-132395511D01*
X110867041Y-132969000D01*
X110981115Y-133542489D01*
X111305971Y-134028670D01*
X111792152Y-134353526D01*
X112365641Y-134467600D01*
X112424359Y-134467600D01*
X112997848Y-134353526D01*
X113484029Y-134028670D01*
X113665000Y-133757827D01*
X113845971Y-134028670D01*
X114332152Y-134353526D01*
X114905641Y-134467600D01*
X114964359Y-134467600D01*
X115537848Y-134353526D01*
X116024029Y-134028670D01*
X116204992Y-133757839D01*
X116586510Y-134175821D01*
X117115973Y-134423968D01*
X117348000Y-134303469D01*
X117348000Y-133096000D01*
X117328000Y-133096000D01*
X117328000Y-132842000D01*
X117348000Y-132842000D01*
X117348000Y-132822000D01*
X117602000Y-132822000D01*
X117602000Y-132842000D01*
X118808817Y-132842000D01*
X118929958Y-132609974D01*
X118757688Y-132194053D01*
X118363490Y-131762179D01*
X118240771Y-131704663D01*
X118564029Y-131488670D01*
X118888885Y-131002489D01*
X119002959Y-130429000D01*
X119002959Y-135230000D01*
X118929958Y-135230000D01*
X118929958Y-133328026D01*
X118808817Y-133096000D01*
X117602000Y-133096000D01*
X117602000Y-134303469D01*
X117834027Y-134423968D01*
X118363490Y-134175821D01*
X118757688Y-133743947D01*
X118929958Y-133328026D01*
X118929958Y-135230000D01*
X100139731Y-135230000D01*
X100139731Y-132831914D01*
X100139731Y-125211914D01*
X99937146Y-124721620D01*
X99562353Y-124346173D01*
X99072413Y-124142732D01*
X99008927Y-124142676D01*
X99008927Y-122366520D01*
X98996731Y-122142035D01*
X98996731Y-116829914D01*
X98794146Y-116339620D01*
X98419353Y-115964173D01*
X97929413Y-115760732D01*
X97398914Y-115760269D01*
X96908620Y-115962854D01*
X96533173Y-116337647D01*
X96329732Y-116827587D01*
X96329269Y-117358086D01*
X96531854Y-117848380D01*
X96906647Y-118223827D01*
X97396587Y-118427268D01*
X97927086Y-118427731D01*
X98417380Y-118225146D01*
X98792827Y-117850353D01*
X98996268Y-117360413D01*
X98996731Y-116829914D01*
X98996731Y-122142035D01*
X98980148Y-121836801D01*
X98832800Y-121481071D01*
X98597188Y-121419417D01*
X98417583Y-121599022D01*
X98417583Y-121239812D01*
X98355929Y-121004200D01*
X97855520Y-120828073D01*
X97325801Y-120856852D01*
X96970071Y-121004200D01*
X96908417Y-121239812D01*
X97663000Y-121994395D01*
X98417583Y-121239812D01*
X98417583Y-121599022D01*
X97842605Y-122174000D01*
X98597188Y-122928583D01*
X98832800Y-122866929D01*
X99008927Y-122366520D01*
X99008927Y-124142676D01*
X98541914Y-124142269D01*
X98417583Y-124193641D01*
X98417583Y-123108188D01*
X97663000Y-122353605D01*
X97483395Y-122533210D01*
X97483395Y-122174000D01*
X96728812Y-121419417D01*
X96493200Y-121481071D01*
X96317073Y-121981480D01*
X96345852Y-122511199D01*
X96493200Y-122866929D01*
X96728812Y-122928583D01*
X97483395Y-122174000D01*
X97483395Y-122533210D01*
X96908417Y-123108188D01*
X96970071Y-123343800D01*
X97470480Y-123519927D01*
X98000199Y-123491148D01*
X98355929Y-123343800D01*
X98417583Y-123108188D01*
X98417583Y-124193641D01*
X98051620Y-124344854D01*
X97676173Y-124719647D01*
X97472732Y-125209587D01*
X97472269Y-125740086D01*
X97674854Y-126230380D01*
X98049647Y-126605827D01*
X98539587Y-126809268D01*
X99070086Y-126809731D01*
X99560380Y-126607146D01*
X99935827Y-126232353D01*
X100139268Y-125742413D01*
X100139731Y-125211914D01*
X100139731Y-132831914D01*
X99937146Y-132341620D01*
X99562353Y-131966173D01*
X99072413Y-131762732D01*
X98541914Y-131762269D01*
X98051620Y-131964854D01*
X97676173Y-132339647D01*
X97472732Y-132829587D01*
X97472269Y-133360086D01*
X97674854Y-133850380D01*
X98049647Y-134225827D01*
X98539587Y-134429268D01*
X99070086Y-134429731D01*
X99560380Y-134227146D01*
X99935827Y-133852353D01*
X100139268Y-133362413D01*
X100139731Y-132831914D01*
X100139731Y-135230000D01*
X95071927Y-135230000D01*
X95071927Y-133288520D01*
X95071927Y-125668520D01*
X95043148Y-125138801D01*
X94895800Y-124783071D01*
X94660188Y-124721417D01*
X94640464Y-124741141D01*
X94640464Y-113538000D01*
X94534800Y-113006793D01*
X94233896Y-112556458D01*
X93802187Y-112268000D01*
X94233896Y-111979542D01*
X94534800Y-111529207D01*
X94640464Y-110998000D01*
X94534800Y-110466793D01*
X94233896Y-110016458D01*
X93802187Y-109728000D01*
X94233896Y-109439542D01*
X94534800Y-108989207D01*
X94640464Y-108458000D01*
X94640464Y-102997000D01*
X94534800Y-102465793D01*
X94233896Y-102015458D01*
X93802187Y-101727000D01*
X94233896Y-101438542D01*
X94534800Y-100988207D01*
X94640464Y-100457000D01*
X94534800Y-99925793D01*
X94233896Y-99475458D01*
X93802187Y-99187000D01*
X94233896Y-98898542D01*
X94534800Y-98448207D01*
X94640464Y-97917000D01*
X94534800Y-97385793D01*
X94513464Y-97353861D01*
X94513464Y-93218000D01*
X94407800Y-92686793D01*
X94106896Y-92236458D01*
X93675187Y-91948000D01*
X94106896Y-91659542D01*
X94407800Y-91209207D01*
X94513464Y-90678000D01*
X94407800Y-90146793D01*
X94106896Y-89696458D01*
X93656561Y-89395554D01*
X93125354Y-89289890D01*
X91532646Y-89289890D01*
X91001439Y-89395554D01*
X90551104Y-89696458D01*
X90250200Y-90146793D01*
X90144536Y-90678000D01*
X90250200Y-91209207D01*
X90551104Y-91659542D01*
X90982812Y-91948000D01*
X90551104Y-92236458D01*
X90250200Y-92686793D01*
X90144536Y-93218000D01*
X90250200Y-93749207D01*
X90551104Y-94199542D01*
X91001439Y-94500446D01*
X91532646Y-94606110D01*
X93125354Y-94606110D01*
X93656561Y-94500446D01*
X94106896Y-94199542D01*
X94407800Y-93749207D01*
X94513464Y-93218000D01*
X94513464Y-97353861D01*
X94233896Y-96935458D01*
X93783561Y-96634554D01*
X93252354Y-96528890D01*
X91659646Y-96528890D01*
X91128439Y-96634554D01*
X90678104Y-96935458D01*
X90377200Y-97385793D01*
X90271536Y-97917000D01*
X90377200Y-98448207D01*
X90678104Y-98898542D01*
X91109812Y-99187000D01*
X90678104Y-99475458D01*
X90377200Y-99925793D01*
X90271536Y-100457000D01*
X90377200Y-100988207D01*
X90678104Y-101438542D01*
X91109812Y-101727000D01*
X90678104Y-102015458D01*
X90377200Y-102465793D01*
X90271536Y-102997000D01*
X90377200Y-103528207D01*
X90678104Y-103978542D01*
X91128439Y-104279446D01*
X91659646Y-104385110D01*
X93252354Y-104385110D01*
X93783561Y-104279446D01*
X94233896Y-103978542D01*
X94534800Y-103528207D01*
X94640464Y-102997000D01*
X94640464Y-108458000D01*
X94534800Y-107926793D01*
X94233896Y-107476458D01*
X93783561Y-107175554D01*
X93252354Y-107069890D01*
X91659646Y-107069890D01*
X91128439Y-107175554D01*
X90678104Y-107476458D01*
X90377200Y-107926793D01*
X90271536Y-108458000D01*
X90377200Y-108989207D01*
X90678104Y-109439542D01*
X91109812Y-109728000D01*
X90678104Y-110016458D01*
X90377200Y-110466793D01*
X90271536Y-110998000D01*
X90377200Y-111529207D01*
X90678104Y-111979542D01*
X91109812Y-112268000D01*
X90678104Y-112556458D01*
X90377200Y-113006793D01*
X90271536Y-113538000D01*
X90377200Y-114069207D01*
X90678104Y-114519542D01*
X91128439Y-114820446D01*
X91659646Y-114926110D01*
X93252354Y-114926110D01*
X93783561Y-114820446D01*
X94233896Y-114519542D01*
X94534800Y-114069207D01*
X94640464Y-113538000D01*
X94640464Y-124741141D01*
X94480583Y-124901022D01*
X94480583Y-124541812D01*
X94418929Y-124306200D01*
X93918520Y-124130073D01*
X93388801Y-124158852D01*
X93033071Y-124306200D01*
X92971417Y-124541812D01*
X93726000Y-125296395D01*
X94480583Y-124541812D01*
X94480583Y-124901022D01*
X93905605Y-125476000D01*
X94660188Y-126230583D01*
X94895800Y-126168929D01*
X95071927Y-125668520D01*
X95071927Y-133288520D01*
X95043148Y-132758801D01*
X94895800Y-132403071D01*
X94660188Y-132341417D01*
X94480583Y-132521022D01*
X94480583Y-132161812D01*
X94480583Y-126410188D01*
X93726000Y-125655605D01*
X93546395Y-125835210D01*
X93546395Y-125476000D01*
X92791812Y-124721417D01*
X92556200Y-124783071D01*
X92380073Y-125283480D01*
X92408852Y-125813199D01*
X92556200Y-126168929D01*
X92791812Y-126230583D01*
X93546395Y-125476000D01*
X93546395Y-125835210D01*
X92971417Y-126410188D01*
X93033071Y-126645800D01*
X93533480Y-126821927D01*
X94063199Y-126793148D01*
X94418929Y-126645800D01*
X94480583Y-126410188D01*
X94480583Y-132161812D01*
X94418929Y-131926200D01*
X93918520Y-131750073D01*
X93388801Y-131778852D01*
X93033071Y-131926200D01*
X92971417Y-132161812D01*
X93726000Y-132916395D01*
X94480583Y-132161812D01*
X94480583Y-132521022D01*
X93905605Y-133096000D01*
X94660188Y-133850583D01*
X94895800Y-133788929D01*
X95071927Y-133288520D01*
X95071927Y-135230000D01*
X94480583Y-135230000D01*
X94480583Y-134030188D01*
X93726000Y-133275605D01*
X93546395Y-133455210D01*
X93546395Y-133096000D01*
X92791812Y-132341417D01*
X92556200Y-132403071D01*
X92380073Y-132903480D01*
X92408852Y-133433199D01*
X92556200Y-133788929D01*
X92791812Y-133850583D01*
X93546395Y-133096000D01*
X93546395Y-133455210D01*
X92971417Y-134030188D01*
X93033071Y-134265800D01*
X93533480Y-134441927D01*
X94063199Y-134413148D01*
X94418929Y-134265800D01*
X94480583Y-134030188D01*
X94480583Y-135230000D01*
X91388927Y-135230000D01*
X91388927Y-122366520D01*
X91376731Y-122142035D01*
X91376731Y-116829914D01*
X91174146Y-116339620D01*
X90799353Y-115964173D01*
X90309413Y-115760732D01*
X89778914Y-115760269D01*
X89288620Y-115962854D01*
X88913173Y-116337647D01*
X88709732Y-116827587D01*
X88709269Y-117358086D01*
X88911854Y-117848380D01*
X89286647Y-118223827D01*
X89776587Y-118427268D01*
X90307086Y-118427731D01*
X90797380Y-118225146D01*
X91172827Y-117850353D01*
X91376268Y-117360413D01*
X91376731Y-116829914D01*
X91376731Y-122142035D01*
X91360148Y-121836801D01*
X91212800Y-121481071D01*
X90977188Y-121419417D01*
X90797583Y-121599022D01*
X90797583Y-121239812D01*
X90735929Y-121004200D01*
X90235520Y-120828073D01*
X89705801Y-120856852D01*
X89350071Y-121004200D01*
X89288417Y-121239812D01*
X90043000Y-121994395D01*
X90797583Y-121239812D01*
X90797583Y-121599022D01*
X90222605Y-122174000D01*
X90977188Y-122928583D01*
X91212800Y-122866929D01*
X91388927Y-122366520D01*
X91388927Y-135230000D01*
X90797583Y-135230000D01*
X90797583Y-123108188D01*
X90043000Y-122353605D01*
X89863395Y-122533210D01*
X89863395Y-122174000D01*
X89108812Y-121419417D01*
X88873200Y-121481071D01*
X88697073Y-121981480D01*
X88725852Y-122511199D01*
X88873200Y-122866929D01*
X89108812Y-122928583D01*
X89863395Y-122174000D01*
X89863395Y-122533210D01*
X89288417Y-123108188D01*
X89350071Y-123343800D01*
X89850480Y-123519927D01*
X90380199Y-123491148D01*
X90735929Y-123343800D01*
X90797583Y-123108188D01*
X90797583Y-135230000D01*
X77919821Y-135230000D01*
X77919821Y-130447794D01*
X77919821Y-41447794D01*
X77542240Y-40533979D01*
X76843699Y-39834217D01*
X75930544Y-39455042D01*
X74941794Y-39454179D01*
X74027979Y-39831760D01*
X73328217Y-40530301D01*
X72949042Y-41443456D01*
X72948179Y-42432206D01*
X73325760Y-43346021D01*
X74024301Y-44045783D01*
X74937456Y-44424958D01*
X75926206Y-44425821D01*
X76840021Y-44048240D01*
X77539783Y-43349699D01*
X77918958Y-42436544D01*
X77919821Y-41447794D01*
X77919821Y-130447794D01*
X77542240Y-129533979D01*
X76843699Y-128834217D01*
X75930544Y-128455042D01*
X74941794Y-128454179D01*
X74027979Y-128831760D01*
X73328217Y-129530301D01*
X72949042Y-130443456D01*
X72948179Y-131432206D01*
X73325760Y-132346021D01*
X74024301Y-133045783D01*
X74937456Y-133424958D01*
X75926206Y-133425821D01*
X76840021Y-133048240D01*
X77539783Y-132349699D01*
X77918958Y-131436544D01*
X77919821Y-130447794D01*
X77919821Y-135230000D01*
X70644000Y-135230000D01*
X70644000Y-36650000D01*
X169224000Y-36650000D01*
X169224000Y-135230000D01*
X169224000Y-135230000D01*
G37*
X169224000Y-135230000D02*
X169179321Y-135230000D01*
X169179321Y-61429000D01*
X169179321Y-45459000D01*
X166919821Y-45459000D01*
X166919821Y-41447794D01*
X166542240Y-40533979D01*
X165843699Y-39834217D01*
X164930544Y-39455042D01*
X163941794Y-39454179D01*
X163027979Y-39831760D01*
X162328217Y-40530301D01*
X161949042Y-41443456D01*
X161948179Y-42432206D01*
X162325760Y-43346021D01*
X163024301Y-44045783D01*
X163937456Y-44424958D01*
X164926206Y-44425821D01*
X165840021Y-44048240D01*
X166539783Y-43349699D01*
X166918958Y-42436544D01*
X166919821Y-41447794D01*
X166919821Y-45459000D01*
X132064679Y-45459000D01*
X132064679Y-61429000D01*
X169179321Y-61429000D01*
X169179321Y-135230000D01*
X168819570Y-135230000D01*
X168819570Y-87316880D01*
X168819570Y-87064261D01*
X168819570Y-86725750D01*
X168819570Y-86154250D01*
X168819570Y-85815739D01*
X168819570Y-85563120D01*
X168722897Y-85329731D01*
X168544268Y-85151103D01*
X168310879Y-85054430D01*
X167719750Y-85054430D01*
X167561000Y-85213180D01*
X167561000Y-86313000D01*
X168660820Y-86313000D01*
X168819570Y-86154250D01*
X168819570Y-86725750D01*
X168660820Y-86567000D01*
X167561000Y-86567000D01*
X167561000Y-87666820D01*
X167719750Y-87825570D01*
X168310879Y-87825570D01*
X168544268Y-87728897D01*
X168722897Y-87550269D01*
X168819570Y-87316880D01*
X168819570Y-135230000D01*
X168779940Y-135230000D01*
X168779940Y-95908500D01*
X168779940Y-94511500D01*
X168779927Y-94511432D01*
X168779927Y-92862520D01*
X168751148Y-92332801D01*
X168603800Y-91977071D01*
X168368188Y-91915417D01*
X168188583Y-92095022D01*
X168188583Y-91735812D01*
X168126929Y-91500200D01*
X167626520Y-91324073D01*
X167307000Y-91341432D01*
X167307000Y-87666820D01*
X167307000Y-86567000D01*
X167307000Y-86313000D01*
X167307000Y-85213180D01*
X167148250Y-85054430D01*
X166649464Y-85054430D01*
X166649464Y-68961000D01*
X166543800Y-68429793D01*
X166242896Y-67979458D01*
X165792561Y-67678554D01*
X165261354Y-67572890D01*
X163668646Y-67572890D01*
X163137439Y-67678554D01*
X162687104Y-67979458D01*
X162386200Y-68429793D01*
X162280536Y-68961000D01*
X162386200Y-69492207D01*
X162687104Y-69942542D01*
X163137439Y-70243446D01*
X163140305Y-70244016D01*
X163062081Y-70267154D01*
X162639276Y-70609260D01*
X162379573Y-71087125D01*
X162365217Y-71159326D01*
X162487838Y-71374000D01*
X164338000Y-71374000D01*
X164338000Y-71354000D01*
X164592000Y-71354000D01*
X164592000Y-71374000D01*
X166442162Y-71374000D01*
X166564783Y-71159326D01*
X166550427Y-71087125D01*
X166290724Y-70609260D01*
X165867919Y-70267154D01*
X165789694Y-70244016D01*
X165792561Y-70243446D01*
X166242896Y-69942542D01*
X166543800Y-69492207D01*
X166649464Y-68961000D01*
X166649464Y-85054430D01*
X166564783Y-85054430D01*
X166564783Y-71842674D01*
X166442162Y-71628000D01*
X164592000Y-71628000D01*
X164592000Y-72889110D01*
X165346380Y-72889110D01*
X165867919Y-72734846D01*
X166290724Y-72392740D01*
X166550427Y-71914875D01*
X166564783Y-71842674D01*
X166564783Y-85054430D01*
X166557121Y-85054430D01*
X166323732Y-85151103D01*
X166145103Y-85329731D01*
X166048430Y-85563120D01*
X166048430Y-85815739D01*
X166048430Y-86154250D01*
X166207180Y-86313000D01*
X167307000Y-86313000D01*
X167307000Y-86567000D01*
X166207180Y-86567000D01*
X166048430Y-86725750D01*
X166048430Y-87064261D01*
X166048430Y-87316880D01*
X166145103Y-87550269D01*
X166323732Y-87728897D01*
X166557121Y-87825570D01*
X167148250Y-87825570D01*
X167307000Y-87666820D01*
X167307000Y-91341432D01*
X167096801Y-91352852D01*
X166741071Y-91500200D01*
X166679417Y-91735812D01*
X167434000Y-92490395D01*
X168188583Y-91735812D01*
X168188583Y-92095022D01*
X167613605Y-92670000D01*
X168368188Y-93424583D01*
X168603800Y-93362929D01*
X168779927Y-92862520D01*
X168779927Y-94511432D01*
X168732963Y-94269377D01*
X168593173Y-94056573D01*
X168382140Y-93914123D01*
X168132500Y-93864060D01*
X168068360Y-93864060D01*
X168126929Y-93839800D01*
X168188583Y-93604188D01*
X167434000Y-92849605D01*
X167254395Y-93029210D01*
X167254395Y-92670000D01*
X166499812Y-91915417D01*
X166264200Y-91977071D01*
X166088073Y-92477480D01*
X166116852Y-93007199D01*
X166264200Y-93362929D01*
X166499812Y-93424583D01*
X167254395Y-92670000D01*
X167254395Y-93029210D01*
X166679417Y-93604188D01*
X166741071Y-93839800D01*
X166809998Y-93864060D01*
X166735500Y-93864060D01*
X166493377Y-93911037D01*
X166280573Y-94050827D01*
X166138123Y-94261860D01*
X166088060Y-94511500D01*
X166088060Y-95908500D01*
X166135037Y-96150623D01*
X166274827Y-96363427D01*
X166485860Y-96505877D01*
X166735500Y-96555940D01*
X168132500Y-96555940D01*
X168374623Y-96508963D01*
X168587427Y-96369173D01*
X168729877Y-96158140D01*
X168779940Y-95908500D01*
X168779940Y-135230000D01*
X168771240Y-135230000D01*
X168771240Y-102341715D01*
X168560831Y-101832485D01*
X168171564Y-101442539D01*
X167662702Y-101231241D01*
X167111715Y-101230760D01*
X166602485Y-101441169D01*
X166212539Y-101830436D01*
X166001241Y-102339298D01*
X166000760Y-102890285D01*
X166211169Y-103399515D01*
X166535100Y-103724011D01*
X166535100Y-104295546D01*
X164338000Y-106492645D01*
X164338000Y-72889110D01*
X164338000Y-71628000D01*
X162487838Y-71628000D01*
X162365217Y-71842674D01*
X162379573Y-71914875D01*
X162639276Y-72392740D01*
X163062081Y-72734846D01*
X163583620Y-72889110D01*
X164338000Y-72889110D01*
X164338000Y-106492645D01*
X161370354Y-109460291D01*
X161370354Y-104478409D01*
X161068791Y-103748571D01*
X160510886Y-103189691D01*
X159781575Y-102886855D01*
X158991889Y-102886166D01*
X158262051Y-103187729D01*
X157703171Y-103745634D01*
X157400335Y-104474945D01*
X157399646Y-105264631D01*
X157701209Y-105994469D01*
X158259114Y-106553349D01*
X158988425Y-106856185D01*
X159778111Y-106856874D01*
X160507949Y-106555311D01*
X161066829Y-105997406D01*
X161369665Y-105268095D01*
X161370354Y-104478409D01*
X161370354Y-109460291D01*
X158082222Y-112748423D01*
X158082222Y-111864339D01*
X157869990Y-111350697D01*
X157477350Y-110957371D01*
X157269467Y-110871050D01*
X157475283Y-110786010D01*
X157868609Y-110393370D01*
X158081737Y-109880100D01*
X158082222Y-109324339D01*
X157869990Y-108810697D01*
X157477350Y-108417371D01*
X156964080Y-108204243D01*
X156408319Y-108203758D01*
X155894677Y-108415990D01*
X155685469Y-108624832D01*
X155478370Y-108417371D01*
X154965100Y-108204243D01*
X154409339Y-108203758D01*
X154039240Y-108356679D01*
X154039240Y-101325715D01*
X153828831Y-100816485D01*
X153439564Y-100426539D01*
X152930702Y-100215241D01*
X152379715Y-100214760D01*
X151870485Y-100425169D01*
X151480539Y-100814436D01*
X151269241Y-101323298D01*
X151268840Y-101781805D01*
X150269546Y-102781100D01*
X149839680Y-102781100D01*
X149839680Y-92193938D01*
X149839680Y-90589542D01*
X149839680Y-70192458D01*
X149839680Y-68588062D01*
X149696217Y-67866826D01*
X149287670Y-67255392D01*
X148676236Y-66846845D01*
X147955000Y-66703382D01*
X147233764Y-66846845D01*
X146622330Y-67255392D01*
X146213783Y-67866826D01*
X146070320Y-68588062D01*
X146070320Y-70192458D01*
X146213783Y-70913694D01*
X146622330Y-71525128D01*
X147233764Y-71933675D01*
X147955000Y-72077138D01*
X148676236Y-71933675D01*
X149287670Y-71525128D01*
X149696217Y-70913694D01*
X149839680Y-70192458D01*
X149839680Y-90589542D01*
X149696217Y-89868306D01*
X149287670Y-89256872D01*
X148676236Y-88848325D01*
X147955000Y-88704862D01*
X147233764Y-88848325D01*
X146622330Y-89256872D01*
X146213783Y-89868306D01*
X146070320Y-90589542D01*
X146070320Y-92193938D01*
X146213783Y-92915174D01*
X146622330Y-93526608D01*
X147233764Y-93935155D01*
X147955000Y-94078618D01*
X148676236Y-93935155D01*
X149287670Y-93526608D01*
X149696217Y-92915174D01*
X149839680Y-92193938D01*
X149839680Y-102781100D01*
X142113000Y-102781100D01*
X141787375Y-102845871D01*
X141511323Y-103030323D01*
X140643488Y-103898157D01*
X140187715Y-103897760D01*
X139678485Y-104108169D01*
X139417599Y-104368600D01*
X133985000Y-104368600D01*
X132842767Y-104368600D01*
X132842767Y-74245966D01*
X132814805Y-73695462D01*
X132657931Y-73316735D01*
X132416930Y-73248675D01*
X132237325Y-73428280D01*
X132237325Y-73069070D01*
X132169265Y-72828069D01*
X131649966Y-72643233D01*
X131099462Y-72671195D01*
X130720735Y-72828069D01*
X130652675Y-73069070D01*
X131445000Y-73861395D01*
X132237325Y-73069070D01*
X132237325Y-73428280D01*
X131624605Y-74041000D01*
X132416930Y-74833325D01*
X132657931Y-74765265D01*
X132842767Y-74245966D01*
X132842767Y-104368600D01*
X128342152Y-104368600D01*
X123088400Y-99114848D01*
X123088400Y-98706952D01*
X123474461Y-98321564D01*
X123685759Y-97812702D01*
X123686240Y-97261715D01*
X123475831Y-96752485D01*
X123086564Y-96362539D01*
X123063000Y-96352754D01*
X123063000Y-96337146D01*
X123465515Y-96170831D01*
X123855461Y-95781564D01*
X124066759Y-95272702D01*
X124067240Y-94721715D01*
X123856831Y-94212485D01*
X123467564Y-93822539D01*
X123317000Y-93760019D01*
X123317000Y-92009630D01*
X124841000Y-93533630D01*
X124841000Y-98384279D01*
X124819485Y-98393169D01*
X124429539Y-98782436D01*
X124218241Y-99291298D01*
X124217760Y-99842285D01*
X124428169Y-100351515D01*
X124817436Y-100741461D01*
X125326298Y-100952759D01*
X125877285Y-100953240D01*
X126386515Y-100742831D01*
X126776461Y-100353564D01*
X126987759Y-99844702D01*
X126988240Y-99293715D01*
X126858789Y-98980419D01*
X130059824Y-102181455D01*
X130059760Y-102255285D01*
X130270169Y-102764515D01*
X130659436Y-103154461D01*
X131168298Y-103365759D01*
X131719285Y-103366240D01*
X132228515Y-103155831D01*
X132618461Y-102766564D01*
X132829759Y-102257702D01*
X132830240Y-101706715D01*
X132619831Y-101197485D01*
X132260687Y-100837714D01*
X132618461Y-100480564D01*
X132829759Y-99971702D01*
X132830240Y-99420715D01*
X132619831Y-98911485D01*
X132260687Y-98551714D01*
X132618461Y-98194564D01*
X132829759Y-97685702D01*
X132830240Y-97134715D01*
X132619831Y-96625485D01*
X132237325Y-96242311D01*
X132237325Y-75012930D01*
X131445000Y-74220605D01*
X131265395Y-74400210D01*
X131265395Y-74041000D01*
X130473070Y-73248675D01*
X130232069Y-73316735D01*
X130047233Y-73836034D01*
X130075195Y-74386538D01*
X130232069Y-74765265D01*
X130473070Y-74833325D01*
X131265395Y-74041000D01*
X131265395Y-74400210D01*
X130652675Y-75012930D01*
X130720735Y-75253931D01*
X131240034Y-75438767D01*
X131790538Y-75410805D01*
X132169265Y-75253931D01*
X132237325Y-75012930D01*
X132237325Y-96242311D01*
X132230564Y-96235539D01*
X132207000Y-96225754D01*
X132207000Y-83947000D01*
X132148996Y-83655396D01*
X132148996Y-83655395D01*
X132082834Y-83556376D01*
X131983816Y-83408185D01*
X128397000Y-79821369D01*
X128397000Y-72705630D01*
X128606798Y-72495831D01*
X128628298Y-72504759D01*
X129179285Y-72505240D01*
X129688515Y-72294831D01*
X130078461Y-71905564D01*
X130289759Y-71396702D01*
X130290240Y-70845715D01*
X130088720Y-70358000D01*
X134735229Y-70358000D01*
X134735229Y-73259800D01*
X135349109Y-73259800D01*
X135139671Y-73764184D01*
X135139190Y-74315398D01*
X135349686Y-74824837D01*
X135739113Y-75214944D01*
X136248184Y-75426329D01*
X136799398Y-75426810D01*
X137308837Y-75216314D01*
X137698944Y-74826887D01*
X137910329Y-74317816D01*
X137910810Y-73766602D01*
X137701403Y-73259800D01*
X138162372Y-73259800D01*
X138162372Y-70358000D01*
X139024279Y-70358000D01*
X139033169Y-70379515D01*
X139422436Y-70769461D01*
X139931298Y-70980759D01*
X140482285Y-70981240D01*
X140991515Y-70770831D01*
X141381461Y-70381564D01*
X141592759Y-69872702D01*
X141593240Y-69321715D01*
X141382831Y-68812485D01*
X140993564Y-68422539D01*
X140714864Y-68306812D01*
X140598026Y-68189974D01*
X140186008Y-67914673D01*
X139700000Y-67817999D01*
X139699994Y-67818000D01*
X130290240Y-67818000D01*
X130290240Y-64368715D01*
X130079831Y-63859485D01*
X129690564Y-63469539D01*
X129667000Y-63459754D01*
X129667000Y-54142720D01*
X129688515Y-54133831D01*
X130078461Y-53744564D01*
X130289759Y-53235702D01*
X130290240Y-52684715D01*
X130079831Y-52175485D01*
X129690564Y-51785539D01*
X129181702Y-51574241D01*
X128630715Y-51573760D01*
X128121485Y-51784169D01*
X127731539Y-52173436D01*
X127520241Y-52682298D01*
X127519760Y-53233285D01*
X127730169Y-53742515D01*
X128119436Y-54132461D01*
X128143000Y-54142245D01*
X128143000Y-63459279D01*
X128121485Y-63468169D01*
X127731539Y-63857436D01*
X127520241Y-64366298D01*
X127519760Y-64917285D01*
X127730169Y-65426515D01*
X128119436Y-65816461D01*
X128628298Y-66027759D01*
X129179285Y-66028240D01*
X129688515Y-65817831D01*
X130078461Y-65428564D01*
X130289759Y-64919702D01*
X130290240Y-64368715D01*
X130290240Y-67818000D01*
X118352240Y-67818000D01*
X118352240Y-64368715D01*
X118141831Y-63859485D01*
X117752564Y-63469539D01*
X117729000Y-63459754D01*
X117729000Y-54142720D01*
X117750515Y-54133831D01*
X118140461Y-53744564D01*
X118351759Y-53235702D01*
X118352240Y-52684715D01*
X118141831Y-52175485D01*
X117752564Y-51785539D01*
X117243702Y-51574241D01*
X116692715Y-51573760D01*
X116183485Y-51784169D01*
X115793539Y-52173436D01*
X115582241Y-52682298D01*
X115581760Y-53233285D01*
X115792169Y-53742515D01*
X116181436Y-54132461D01*
X116205000Y-54142245D01*
X116205000Y-63459279D01*
X116183485Y-63468169D01*
X115793539Y-63857436D01*
X115582241Y-64366298D01*
X115581760Y-64917285D01*
X115792169Y-65426515D01*
X116181436Y-65816461D01*
X116690298Y-66027759D01*
X117241285Y-66028240D01*
X117750515Y-65817831D01*
X118140461Y-65428564D01*
X118351759Y-64919702D01*
X118352240Y-64368715D01*
X118352240Y-67818000D01*
X105652240Y-67818000D01*
X105652240Y-64368715D01*
X105441831Y-63859485D01*
X105052564Y-63469539D01*
X105029000Y-63459754D01*
X105029000Y-54142720D01*
X105050515Y-54133831D01*
X105440461Y-53744564D01*
X105651759Y-53235702D01*
X105652240Y-52684715D01*
X105441831Y-52175485D01*
X105052564Y-51785539D01*
X104543702Y-51574241D01*
X103992715Y-51573760D01*
X103483485Y-51784169D01*
X103093539Y-52173436D01*
X102882241Y-52682298D01*
X102881760Y-53233285D01*
X103092169Y-53742515D01*
X103481436Y-54132461D01*
X103505000Y-54142245D01*
X103505000Y-63459279D01*
X103483485Y-63468169D01*
X103093539Y-63857436D01*
X102882241Y-64366298D01*
X102881760Y-64917285D01*
X103092169Y-65426515D01*
X103481436Y-65816461D01*
X103990298Y-66027759D01*
X104541285Y-66028240D01*
X105050515Y-65817831D01*
X105440461Y-65428564D01*
X105651759Y-64919702D01*
X105652240Y-64368715D01*
X105652240Y-67818000D01*
X93091000Y-67818000D01*
X92604992Y-67914673D01*
X92192974Y-68189974D01*
X92192971Y-68189977D01*
X85071948Y-75311000D01*
X82625940Y-75311000D01*
X82625940Y-62928500D01*
X82625940Y-61531500D01*
X82625940Y-56578500D01*
X82625940Y-55181500D01*
X82578963Y-54939377D01*
X82439173Y-54726573D01*
X82228140Y-54584123D01*
X81978500Y-54534060D01*
X81882116Y-54534060D01*
X82034380Y-54471146D01*
X82409827Y-54096353D01*
X82613268Y-53606413D01*
X82613731Y-53075914D01*
X82411146Y-52585620D01*
X82036353Y-52210173D01*
X81698553Y-52069906D01*
X82034380Y-51931146D01*
X82409827Y-51556353D01*
X82613268Y-51066413D01*
X82613731Y-50535914D01*
X82411146Y-50045620D01*
X82036353Y-49670173D01*
X81698553Y-49529906D01*
X82034380Y-49391146D01*
X82409827Y-49016353D01*
X82613268Y-48526413D01*
X82613731Y-47995914D01*
X82411146Y-47505620D01*
X82036353Y-47130173D01*
X81546413Y-46926732D01*
X81015914Y-46926269D01*
X80525620Y-47128854D01*
X80150173Y-47503647D01*
X79946732Y-47993587D01*
X79946269Y-48524086D01*
X80148854Y-49014380D01*
X80523647Y-49389827D01*
X80861446Y-49530093D01*
X80525620Y-49668854D01*
X80150173Y-50043647D01*
X79946732Y-50533587D01*
X79946269Y-51064086D01*
X80148854Y-51554380D01*
X80523647Y-51929827D01*
X80861446Y-52070093D01*
X80525620Y-52208854D01*
X80150173Y-52583647D01*
X79946732Y-53073587D01*
X79946269Y-53604086D01*
X80148854Y-54094380D01*
X80523647Y-54469827D01*
X80678337Y-54534060D01*
X80581500Y-54534060D01*
X80339377Y-54581037D01*
X80126573Y-54720827D01*
X79984123Y-54931860D01*
X79934060Y-55181500D01*
X79934060Y-56578500D01*
X79981037Y-56820623D01*
X80120827Y-57033427D01*
X80331860Y-57175877D01*
X80581500Y-57225940D01*
X81978500Y-57225940D01*
X82220623Y-57178963D01*
X82433427Y-57039173D01*
X82575877Y-56828140D01*
X82625940Y-56578500D01*
X82625940Y-61531500D01*
X82578963Y-61289377D01*
X82439173Y-61076573D01*
X82228140Y-60934123D01*
X81978500Y-60884060D01*
X80581500Y-60884060D01*
X80339377Y-60931037D01*
X80126573Y-61070827D01*
X79984123Y-61281860D01*
X79934060Y-61531500D01*
X79934060Y-62928500D01*
X79981037Y-63170623D01*
X80120827Y-63383427D01*
X80331860Y-63525877D01*
X80581500Y-63575940D01*
X80677883Y-63575940D01*
X80525620Y-63638854D01*
X80150173Y-64013647D01*
X79946732Y-64503587D01*
X79946269Y-65034086D01*
X80148854Y-65524380D01*
X80523647Y-65899827D01*
X80861446Y-66040093D01*
X80525620Y-66178854D01*
X80150173Y-66553647D01*
X79946732Y-67043587D01*
X79946269Y-67574086D01*
X80148854Y-68064380D01*
X80523647Y-68439827D01*
X80861446Y-68580093D01*
X80525620Y-68718854D01*
X80150173Y-69093647D01*
X79946732Y-69583587D01*
X79946269Y-70114086D01*
X80148854Y-70604380D01*
X80523647Y-70979827D01*
X81013587Y-71183268D01*
X81544086Y-71183731D01*
X82034380Y-70981146D01*
X82409827Y-70606353D01*
X82613268Y-70116413D01*
X82613731Y-69585914D01*
X82411146Y-69095620D01*
X82036353Y-68720173D01*
X81698553Y-68579906D01*
X82034380Y-68441146D01*
X82409827Y-68066353D01*
X82613268Y-67576413D01*
X82613731Y-67045914D01*
X82411146Y-66555620D01*
X82036353Y-66180173D01*
X81698553Y-66039906D01*
X82034380Y-65901146D01*
X82409827Y-65526353D01*
X82613268Y-65036413D01*
X82613731Y-64505914D01*
X82411146Y-64015620D01*
X82036353Y-63640173D01*
X81881662Y-63575940D01*
X81978500Y-63575940D01*
X82220623Y-63528963D01*
X82433427Y-63389173D01*
X82575877Y-63178140D01*
X82625940Y-62928500D01*
X82625940Y-75311000D01*
X81706072Y-75311000D01*
X81429702Y-75196241D01*
X80878715Y-75195760D01*
X80369485Y-75406169D01*
X79979539Y-75795436D01*
X79768241Y-76304298D01*
X79767760Y-76855285D01*
X79978169Y-77364515D01*
X80367436Y-77754461D01*
X80876298Y-77965759D01*
X81427285Y-77966240D01*
X81706187Y-77851000D01*
X85597994Y-77851000D01*
X85598000Y-77851001D01*
X85598000Y-77851000D01*
X86084008Y-77754327D01*
X86496026Y-77479026D01*
X93617051Y-70358000D01*
X103083754Y-70358000D01*
X102882241Y-70843298D01*
X102881760Y-71394285D01*
X103092169Y-71903515D01*
X103481436Y-72293461D01*
X103990298Y-72504759D01*
X104541285Y-72505240D01*
X104564866Y-72495496D01*
X106745369Y-74676000D01*
X91948000Y-74676000D01*
X91656395Y-74734004D01*
X91409184Y-74899185D01*
X89123185Y-77185185D01*
X88983001Y-77394983D01*
X88878485Y-77438169D01*
X88488539Y-77827436D01*
X88277241Y-78336298D01*
X88276760Y-78887285D01*
X88487169Y-79396515D01*
X88876436Y-79786461D01*
X89385298Y-79997759D01*
X89936285Y-79998240D01*
X90445515Y-79787831D01*
X90835461Y-79398564D01*
X91046759Y-78889702D01*
X91047240Y-78338715D01*
X90836831Y-77829485D01*
X90735576Y-77728053D01*
X92263630Y-76200000D01*
X117921369Y-76200000D01*
X119126000Y-77404630D01*
X119126000Y-85028369D01*
X116564831Y-82467201D01*
X116573759Y-82445702D01*
X116574240Y-81894715D01*
X116363831Y-81385485D01*
X115974564Y-80995539D01*
X115465702Y-80784241D01*
X114914715Y-80783760D01*
X114405485Y-80994169D01*
X114015539Y-81383436D01*
X113804241Y-81892298D01*
X113803983Y-82186758D01*
X113578323Y-82093056D01*
X112992248Y-82092545D01*
X112450589Y-82316353D01*
X112035810Y-82730409D01*
X111811056Y-83271677D01*
X111810545Y-83857752D01*
X112034353Y-84399411D01*
X112448409Y-84814190D01*
X112500391Y-84835775D01*
X112450589Y-84856353D01*
X112035810Y-85270409D01*
X111811056Y-85811677D01*
X111810545Y-86397752D01*
X112034353Y-86939411D01*
X112448409Y-87354190D01*
X112989677Y-87578944D01*
X113575752Y-87579455D01*
X114117411Y-87355647D01*
X114532190Y-86941591D01*
X114756944Y-86400323D01*
X114757455Y-85814248D01*
X114533647Y-85272589D01*
X114119591Y-84857810D01*
X114067608Y-84836224D01*
X114117411Y-84815647D01*
X114532190Y-84401591D01*
X114756944Y-83860323D01*
X114757267Y-83489384D01*
X114912298Y-83553759D01*
X115463285Y-83554240D01*
X115486866Y-83544496D01*
X118237000Y-86294630D01*
X118237000Y-87884000D01*
X118295004Y-88175605D01*
X118460185Y-88422815D01*
X121793000Y-91755630D01*
X121793000Y-93926470D01*
X121508539Y-94210436D01*
X121297241Y-94719298D01*
X121296760Y-95270285D01*
X121507169Y-95779515D01*
X121539000Y-95811401D01*
X121539000Y-96352279D01*
X121517485Y-96361169D01*
X121129378Y-96748600D01*
X119836940Y-96748600D01*
X119836940Y-92773500D01*
X119836940Y-91376500D01*
X119789963Y-91134377D01*
X119650173Y-90921573D01*
X119439140Y-90779123D01*
X119189500Y-90729060D01*
X117792500Y-90729060D01*
X117550377Y-90776037D01*
X117337573Y-90915827D01*
X117195123Y-91126860D01*
X117145060Y-91376500D01*
X117145060Y-91472883D01*
X117082146Y-91320620D01*
X116707353Y-90945173D01*
X116217413Y-90741732D01*
X115686914Y-90741269D01*
X115196620Y-90943854D01*
X114821173Y-91318647D01*
X114680906Y-91656446D01*
X114542146Y-91320620D01*
X114167353Y-90945173D01*
X113677413Y-90741732D01*
X113146914Y-90741269D01*
X112656620Y-90943854D01*
X112281173Y-91318647D01*
X112140906Y-91656446D01*
X112002146Y-91320620D01*
X111627353Y-90945173D01*
X111137413Y-90741732D01*
X110606914Y-90741269D01*
X110116620Y-90943854D01*
X109741173Y-91318647D01*
X109600906Y-91656446D01*
X109462146Y-91320620D01*
X109087353Y-90945173D01*
X108597413Y-90741732D01*
X108066914Y-90741269D01*
X107576620Y-90943854D01*
X107201173Y-91318647D01*
X107060906Y-91656446D01*
X106922146Y-91320620D01*
X106547353Y-90945173D01*
X106057413Y-90741732D01*
X105526914Y-90741269D01*
X105036620Y-90943854D01*
X104661173Y-91318647D01*
X104520906Y-91656446D01*
X104382146Y-91320620D01*
X104007353Y-90945173D01*
X103517413Y-90741732D01*
X102986914Y-90741269D01*
X102496620Y-90943854D01*
X102121173Y-91318647D01*
X101980906Y-91656446D01*
X101842146Y-91320620D01*
X101467353Y-90945173D01*
X100977413Y-90741732D01*
X100582243Y-90741387D01*
X101661630Y-89662000D01*
X108204000Y-89662000D01*
X108204000Y-89661999D01*
X108495604Y-89603996D01*
X108495605Y-89603996D01*
X108742815Y-89438815D01*
X110012815Y-88168816D01*
X110012815Y-88168815D01*
X110177996Y-87921605D01*
X110235999Y-87630000D01*
X110236000Y-87630000D01*
X110236000Y-84262630D01*
X114748444Y-79750185D01*
X114911436Y-79913461D01*
X115420298Y-80124759D01*
X115971285Y-80125240D01*
X116480515Y-79914831D01*
X116870461Y-79525564D01*
X117081759Y-79016702D01*
X117082240Y-78465715D01*
X116871831Y-77956485D01*
X116482564Y-77566539D01*
X115973702Y-77355241D01*
X115422715Y-77354760D01*
X114913485Y-77565169D01*
X114523539Y-77954436D01*
X114498696Y-78014262D01*
X114389395Y-78036004D01*
X114142185Y-78201185D01*
X108935185Y-83408185D01*
X108770004Y-83655395D01*
X108712000Y-83947000D01*
X108712000Y-87314369D01*
X107888369Y-88138000D01*
X107249630Y-88138000D01*
X108107815Y-87279816D01*
X108107815Y-87279815D01*
X108272996Y-87032605D01*
X108330999Y-86741000D01*
X108331000Y-86741000D01*
X108331000Y-83439000D01*
X108272996Y-83147395D01*
X108107815Y-82900185D01*
X108107815Y-82900184D01*
X105694815Y-80487185D01*
X105447605Y-80322004D01*
X105156000Y-80264000D01*
X103566630Y-80264000D01*
X103378000Y-80075369D01*
X103378000Y-80050720D01*
X103399515Y-80041831D01*
X103789461Y-79652564D01*
X104000759Y-79143702D01*
X104001240Y-78592715D01*
X103790831Y-78083485D01*
X103401564Y-77693539D01*
X102892702Y-77482241D01*
X102341715Y-77481760D01*
X101832485Y-77692169D01*
X101442539Y-78081436D01*
X101231241Y-78590298D01*
X101230760Y-79141285D01*
X101441169Y-79650515D01*
X101830436Y-80040461D01*
X101854000Y-80050245D01*
X101854000Y-80391000D01*
X101912004Y-80682605D01*
X102077185Y-80929815D01*
X102712185Y-81564816D01*
X102860376Y-81663834D01*
X102959395Y-81729996D01*
X102959396Y-81729996D01*
X103251000Y-81788000D01*
X104840369Y-81788000D01*
X105232507Y-82180137D01*
X105156000Y-82223838D01*
X105156000Y-84074000D01*
X106417110Y-84074000D01*
X106417110Y-83364740D01*
X106807000Y-83754630D01*
X106807000Y-86425369D01*
X106417110Y-86815259D01*
X106417110Y-85082380D01*
X106417110Y-84328000D01*
X105156000Y-84328000D01*
X105156000Y-86178162D01*
X105370674Y-86300783D01*
X105442875Y-86286427D01*
X105920740Y-86026724D01*
X106262846Y-85603919D01*
X106417110Y-85082380D01*
X106417110Y-86815259D01*
X105729369Y-87503000D01*
X104902000Y-87503000D01*
X104902000Y-86178162D01*
X104902000Y-84328000D01*
X104882000Y-84328000D01*
X104882000Y-84074000D01*
X104902000Y-84074000D01*
X104902000Y-82223838D01*
X104687326Y-82101217D01*
X104615125Y-82115573D01*
X104137260Y-82375276D01*
X103795154Y-82798081D01*
X103772016Y-82876305D01*
X103771446Y-82873439D01*
X103470542Y-82423104D01*
X103020207Y-82122200D01*
X102489000Y-82016536D01*
X101957793Y-82122200D01*
X101507458Y-82423104D01*
X101219000Y-82854812D01*
X100930542Y-82423104D01*
X100480207Y-82122200D01*
X99949000Y-82016536D01*
X99417793Y-82122200D01*
X98967458Y-82423104D01*
X98679000Y-82854812D01*
X98390542Y-82423104D01*
X97940207Y-82122200D01*
X97409000Y-82016536D01*
X96877793Y-82122200D01*
X96427458Y-82423104D01*
X96139000Y-82854812D01*
X95850542Y-82423104D01*
X95400207Y-82122200D01*
X94869000Y-82016536D01*
X94337793Y-82122200D01*
X93887458Y-82423104D01*
X93599000Y-82854812D01*
X93310542Y-82423104D01*
X92860207Y-82122200D01*
X92329000Y-82016536D01*
X91797793Y-82122200D01*
X91347458Y-82423104D01*
X91046554Y-82873439D01*
X90940890Y-83404646D01*
X90940890Y-84997354D01*
X91046554Y-85528561D01*
X91347458Y-85978896D01*
X91797793Y-86279800D01*
X92329000Y-86385464D01*
X92860207Y-86279800D01*
X93310542Y-85978896D01*
X93599000Y-85547187D01*
X93887458Y-85978896D01*
X94337793Y-86279800D01*
X94869000Y-86385464D01*
X95400207Y-86279800D01*
X95850542Y-85978896D01*
X96139000Y-85547187D01*
X96427458Y-85978896D01*
X96877793Y-86279800D01*
X97409000Y-86385464D01*
X97940207Y-86279800D01*
X98390542Y-85978896D01*
X98679000Y-85547187D01*
X98967458Y-85978896D01*
X99417793Y-86279800D01*
X99949000Y-86385464D01*
X100480207Y-86279800D01*
X100930542Y-85978896D01*
X101219000Y-85547187D01*
X101507458Y-85978896D01*
X101957793Y-86279800D01*
X102489000Y-86385464D01*
X103020207Y-86279800D01*
X103470542Y-85978896D01*
X103771446Y-85528561D01*
X103772016Y-85525694D01*
X103795154Y-85603919D01*
X104137260Y-86026724D01*
X104615125Y-86286427D01*
X104687326Y-86300783D01*
X104902000Y-86178162D01*
X104902000Y-87503000D01*
X101092000Y-87503000D01*
X100800395Y-87561004D01*
X100701376Y-87627165D01*
X100553185Y-87726184D01*
X97759185Y-90520185D01*
X97594004Y-90767395D01*
X97536000Y-91059000D01*
X97536000Y-100711000D01*
X97594004Y-101002605D01*
X97759185Y-101249815D01*
X113411000Y-116901630D01*
X113411000Y-117942279D01*
X113389485Y-117951169D01*
X112999539Y-118340436D01*
X112788241Y-118849298D01*
X112787760Y-119400285D01*
X112998169Y-119909515D01*
X113387436Y-120299461D01*
X113896298Y-120510759D01*
X114447285Y-120511240D01*
X114956515Y-120300831D01*
X115346461Y-119911564D01*
X115514914Y-119505884D01*
X115546436Y-119537461D01*
X116055298Y-119748759D01*
X116606285Y-119749240D01*
X117115515Y-119538831D01*
X117505461Y-119149564D01*
X117716759Y-118640702D01*
X117717240Y-118089715D01*
X117506831Y-117580485D01*
X117117564Y-117190539D01*
X116696207Y-117015576D01*
X99695000Y-100014369D01*
X99695000Y-92944726D01*
X99954647Y-93204827D01*
X100444587Y-93408268D01*
X100975086Y-93408731D01*
X101465380Y-93206146D01*
X101840827Y-92831353D01*
X101981093Y-92493553D01*
X102119854Y-92829380D01*
X102494647Y-93204827D01*
X102984587Y-93408268D01*
X103515086Y-93408731D01*
X104005380Y-93206146D01*
X104380827Y-92831353D01*
X104521093Y-92493553D01*
X104659854Y-92829380D01*
X105034647Y-93204827D01*
X105524587Y-93408268D01*
X106055086Y-93408731D01*
X106545380Y-93206146D01*
X106920827Y-92831353D01*
X107061093Y-92493553D01*
X107199854Y-92829380D01*
X107574647Y-93204827D01*
X108064587Y-93408268D01*
X108595086Y-93408731D01*
X109085380Y-93206146D01*
X109460827Y-92831353D01*
X109601093Y-92493553D01*
X109739854Y-92829380D01*
X110114647Y-93204827D01*
X110604587Y-93408268D01*
X111135086Y-93408731D01*
X111625380Y-93206146D01*
X112000827Y-92831353D01*
X112141093Y-92493553D01*
X112279854Y-92829380D01*
X112654647Y-93204827D01*
X113144587Y-93408268D01*
X113675086Y-93408731D01*
X114165380Y-93206146D01*
X114540827Y-92831353D01*
X114681093Y-92493553D01*
X114819854Y-92829380D01*
X115194647Y-93204827D01*
X115684587Y-93408268D01*
X116215086Y-93408731D01*
X116705380Y-93206146D01*
X117080827Y-92831353D01*
X117145060Y-92676662D01*
X117145060Y-92773500D01*
X117192037Y-93015623D01*
X117331827Y-93228427D01*
X117542860Y-93370877D01*
X117792500Y-93420940D01*
X119189500Y-93420940D01*
X119431623Y-93373963D01*
X119644427Y-93234173D01*
X119786877Y-93023140D01*
X119836940Y-92773500D01*
X119836940Y-96748600D01*
X109855000Y-96748600D01*
X109553675Y-96808537D01*
X109298224Y-96979224D01*
X107673943Y-98603504D01*
X107338564Y-98267539D01*
X106829702Y-98056241D01*
X106278715Y-98055760D01*
X105769485Y-98266169D01*
X105379539Y-98655436D01*
X105168241Y-99164298D01*
X105167760Y-99715285D01*
X105378169Y-100224515D01*
X105765600Y-100612621D01*
X105765600Y-104648000D01*
X105825537Y-104949325D01*
X105996224Y-105204776D01*
X119646236Y-118854788D01*
X119645760Y-119400285D01*
X119655503Y-119423865D01*
X115889369Y-123190000D01*
X112192244Y-123190000D01*
X112500190Y-122882591D01*
X112724944Y-122341323D01*
X112725455Y-121755248D01*
X112501647Y-121213589D01*
X112087591Y-120798810D01*
X112035608Y-120777224D01*
X112085411Y-120756647D01*
X112500190Y-120342591D01*
X112724944Y-119801323D01*
X112725455Y-119215248D01*
X112501647Y-118673589D01*
X112087591Y-118258810D01*
X111546323Y-118034056D01*
X110960248Y-118033545D01*
X110418589Y-118257353D01*
X110003810Y-118671409D01*
X109779056Y-119212677D01*
X109778545Y-119798752D01*
X110002353Y-120340411D01*
X110416409Y-120755190D01*
X110468391Y-120776775D01*
X110418589Y-120797353D01*
X110003810Y-121211409D01*
X109779056Y-121752677D01*
X109778545Y-122338752D01*
X110002353Y-122880411D01*
X110311402Y-123190000D01*
X106985244Y-123190000D01*
X107293190Y-122882591D01*
X107517944Y-122341323D01*
X107518455Y-121755248D01*
X107294647Y-121213589D01*
X106880591Y-120798810D01*
X106828608Y-120777224D01*
X106878411Y-120756647D01*
X107293190Y-120342591D01*
X107517944Y-119801323D01*
X107518455Y-119215248D01*
X107294647Y-118673589D01*
X106880591Y-118258810D01*
X106339323Y-118034056D01*
X105753248Y-118033545D01*
X105211589Y-118257353D01*
X104796810Y-118671409D01*
X104572056Y-119212677D01*
X104571545Y-119798752D01*
X104795353Y-120340411D01*
X105209409Y-120755190D01*
X105261391Y-120776775D01*
X105211589Y-120797353D01*
X104796810Y-121211409D01*
X104572056Y-121752677D01*
X104571545Y-122338752D01*
X104716005Y-122688375D01*
X103886000Y-121858369D01*
X103886000Y-118044630D01*
X105238798Y-116691831D01*
X105260298Y-116700759D01*
X105811285Y-116701240D01*
X106320515Y-116490831D01*
X106710461Y-116101564D01*
X106921759Y-115592702D01*
X106922240Y-115041715D01*
X106711831Y-114532485D01*
X106322564Y-114142539D01*
X105813702Y-113931241D01*
X105262715Y-113930760D01*
X104753485Y-114141169D01*
X104363539Y-114530436D01*
X104152241Y-115039298D01*
X104151760Y-115590285D01*
X104161503Y-115613865D01*
X102585185Y-117190185D01*
X102420004Y-117437395D01*
X102362000Y-117729000D01*
X102362000Y-122174000D01*
X102420004Y-122465605D01*
X102585185Y-122712815D01*
X104363185Y-124490816D01*
X104511376Y-124589834D01*
X104610395Y-124655996D01*
X104610396Y-124655996D01*
X104902000Y-124714000D01*
X116205000Y-124714000D01*
X116205000Y-124713999D01*
X116496604Y-124655996D01*
X116496605Y-124655996D01*
X116743815Y-124490815D01*
X120732798Y-120501831D01*
X120754298Y-120510759D01*
X121305285Y-120511240D01*
X121814515Y-120300831D01*
X122204461Y-119911564D01*
X122214245Y-119888000D01*
X123317000Y-119888000D01*
X123317000Y-119887999D01*
X123608604Y-119829996D01*
X123608605Y-119829996D01*
X123855815Y-119664815D01*
X132524500Y-110996130D01*
X135859185Y-114330815D01*
X136106395Y-114495996D01*
X136398000Y-114554000D01*
X142686370Y-114554000D01*
X143658168Y-115525798D01*
X143649241Y-115547298D01*
X143648760Y-116098285D01*
X143859169Y-116607515D01*
X144248436Y-116997461D01*
X144757298Y-117208759D01*
X145308285Y-117209240D01*
X145817515Y-116998831D01*
X146207461Y-116609564D01*
X146418759Y-116100702D01*
X146419240Y-115549715D01*
X146208831Y-115040485D01*
X145819564Y-114650539D01*
X145310702Y-114439241D01*
X144759715Y-114438760D01*
X144736133Y-114448503D01*
X143540815Y-113253185D01*
X143293605Y-113088004D01*
X143002000Y-113030000D01*
X136713630Y-113030000D01*
X132969000Y-109285370D01*
X132969000Y-108117720D01*
X132990515Y-108108831D01*
X133380461Y-107719564D01*
X133591759Y-107210702D01*
X133592240Y-106659715D01*
X133582496Y-106636133D01*
X134275230Y-105943400D01*
X139236299Y-105943400D01*
X139287169Y-106066515D01*
X139676436Y-106456461D01*
X140185298Y-106667759D01*
X140736285Y-106668240D01*
X141245515Y-106457831D01*
X141635461Y-106068564D01*
X141846759Y-105559702D01*
X141847159Y-105101194D01*
X142465454Y-104482900D01*
X150622000Y-104482900D01*
X150947625Y-104418129D01*
X150947626Y-104418129D01*
X151223677Y-104233677D01*
X152472511Y-102984842D01*
X152928285Y-102985240D01*
X153437515Y-102774831D01*
X153827461Y-102385564D01*
X154038759Y-101876702D01*
X154039240Y-101325715D01*
X154039240Y-108356679D01*
X153895697Y-108415990D01*
X153502371Y-108808630D01*
X153289243Y-109321900D01*
X153288758Y-109877661D01*
X153500990Y-110391303D01*
X153893630Y-110784629D01*
X154101512Y-110870949D01*
X153895697Y-110955990D01*
X153502371Y-111348630D01*
X153289243Y-111861900D01*
X153288758Y-112417661D01*
X153500990Y-112931303D01*
X153893630Y-113324629D01*
X154406900Y-113537757D01*
X154962661Y-113538242D01*
X155476303Y-113326010D01*
X155685510Y-113117167D01*
X155892610Y-113324629D01*
X156405880Y-113537757D01*
X156961641Y-113538242D01*
X157475283Y-113326010D01*
X157868609Y-112933370D01*
X158081737Y-112420100D01*
X158082222Y-111864339D01*
X158082222Y-112748423D01*
X155730545Y-115100100D01*
X151602563Y-115100100D01*
X151280564Y-114777539D01*
X150771702Y-114566241D01*
X150220715Y-114565760D01*
X149711485Y-114776169D01*
X149321539Y-115165436D01*
X149110241Y-115674298D01*
X149109760Y-116225285D01*
X149320169Y-116734515D01*
X149709436Y-117124461D01*
X150218298Y-117335759D01*
X150769285Y-117336240D01*
X151278515Y-117125831D01*
X151603011Y-116801900D01*
X156083000Y-116801900D01*
X156408625Y-116737129D01*
X156408626Y-116737129D01*
X156684677Y-116552677D01*
X167987677Y-105249677D01*
X168172129Y-104973625D01*
X168236900Y-104648000D01*
X168236900Y-103723563D01*
X168559461Y-103401564D01*
X168770759Y-102892702D01*
X168771240Y-102341715D01*
X168771240Y-135230000D01*
X166919821Y-135230000D01*
X166919821Y-130447794D01*
X166542240Y-129533979D01*
X166015429Y-129006247D01*
X166015429Y-124263000D01*
X166015429Y-120293000D01*
X161370354Y-120293000D01*
X161370354Y-116477369D01*
X161068791Y-115747531D01*
X160510886Y-115188651D01*
X159781575Y-114885815D01*
X158991889Y-114885126D01*
X158262051Y-115186689D01*
X157703171Y-115744594D01*
X157400335Y-116473905D01*
X157399646Y-117263591D01*
X157701209Y-117993429D01*
X158259114Y-118552309D01*
X158988425Y-118855145D01*
X159778111Y-118855834D01*
X160507949Y-118554271D01*
X161066829Y-117996366D01*
X161369665Y-117267055D01*
X161370354Y-116477369D01*
X161370354Y-120293000D01*
X155802571Y-120293000D01*
X155802571Y-124263000D01*
X166015429Y-124263000D01*
X166015429Y-129006247D01*
X165843699Y-128834217D01*
X164930544Y-128455042D01*
X163941794Y-128454179D01*
X163027979Y-128831760D01*
X162328217Y-129530301D01*
X161949042Y-130443456D01*
X161948179Y-131432206D01*
X162325760Y-132346021D01*
X163024301Y-133045783D01*
X163937456Y-133424958D01*
X164926206Y-133425821D01*
X165840021Y-133048240D01*
X166539783Y-132349699D01*
X166918958Y-131436544D01*
X166919821Y-130447794D01*
X166919821Y-135230000D01*
X148793455Y-135230000D01*
X148793455Y-111849248D01*
X148793455Y-106769248D01*
X148569647Y-106227589D01*
X148155591Y-105812810D01*
X147614323Y-105588056D01*
X147028248Y-105587545D01*
X146486589Y-105811353D01*
X146071810Y-106225409D01*
X146050224Y-106277391D01*
X146029647Y-106227589D01*
X145615591Y-105812810D01*
X145074323Y-105588056D01*
X144488248Y-105587545D01*
X143946589Y-105811353D01*
X143531810Y-106225409D01*
X143307056Y-106766677D01*
X143306545Y-107352752D01*
X143530353Y-107894411D01*
X143944409Y-108309190D01*
X144485677Y-108533944D01*
X145071752Y-108534455D01*
X145613411Y-108310647D01*
X146028190Y-107896591D01*
X146049775Y-107844608D01*
X146070353Y-107894411D01*
X146484409Y-108309190D01*
X147025677Y-108533944D01*
X147611752Y-108534455D01*
X148153411Y-108310647D01*
X148568190Y-107896591D01*
X148792944Y-107355323D01*
X148793455Y-106769248D01*
X148793455Y-111849248D01*
X148569647Y-111307589D01*
X148155591Y-110892810D01*
X147614323Y-110668056D01*
X147028248Y-110667545D01*
X146486589Y-110891353D01*
X146071810Y-111305409D01*
X146050224Y-111357391D01*
X146029647Y-111307589D01*
X145615591Y-110892810D01*
X145074323Y-110668056D01*
X144488248Y-110667545D01*
X143946589Y-110891353D01*
X143531810Y-111305409D01*
X143307056Y-111846677D01*
X143306545Y-112432752D01*
X143530353Y-112974411D01*
X143944409Y-113389190D01*
X144485677Y-113613944D01*
X145071752Y-113614455D01*
X145613411Y-113390647D01*
X146028190Y-112976591D01*
X146049775Y-112924608D01*
X146070353Y-112974411D01*
X146484409Y-113389190D01*
X147025677Y-113613944D01*
X147611752Y-113614455D01*
X148153411Y-113390647D01*
X148568190Y-112976591D01*
X148792944Y-112435323D01*
X148793455Y-111849248D01*
X148793455Y-135230000D01*
X119002959Y-135230000D01*
X119002959Y-130429000D01*
X118888885Y-129855511D01*
X118564029Y-129369330D01*
X118077848Y-129044474D01*
X117504359Y-128930400D01*
X117445641Y-128930400D01*
X116872152Y-129044474D01*
X116385971Y-129369330D01*
X116205000Y-129640172D01*
X116024029Y-129369330D01*
X115537848Y-129044474D01*
X114964359Y-128930400D01*
X114905641Y-128930400D01*
X114332152Y-129044474D01*
X113865470Y-129356300D01*
X113859063Y-129323277D01*
X113719273Y-129110473D01*
X113508240Y-128968023D01*
X113258600Y-128917960D01*
X111531400Y-128917960D01*
X111289277Y-128964937D01*
X111076473Y-129104727D01*
X110934023Y-129315760D01*
X110883960Y-129565400D01*
X110883960Y-131292600D01*
X110930937Y-131534723D01*
X111070727Y-131747527D01*
X111281760Y-131889977D01*
X111322659Y-131898179D01*
X111305971Y-131909330D01*
X110981115Y-132395511D01*
X110867041Y-132969000D01*
X110981115Y-133542489D01*
X111305971Y-134028670D01*
X111792152Y-134353526D01*
X112365641Y-134467600D01*
X112424359Y-134467600D01*
X112997848Y-134353526D01*
X113484029Y-134028670D01*
X113665000Y-133757827D01*
X113845971Y-134028670D01*
X114332152Y-134353526D01*
X114905641Y-134467600D01*
X114964359Y-134467600D01*
X115537848Y-134353526D01*
X116024029Y-134028670D01*
X116204992Y-133757839D01*
X116586510Y-134175821D01*
X117115973Y-134423968D01*
X117348000Y-134303469D01*
X117348000Y-133096000D01*
X117328000Y-133096000D01*
X117328000Y-132842000D01*
X117348000Y-132842000D01*
X117348000Y-132822000D01*
X117602000Y-132822000D01*
X117602000Y-132842000D01*
X118808817Y-132842000D01*
X118929958Y-132609974D01*
X118757688Y-132194053D01*
X118363490Y-131762179D01*
X118240771Y-131704663D01*
X118564029Y-131488670D01*
X118888885Y-131002489D01*
X119002959Y-130429000D01*
X119002959Y-135230000D01*
X118929958Y-135230000D01*
X118929958Y-133328026D01*
X118808817Y-133096000D01*
X117602000Y-133096000D01*
X117602000Y-134303469D01*
X117834027Y-134423968D01*
X118363490Y-134175821D01*
X118757688Y-133743947D01*
X118929958Y-133328026D01*
X118929958Y-135230000D01*
X100139731Y-135230000D01*
X100139731Y-132831914D01*
X100139731Y-125211914D01*
X99937146Y-124721620D01*
X99562353Y-124346173D01*
X99072413Y-124142732D01*
X99008927Y-124142676D01*
X99008927Y-122366520D01*
X98996731Y-122142035D01*
X98996731Y-116829914D01*
X98794146Y-116339620D01*
X98419353Y-115964173D01*
X97929413Y-115760732D01*
X97398914Y-115760269D01*
X96908620Y-115962854D01*
X96533173Y-116337647D01*
X96329732Y-116827587D01*
X96329269Y-117358086D01*
X96531854Y-117848380D01*
X96906647Y-118223827D01*
X97396587Y-118427268D01*
X97927086Y-118427731D01*
X98417380Y-118225146D01*
X98792827Y-117850353D01*
X98996268Y-117360413D01*
X98996731Y-116829914D01*
X98996731Y-122142035D01*
X98980148Y-121836801D01*
X98832800Y-121481071D01*
X98597188Y-121419417D01*
X98417583Y-121599022D01*
X98417583Y-121239812D01*
X98355929Y-121004200D01*
X97855520Y-120828073D01*
X97325801Y-120856852D01*
X96970071Y-121004200D01*
X96908417Y-121239812D01*
X97663000Y-121994395D01*
X98417583Y-121239812D01*
X98417583Y-121599022D01*
X97842605Y-122174000D01*
X98597188Y-122928583D01*
X98832800Y-122866929D01*
X99008927Y-122366520D01*
X99008927Y-124142676D01*
X98541914Y-124142269D01*
X98417583Y-124193641D01*
X98417583Y-123108188D01*
X97663000Y-122353605D01*
X97483395Y-122533210D01*
X97483395Y-122174000D01*
X96728812Y-121419417D01*
X96493200Y-121481071D01*
X96317073Y-121981480D01*
X96345852Y-122511199D01*
X96493200Y-122866929D01*
X96728812Y-122928583D01*
X97483395Y-122174000D01*
X97483395Y-122533210D01*
X96908417Y-123108188D01*
X96970071Y-123343800D01*
X97470480Y-123519927D01*
X98000199Y-123491148D01*
X98355929Y-123343800D01*
X98417583Y-123108188D01*
X98417583Y-124193641D01*
X98051620Y-124344854D01*
X97676173Y-124719647D01*
X97472732Y-125209587D01*
X97472269Y-125740086D01*
X97674854Y-126230380D01*
X98049647Y-126605827D01*
X98539587Y-126809268D01*
X99070086Y-126809731D01*
X99560380Y-126607146D01*
X99935827Y-126232353D01*
X100139268Y-125742413D01*
X100139731Y-125211914D01*
X100139731Y-132831914D01*
X99937146Y-132341620D01*
X99562353Y-131966173D01*
X99072413Y-131762732D01*
X98541914Y-131762269D01*
X98051620Y-131964854D01*
X97676173Y-132339647D01*
X97472732Y-132829587D01*
X97472269Y-133360086D01*
X97674854Y-133850380D01*
X98049647Y-134225827D01*
X98539587Y-134429268D01*
X99070086Y-134429731D01*
X99560380Y-134227146D01*
X99935827Y-133852353D01*
X100139268Y-133362413D01*
X100139731Y-132831914D01*
X100139731Y-135230000D01*
X95071927Y-135230000D01*
X95071927Y-133288520D01*
X95071927Y-125668520D01*
X95043148Y-125138801D01*
X94895800Y-124783071D01*
X94660188Y-124721417D01*
X94640464Y-124741141D01*
X94640464Y-113538000D01*
X94534800Y-113006793D01*
X94233896Y-112556458D01*
X93802187Y-112268000D01*
X94233896Y-111979542D01*
X94534800Y-111529207D01*
X94640464Y-110998000D01*
X94534800Y-110466793D01*
X94233896Y-110016458D01*
X93802187Y-109728000D01*
X94233896Y-109439542D01*
X94534800Y-108989207D01*
X94640464Y-108458000D01*
X94640464Y-102997000D01*
X94534800Y-102465793D01*
X94233896Y-102015458D01*
X93802187Y-101727000D01*
X94233896Y-101438542D01*
X94534800Y-100988207D01*
X94640464Y-100457000D01*
X94534800Y-99925793D01*
X94233896Y-99475458D01*
X93802187Y-99187000D01*
X94233896Y-98898542D01*
X94534800Y-98448207D01*
X94640464Y-97917000D01*
X94534800Y-97385793D01*
X94513464Y-97353861D01*
X94513464Y-93218000D01*
X94407800Y-92686793D01*
X94106896Y-92236458D01*
X93675187Y-91948000D01*
X94106896Y-91659542D01*
X94407800Y-91209207D01*
X94513464Y-90678000D01*
X94407800Y-90146793D01*
X94106896Y-89696458D01*
X93656561Y-89395554D01*
X93125354Y-89289890D01*
X91532646Y-89289890D01*
X91001439Y-89395554D01*
X90551104Y-89696458D01*
X90250200Y-90146793D01*
X90144536Y-90678000D01*
X90250200Y-91209207D01*
X90551104Y-91659542D01*
X90982812Y-91948000D01*
X90551104Y-92236458D01*
X90250200Y-92686793D01*
X90144536Y-93218000D01*
X90250200Y-93749207D01*
X90551104Y-94199542D01*
X91001439Y-94500446D01*
X91532646Y-94606110D01*
X93125354Y-94606110D01*
X93656561Y-94500446D01*
X94106896Y-94199542D01*
X94407800Y-93749207D01*
X94513464Y-93218000D01*
X94513464Y-97353861D01*
X94233896Y-96935458D01*
X93783561Y-96634554D01*
X93252354Y-96528890D01*
X91659646Y-96528890D01*
X91128439Y-96634554D01*
X90678104Y-96935458D01*
X90377200Y-97385793D01*
X90271536Y-97917000D01*
X90377200Y-98448207D01*
X90678104Y-98898542D01*
X91109812Y-99187000D01*
X90678104Y-99475458D01*
X90377200Y-99925793D01*
X90271536Y-100457000D01*
X90377200Y-100988207D01*
X90678104Y-101438542D01*
X91109812Y-101727000D01*
X90678104Y-102015458D01*
X90377200Y-102465793D01*
X90271536Y-102997000D01*
X90377200Y-103528207D01*
X90678104Y-103978542D01*
X91128439Y-104279446D01*
X91659646Y-104385110D01*
X93252354Y-104385110D01*
X93783561Y-104279446D01*
X94233896Y-103978542D01*
X94534800Y-103528207D01*
X94640464Y-102997000D01*
X94640464Y-108458000D01*
X94534800Y-107926793D01*
X94233896Y-107476458D01*
X93783561Y-107175554D01*
X93252354Y-107069890D01*
X91659646Y-107069890D01*
X91128439Y-107175554D01*
X90678104Y-107476458D01*
X90377200Y-107926793D01*
X90271536Y-108458000D01*
X90377200Y-108989207D01*
X90678104Y-109439542D01*
X91109812Y-109728000D01*
X90678104Y-110016458D01*
X90377200Y-110466793D01*
X90271536Y-110998000D01*
X90377200Y-111529207D01*
X90678104Y-111979542D01*
X91109812Y-112268000D01*
X90678104Y-112556458D01*
X90377200Y-113006793D01*
X90271536Y-113538000D01*
X90377200Y-114069207D01*
X90678104Y-114519542D01*
X91128439Y-114820446D01*
X91659646Y-114926110D01*
X93252354Y-114926110D01*
X93783561Y-114820446D01*
X94233896Y-114519542D01*
X94534800Y-114069207D01*
X94640464Y-113538000D01*
X94640464Y-124741141D01*
X94480583Y-124901022D01*
X94480583Y-124541812D01*
X94418929Y-124306200D01*
X93918520Y-124130073D01*
X93388801Y-124158852D01*
X93033071Y-124306200D01*
X92971417Y-124541812D01*
X93726000Y-125296395D01*
X94480583Y-124541812D01*
X94480583Y-124901022D01*
X93905605Y-125476000D01*
X94660188Y-126230583D01*
X94895800Y-126168929D01*
X95071927Y-125668520D01*
X95071927Y-133288520D01*
X95043148Y-132758801D01*
X94895800Y-132403071D01*
X94660188Y-132341417D01*
X94480583Y-132521022D01*
X94480583Y-132161812D01*
X94480583Y-126410188D01*
X93726000Y-125655605D01*
X93546395Y-125835210D01*
X93546395Y-125476000D01*
X92791812Y-124721417D01*
X92556200Y-124783071D01*
X92380073Y-125283480D01*
X92408852Y-125813199D01*
X92556200Y-126168929D01*
X92791812Y-126230583D01*
X93546395Y-125476000D01*
X93546395Y-125835210D01*
X92971417Y-126410188D01*
X93033071Y-126645800D01*
X93533480Y-126821927D01*
X94063199Y-126793148D01*
X94418929Y-126645800D01*
X94480583Y-126410188D01*
X94480583Y-132161812D01*
X94418929Y-131926200D01*
X93918520Y-131750073D01*
X93388801Y-131778852D01*
X93033071Y-131926200D01*
X92971417Y-132161812D01*
X93726000Y-132916395D01*
X94480583Y-132161812D01*
X94480583Y-132521022D01*
X93905605Y-133096000D01*
X94660188Y-133850583D01*
X94895800Y-133788929D01*
X95071927Y-133288520D01*
X95071927Y-135230000D01*
X94480583Y-135230000D01*
X94480583Y-134030188D01*
X93726000Y-133275605D01*
X93546395Y-133455210D01*
X93546395Y-133096000D01*
X92791812Y-132341417D01*
X92556200Y-132403071D01*
X92380073Y-132903480D01*
X92408852Y-133433199D01*
X92556200Y-133788929D01*
X92791812Y-133850583D01*
X93546395Y-133096000D01*
X93546395Y-133455210D01*
X92971417Y-134030188D01*
X93033071Y-134265800D01*
X93533480Y-134441927D01*
X94063199Y-134413148D01*
X94418929Y-134265800D01*
X94480583Y-134030188D01*
X94480583Y-135230000D01*
X91388927Y-135230000D01*
X91388927Y-122366520D01*
X91376731Y-122142035D01*
X91376731Y-116829914D01*
X91174146Y-116339620D01*
X90799353Y-115964173D01*
X90309413Y-115760732D01*
X89778914Y-115760269D01*
X89288620Y-115962854D01*
X88913173Y-116337647D01*
X88709732Y-116827587D01*
X88709269Y-117358086D01*
X88911854Y-117848380D01*
X89286647Y-118223827D01*
X89776587Y-118427268D01*
X90307086Y-118427731D01*
X90797380Y-118225146D01*
X91172827Y-117850353D01*
X91376268Y-117360413D01*
X91376731Y-116829914D01*
X91376731Y-122142035D01*
X91360148Y-121836801D01*
X91212800Y-121481071D01*
X90977188Y-121419417D01*
X90797583Y-121599022D01*
X90797583Y-121239812D01*
X90735929Y-121004200D01*
X90235520Y-120828073D01*
X89705801Y-120856852D01*
X89350071Y-121004200D01*
X89288417Y-121239812D01*
X90043000Y-121994395D01*
X90797583Y-121239812D01*
X90797583Y-121599022D01*
X90222605Y-122174000D01*
X90977188Y-122928583D01*
X91212800Y-122866929D01*
X91388927Y-122366520D01*
X91388927Y-135230000D01*
X90797583Y-135230000D01*
X90797583Y-123108188D01*
X90043000Y-122353605D01*
X89863395Y-122533210D01*
X89863395Y-122174000D01*
X89108812Y-121419417D01*
X88873200Y-121481071D01*
X88697073Y-121981480D01*
X88725852Y-122511199D01*
X88873200Y-122866929D01*
X89108812Y-122928583D01*
X89863395Y-122174000D01*
X89863395Y-122533210D01*
X89288417Y-123108188D01*
X89350071Y-123343800D01*
X89850480Y-123519927D01*
X90380199Y-123491148D01*
X90735929Y-123343800D01*
X90797583Y-123108188D01*
X90797583Y-135230000D01*
X77919821Y-135230000D01*
X77919821Y-130447794D01*
X77919821Y-41447794D01*
X77542240Y-40533979D01*
X76843699Y-39834217D01*
X75930544Y-39455042D01*
X74941794Y-39454179D01*
X74027979Y-39831760D01*
X73328217Y-40530301D01*
X72949042Y-41443456D01*
X72948179Y-42432206D01*
X73325760Y-43346021D01*
X74024301Y-44045783D01*
X74937456Y-44424958D01*
X75926206Y-44425821D01*
X76840021Y-44048240D01*
X77539783Y-43349699D01*
X77918958Y-42436544D01*
X77919821Y-41447794D01*
X77919821Y-130447794D01*
X77542240Y-129533979D01*
X76843699Y-128834217D01*
X75930544Y-128455042D01*
X74941794Y-128454179D01*
X74027979Y-128831760D01*
X73328217Y-129530301D01*
X72949042Y-130443456D01*
X72948179Y-131432206D01*
X73325760Y-132346021D01*
X74024301Y-133045783D01*
X74937456Y-133424958D01*
X75926206Y-133425821D01*
X76840021Y-133048240D01*
X77539783Y-132349699D01*
X77918958Y-131436544D01*
X77919821Y-130447794D01*
X77919821Y-135230000D01*
X70644000Y-135230000D01*
X70644000Y-36650000D01*
X169224000Y-36650000D01*
X169224000Y-135230000D01*
M02*
