%FSLAX45Y45*%
G04 Gerber Fmt 4.5, Leading zero omitted, Abs format (unit mm)*
G04 Created by KiCad (PCBNEW (2014-12-16 BZR 5324)-product) date Di 27 Jan 2015 01:22:38 CET*
%MOMM*%
G01*
G04 APERTURE LIST*
%ADD10C,0.127000*%
%ADD11C,0.150000*%
%ADD12C,0.200000*%
%ADD13C,0.300000*%
G04 APERTURE END LIST*
D10*
D11*
X16993400Y-3594000D02*
X6993400Y-3594000D01*
X16993400Y-13594000D02*
X16993400Y-3594000D01*
X6993400Y-13594000D02*
X16993400Y-13594000D01*
X6993400Y-3594000D02*
X6993400Y-13594000D01*
D12*
X13104495Y-7364095D02*
X13184505Y-7444105D01*
X13184505Y-7364095D02*
X13104495Y-7444105D01*
X13612495Y-7364095D02*
X13692505Y-7444105D01*
X13692505Y-7364095D02*
X13612495Y-7444105D01*
X16703395Y-8603995D02*
X16783405Y-8684005D01*
X16783405Y-8603995D02*
X16703395Y-8684005D01*
X8168640Y-4826000D02*
G75*
G03X8168640Y-4826000I-40640J0D01*
G01*
X8168640Y-5080000D02*
G75*
G03X8168640Y-5080000I-40640J0D01*
G01*
X8168640Y-5334000D02*
G75*
G03X8168640Y-5334000I-40640J0D01*
G01*
X8168640Y-5588000D02*
G75*
G03X8168640Y-5588000I-40640J0D01*
G01*
X8168640Y-6223000D02*
G75*
G03X8168640Y-6223000I-40640J0D01*
G01*
X8168640Y-6477000D02*
G75*
G03X8168640Y-6477000I-40640J0D01*
G01*
X8168640Y-6731000D02*
G75*
G03X8168640Y-6731000I-40640J0D01*
G01*
X8168640Y-6985000D02*
G75*
G03X8168640Y-6985000I-40640J0D01*
G01*
X9044940Y-11709400D02*
G75*
G03X9044940Y-11709400I-40640J0D01*
G01*
X9044940Y-12217400D02*
G75*
G03X9044940Y-12217400I-40640J0D01*
G01*
X9413240Y-12547600D02*
G75*
G03X9413240Y-12547600I-40640J0D01*
G01*
X9413240Y-13309600D02*
G75*
G03X9413240Y-13309600I-40640J0D01*
G01*
X9806940Y-11709400D02*
G75*
G03X9806940Y-11709400I-40640J0D01*
G01*
X9806940Y-12217400D02*
G75*
G03X9806940Y-12217400I-40640J0D01*
G01*
X9921240Y-12547600D02*
G75*
G03X9921240Y-12547600I-40640J0D01*
G01*
X9921240Y-13309600D02*
G75*
G03X9921240Y-13309600I-40640J0D01*
G01*
X10111740Y-9207500D02*
G75*
G03X10111740Y-9207500I-40640J0D01*
G01*
X10365740Y-9207500D02*
G75*
G03X10365740Y-9207500I-40640J0D01*
G01*
X10619740Y-9207500D02*
G75*
G03X10619740Y-9207500I-40640J0D01*
G01*
X10645140Y-11950700D02*
G75*
G03X10645140Y-11950700I-40640J0D01*
G01*
X10645140Y-12204700D02*
G75*
G03X10645140Y-12204700I-40640J0D01*
G01*
X10873740Y-9207500D02*
G75*
G03X10873740Y-9207500I-40640J0D01*
G01*
X11127740Y-9207500D02*
G75*
G03X11127740Y-9207500I-40640J0D01*
G01*
X11165840Y-11950700D02*
G75*
G03X11165840Y-11950700I-40640J0D01*
G01*
X11165840Y-12204700D02*
G75*
G03X11165840Y-12204700I-40640J0D01*
G01*
X11369040Y-8356600D02*
G75*
G03X11369040Y-8356600I-40640J0D01*
G01*
X11369040Y-8610600D02*
G75*
G03X11369040Y-8610600I-40640J0D01*
G01*
X11381740Y-9207500D02*
G75*
G03X11381740Y-9207500I-40640J0D01*
G01*
X11635740Y-9207500D02*
G75*
G03X11635740Y-9207500I-40640J0D01*
G01*
X11889740Y-9207500D02*
G75*
G03X11889740Y-9207500I-40640J0D01*
G01*
X12524740Y-8483600D02*
G75*
G03X12524740Y-8483600I-40640J0D01*
G01*
X12778740Y-8483600D02*
G75*
G03X12778740Y-8483600I-40640J0D01*
G01*
X14518640Y-10706100D02*
G75*
G03X14518640Y-10706100I-40640J0D01*
G01*
X14518640Y-11214100D02*
G75*
G03X14518640Y-11214100I-40640J0D01*
G01*
X14772640Y-10706100D02*
G75*
G03X14772640Y-10706100I-40640J0D01*
G01*
X14772640Y-11214100D02*
G75*
G03X14772640Y-11214100I-40640J0D01*
G01*
X15509240Y-10960100D02*
G75*
G03X15509240Y-10960100I-40640J0D01*
G01*
X15509240Y-11214100D02*
G75*
G03X15509240Y-11214100I-40640J0D01*
G01*
X15709138Y-10960100D02*
G75*
G03X15709138Y-10960100I-40640J0D01*
G01*
X15709138Y-11214100D02*
G75*
G03X15709138Y-11214100I-40640J0D01*
G01*
X16784040Y-9267000D02*
G75*
G03X16784040Y-9267000I-40640J0D01*
G01*
X16784040Y-9521000D02*
G75*
G03X16784040Y-9521000I-40640J0D01*
G01*
X8115300Y-7613100D02*
X8115300Y-7703100D01*
X8070300Y-7658100D02*
X8160300Y-7658100D01*
X8966200Y-7816300D02*
X8966200Y-7906300D01*
X8921200Y-7861300D02*
X9011200Y-7861300D01*
X10261600Y-7841700D02*
X10261600Y-7931700D01*
X10216600Y-7886700D02*
X10306600Y-7886700D01*
X10274300Y-6647900D02*
X10274300Y-6737900D01*
X10229300Y-6692900D02*
X10319300Y-6692900D01*
X10426700Y-5250900D02*
X10426700Y-5340900D01*
X10381700Y-5295900D02*
X10471700Y-5295900D01*
X10426700Y-6419300D02*
X10426700Y-6509300D01*
X10381700Y-6464300D02*
X10471700Y-6464300D01*
X10426700Y-7067000D02*
X10426700Y-7157000D01*
X10381700Y-7112000D02*
X10471700Y-7112000D01*
X10553700Y-11486600D02*
X10553700Y-11576600D01*
X10508700Y-11531600D02*
X10598700Y-11531600D01*
X10655300Y-9899100D02*
X10655300Y-9989100D01*
X10610300Y-9944100D02*
X10700300Y-9944100D01*
X11417300Y-11867600D02*
X11417300Y-11957600D01*
X11372300Y-11912600D02*
X11462300Y-11912600D01*
X11518900Y-8171900D02*
X11518900Y-8261900D01*
X11473900Y-8216900D02*
X11563900Y-8216900D01*
X11531600Y-6647900D02*
X11531600Y-6737900D01*
X11486600Y-6692900D02*
X11576600Y-6692900D01*
X11569700Y-7829000D02*
X11569700Y-7919000D01*
X11524700Y-7874000D02*
X11614700Y-7874000D01*
X11620500Y-9949900D02*
X11620500Y-10039900D01*
X11575500Y-9994900D02*
X11665500Y-9994900D01*
X11633200Y-11791400D02*
X11633200Y-11881400D01*
X11588200Y-11836400D02*
X11678200Y-11836400D01*
X11696700Y-5250900D02*
X11696700Y-5340900D01*
X11651700Y-5295900D02*
X11741700Y-5295900D01*
X11696700Y-6419300D02*
X11696700Y-6509300D01*
X11651700Y-6464300D02*
X11741700Y-6464300D01*
X11696700Y-7067000D02*
X11696700Y-7157000D01*
X11651700Y-7112000D02*
X11741700Y-7112000D01*
X12103100Y-11867600D02*
X12103100Y-11957600D01*
X12058100Y-11912600D02*
X12148100Y-11912600D01*
X12230100Y-9708600D02*
X12230100Y-9798600D01*
X12185100Y-9753600D02*
X12275100Y-9753600D01*
X12268200Y-9454600D02*
X12268200Y-9544600D01*
X12223200Y-9499600D02*
X12313200Y-9499600D01*
X12522200Y-10648400D02*
X12522200Y-10738400D01*
X12477200Y-10693400D02*
X12567200Y-10693400D01*
X12560300Y-9911800D02*
X12560300Y-10001800D01*
X12515300Y-9956800D02*
X12605300Y-9956800D01*
X12560300Y-11270700D02*
X12560300Y-11360700D01*
X12515300Y-11315700D02*
X12605300Y-11315700D01*
X12763500Y-11131000D02*
X12763500Y-11221000D01*
X12718500Y-11176000D02*
X12808500Y-11176000D01*
X12776200Y-6647900D02*
X12776200Y-6737900D01*
X12731200Y-6692900D02*
X12821200Y-6692900D01*
X12890500Y-5250900D02*
X12890500Y-5340900D01*
X12845500Y-5295900D02*
X12935500Y-5295900D01*
X12890500Y-6419300D02*
X12890500Y-6509300D01*
X12845500Y-6464300D02*
X12935500Y-6464300D01*
X12890500Y-7067000D02*
X12890500Y-7157000D01*
X12845500Y-7112000D02*
X12935500Y-7112000D01*
X13144500Y-9695900D02*
X13144500Y-9785900D01*
X13099500Y-9740900D02*
X13189500Y-9740900D01*
X13144500Y-9924500D02*
X13144500Y-10014500D01*
X13099500Y-9969500D02*
X13189500Y-9969500D01*
X13144500Y-10153100D02*
X13144500Y-10243100D01*
X13099500Y-10198100D02*
X13189500Y-10198100D01*
X13220700Y-10648400D02*
X13220700Y-10738400D01*
X13175700Y-10693400D02*
X13265700Y-10693400D01*
X14020800Y-6914600D02*
X14020800Y-7004600D01*
X13975800Y-6959600D02*
X14065800Y-6959600D01*
X14046200Y-10483300D02*
X14046200Y-10573300D01*
X14001200Y-10528300D02*
X14091200Y-10528300D01*
X14185900Y-6482800D02*
X14185900Y-6572800D01*
X14140900Y-6527800D02*
X14230900Y-6527800D01*
X14503400Y-11537400D02*
X14503400Y-11627400D01*
X14458400Y-11582400D02*
X14548400Y-11582400D01*
X15049500Y-11550100D02*
X15049500Y-11640100D01*
X15004500Y-11595100D02*
X15094500Y-11595100D01*
X15265400Y-10115000D02*
X15265400Y-10205000D01*
X15220400Y-10160000D02*
X15310400Y-10160000D01*
X16738600Y-10216600D02*
X16738600Y-10306600D01*
X16693600Y-10261600D02*
X16783600Y-10261600D01*
X9268193Y-8455393D02*
X9268193Y-8384807D01*
X9197607Y-8384807D01*
X9197607Y-8455393D01*
X9268193Y-8455393D01*
X9268193Y-9103093D02*
X9268193Y-9032507D01*
X9197607Y-9032507D01*
X9197607Y-9103093D01*
X9268193Y-9103093D01*
X9268193Y-9357093D02*
X9268193Y-9286507D01*
X9197607Y-9286507D01*
X9197607Y-9357093D01*
X9268193Y-9357093D01*
X9280893Y-9826993D02*
X9280893Y-9756407D01*
X9210307Y-9756407D01*
X9210307Y-9826993D01*
X9280893Y-9826993D01*
X9280893Y-10080993D02*
X9280893Y-10010407D01*
X9210307Y-10010407D01*
X9210307Y-10080993D01*
X9280893Y-10080993D01*
X9280893Y-10334993D02*
X9280893Y-10264407D01*
X9210307Y-10264407D01*
X9210307Y-10334993D01*
X9280893Y-10334993D01*
X9280893Y-10881093D02*
X9280893Y-10810507D01*
X9210307Y-10810507D01*
X9210307Y-10881093D01*
X9280893Y-10881093D01*
X9280893Y-11135093D02*
X9280893Y-11064507D01*
X9210307Y-11064507D01*
X9210307Y-11135093D01*
X9280893Y-11135093D01*
X9280893Y-11389093D02*
X9280893Y-11318507D01*
X9210307Y-11318507D01*
X9210307Y-11389093D01*
X9280893Y-11389093D01*
X9522193Y-8455393D02*
X9522193Y-8384807D01*
X9451607Y-8384807D01*
X9451607Y-8455393D01*
X9522193Y-8455393D01*
X9776193Y-8455393D02*
X9776193Y-8384807D01*
X9705607Y-8384807D01*
X9705607Y-8455393D01*
X9776193Y-8455393D01*
X10030193Y-8455393D02*
X10030193Y-8384807D01*
X9959607Y-8384807D01*
X9959607Y-8455393D01*
X10030193Y-8455393D01*
X10284193Y-8455393D02*
X10284193Y-8384807D01*
X10213607Y-8384807D01*
X10213607Y-8455393D01*
X10284193Y-8455393D01*
X10538193Y-8455393D02*
X10538193Y-8384807D01*
X10467607Y-8384807D01*
X10467607Y-8455393D01*
X10538193Y-8455393D01*
X16481793Y-6931393D02*
X16481793Y-6860807D01*
X16411207Y-6860807D01*
X16411207Y-6931393D01*
X16481793Y-6931393D01*
X16481793Y-7185393D02*
X16481793Y-7114807D01*
X16411207Y-7114807D01*
X16411207Y-7185393D01*
X16481793Y-7185393D01*
X11239500Y-13093700D02*
X11290300Y-13042900D01*
X11239500Y-12992100D01*
X11188700Y-13042900D01*
X11239500Y-13093700D01*
X11239500Y-13347700D02*
X11290300Y-13296900D01*
X11239500Y-13246100D01*
X11188700Y-13296900D01*
X11239500Y-13347700D01*
X11493500Y-13093700D02*
X11544300Y-13042900D01*
X11493500Y-12992100D01*
X11442700Y-13042900D01*
X11493500Y-13093700D01*
X11493500Y-13347700D02*
X11544300Y-13296900D01*
X11493500Y-13246100D01*
X11442700Y-13296900D01*
X11493500Y-13347700D01*
X11747500Y-13093700D02*
X11798300Y-13042900D01*
X11747500Y-12992100D01*
X11696700Y-13042900D01*
X11747500Y-13093700D01*
X11747500Y-13347700D02*
X11798300Y-13296900D01*
X11747500Y-13246100D01*
X11696700Y-13296900D01*
X11747500Y-13347700D01*
X14720443Y-6863969D02*
X14870557Y-7014083D01*
X14870557Y-6863969D02*
X14720443Y-7014083D01*
X14870557Y-6939026D02*
G75*
G03X14870557Y-6939026I-75057J0D01*
G01*
X14720443Y-9064117D02*
X14870557Y-9214231D01*
X14870557Y-9064117D02*
X14720443Y-9214231D01*
X14870557Y-9139174D02*
G75*
G03X14870557Y-9139174I-75057J0D01*
G01*
X15823438Y-10372090D02*
X16053562Y-10602214D01*
X16053562Y-10372090D02*
X15823438Y-10602214D01*
X15938500Y-10372090D02*
X15938500Y-10602214D01*
X15823438Y-10487152D02*
X16053562Y-10487152D01*
X15823438Y-11571986D02*
X16053562Y-11802110D01*
X16053562Y-11571986D02*
X15823438Y-11802110D01*
X15938500Y-11571986D02*
X15938500Y-11802110D01*
X15823438Y-11687048D02*
X16053562Y-11687048D01*
X7358361Y-4008961D02*
X7728439Y-4379039D01*
X7728439Y-4008961D02*
X7358361Y-4379039D01*
X7674244Y-4324844D02*
X7674244Y-4063156D01*
X7412556Y-4063156D01*
X7412556Y-4324844D01*
X7674244Y-4324844D01*
X7358361Y-12908961D02*
X7728439Y-13279039D01*
X7728439Y-12908961D02*
X7358361Y-13279039D01*
X7674244Y-13224844D02*
X7674244Y-12963156D01*
X7412556Y-12963156D01*
X7412556Y-13224844D01*
X7674244Y-13224844D01*
X16258361Y-4008961D02*
X16628439Y-4379039D01*
X16628439Y-4008961D02*
X16258361Y-4379039D01*
X16574244Y-4324844D02*
X16574244Y-4063156D01*
X16312556Y-4063156D01*
X16312556Y-4324844D01*
X16574244Y-4324844D01*
X16258361Y-12908961D02*
X16628439Y-13279039D01*
X16628439Y-12908961D02*
X16258361Y-13279039D01*
X16574244Y-13224844D02*
X16574244Y-12963156D01*
X16312556Y-12963156D01*
X16312556Y-13224844D01*
X16574244Y-13224844D01*
D13*
X7257328Y-14067214D02*
X7257328Y-13767214D01*
X7328757Y-13767214D01*
X7371614Y-13781500D01*
X7400186Y-13810071D01*
X7414471Y-13838643D01*
X7428757Y-13895786D01*
X7428757Y-13938643D01*
X7414471Y-13995786D01*
X7400186Y-14024357D01*
X7371614Y-14052929D01*
X7328757Y-14067214D01*
X7257328Y-14067214D01*
X7557328Y-14067214D02*
X7557328Y-13867214D01*
X7557328Y-13924357D02*
X7571614Y-13895786D01*
X7585900Y-13881500D01*
X7614471Y-13867214D01*
X7643043Y-13867214D01*
X7743043Y-14067214D02*
X7743043Y-13867214D01*
X7743043Y-13767214D02*
X7728757Y-13781500D01*
X7743043Y-13795786D01*
X7757328Y-13781500D01*
X7743043Y-13767214D01*
X7743043Y-13795786D01*
X7928757Y-14067214D02*
X7900186Y-14052929D01*
X7885900Y-14024357D01*
X7885900Y-13767214D01*
X8085900Y-14067214D02*
X8057328Y-14052929D01*
X8043043Y-14024357D01*
X8043043Y-13767214D01*
X8428757Y-14067214D02*
X8428757Y-13767214D01*
X8528757Y-13981500D01*
X8628757Y-13767214D01*
X8628757Y-14067214D01*
X8900186Y-14067214D02*
X8900186Y-13910071D01*
X8885900Y-13881500D01*
X8857329Y-13867214D01*
X8800186Y-13867214D01*
X8771614Y-13881500D01*
X8900186Y-14052929D02*
X8871614Y-14067214D01*
X8800186Y-14067214D01*
X8771614Y-14052929D01*
X8757329Y-14024357D01*
X8757329Y-13995786D01*
X8771614Y-13967214D01*
X8800186Y-13952929D01*
X8871614Y-13952929D01*
X8900186Y-13938643D01*
X9043043Y-13867214D02*
X9043043Y-14167214D01*
X9043043Y-13881500D02*
X9071614Y-13867214D01*
X9128757Y-13867214D01*
X9157329Y-13881500D01*
X9171614Y-13895786D01*
X9185900Y-13924357D01*
X9185900Y-14010071D01*
X9171614Y-14038643D01*
X9157329Y-14052929D01*
X9128757Y-14067214D01*
X9071614Y-14067214D01*
X9043043Y-14052929D01*
X9314471Y-14038643D02*
X9328757Y-14052929D01*
X9314471Y-14067214D01*
X9300186Y-14052929D01*
X9314471Y-14038643D01*
X9314471Y-14067214D01*
X9314471Y-13881500D02*
X9328757Y-13895786D01*
X9314471Y-13910071D01*
X9300186Y-13895786D01*
X9314471Y-13881500D01*
X9314471Y-13910071D01*
X6905890Y-14521495D02*
X6985900Y-14601505D01*
X6985900Y-14521495D02*
X6905890Y-14601505D01*
X7314471Y-14397214D02*
X7343043Y-14397214D01*
X7371614Y-14411500D01*
X7385900Y-14425786D01*
X7400186Y-14454357D01*
X7414471Y-14511500D01*
X7414471Y-14582929D01*
X7400186Y-14640071D01*
X7385900Y-14668643D01*
X7371614Y-14682929D01*
X7343043Y-14697214D01*
X7314471Y-14697214D01*
X7285900Y-14682929D01*
X7271614Y-14668643D01*
X7257328Y-14640071D01*
X7243043Y-14582929D01*
X7243043Y-14511500D01*
X7257328Y-14454357D01*
X7271614Y-14425786D01*
X7285900Y-14411500D01*
X7314471Y-14397214D01*
X7543043Y-14668643D02*
X7557328Y-14682929D01*
X7543043Y-14697214D01*
X7528757Y-14682929D01*
X7543043Y-14668643D01*
X7543043Y-14697214D01*
X7728757Y-14525786D02*
X7700186Y-14511500D01*
X7685900Y-14497214D01*
X7671614Y-14468643D01*
X7671614Y-14454357D01*
X7685900Y-14425786D01*
X7700186Y-14411500D01*
X7728757Y-14397214D01*
X7785900Y-14397214D01*
X7814471Y-14411500D01*
X7828757Y-14425786D01*
X7843043Y-14454357D01*
X7843043Y-14468643D01*
X7828757Y-14497214D01*
X7814471Y-14511500D01*
X7785900Y-14525786D01*
X7728757Y-14525786D01*
X7700186Y-14540071D01*
X7685900Y-14554357D01*
X7671614Y-14582929D01*
X7671614Y-14640071D01*
X7685900Y-14668643D01*
X7700186Y-14682929D01*
X7728757Y-14697214D01*
X7785900Y-14697214D01*
X7814471Y-14682929D01*
X7828757Y-14668643D01*
X7843043Y-14640071D01*
X7843043Y-14582929D01*
X7828757Y-14554357D01*
X7814471Y-14540071D01*
X7785900Y-14525786D01*
X8028757Y-14397214D02*
X8057328Y-14397214D01*
X8085900Y-14411500D01*
X8100186Y-14425786D01*
X8114471Y-14454357D01*
X8128757Y-14511500D01*
X8128757Y-14582929D01*
X8114471Y-14640071D01*
X8100186Y-14668643D01*
X8085900Y-14682929D01*
X8057328Y-14697214D01*
X8028757Y-14697214D01*
X8000186Y-14682929D01*
X7985900Y-14668643D01*
X7971614Y-14640071D01*
X7957328Y-14582929D01*
X7957328Y-14511500D01*
X7971614Y-14454357D01*
X7985900Y-14425786D01*
X8000186Y-14411500D01*
X8028757Y-14397214D01*
X8257328Y-14697214D02*
X8257328Y-14497214D01*
X8257328Y-14525786D02*
X8271614Y-14511500D01*
X8300186Y-14497214D01*
X8343043Y-14497214D01*
X8371614Y-14511500D01*
X8385900Y-14540071D01*
X8385900Y-14697214D01*
X8385900Y-14540071D02*
X8400186Y-14511500D01*
X8428757Y-14497214D01*
X8471614Y-14497214D01*
X8500186Y-14511500D01*
X8514471Y-14540071D01*
X8514471Y-14697214D01*
X8657329Y-14697214D02*
X8657329Y-14497214D01*
X8657329Y-14525786D02*
X8671614Y-14511500D01*
X8700186Y-14497214D01*
X8743043Y-14497214D01*
X8771614Y-14511500D01*
X8785900Y-14540071D01*
X8785900Y-14697214D01*
X8785900Y-14540071D02*
X8800186Y-14511500D01*
X8828757Y-14497214D01*
X8871614Y-14497214D01*
X8900186Y-14511500D01*
X8914471Y-14540071D01*
X8914471Y-14697214D01*
X9500186Y-14382929D02*
X9243043Y-14768643D01*
X9885900Y-14397214D02*
X9914471Y-14397214D01*
X9943043Y-14411500D01*
X9957328Y-14425786D01*
X9971614Y-14454357D01*
X9985900Y-14511500D01*
X9985900Y-14582929D01*
X9971614Y-14640071D01*
X9957328Y-14668643D01*
X9943043Y-14682929D01*
X9914471Y-14697214D01*
X9885900Y-14697214D01*
X9857328Y-14682929D01*
X9843043Y-14668643D01*
X9828757Y-14640071D01*
X9814471Y-14582929D01*
X9814471Y-14511500D01*
X9828757Y-14454357D01*
X9843043Y-14425786D01*
X9857328Y-14411500D01*
X9885900Y-14397214D01*
X10114471Y-14668643D02*
X10128757Y-14682929D01*
X10114471Y-14697214D01*
X10100186Y-14682929D01*
X10114471Y-14668643D01*
X10114471Y-14697214D01*
X10314471Y-14397214D02*
X10343043Y-14397214D01*
X10371614Y-14411500D01*
X10385900Y-14425786D01*
X10400186Y-14454357D01*
X10414471Y-14511500D01*
X10414471Y-14582929D01*
X10400186Y-14640071D01*
X10385900Y-14668643D01*
X10371614Y-14682929D01*
X10343043Y-14697214D01*
X10314471Y-14697214D01*
X10285900Y-14682929D01*
X10271614Y-14668643D01*
X10257328Y-14640071D01*
X10243043Y-14582929D01*
X10243043Y-14511500D01*
X10257328Y-14454357D01*
X10271614Y-14425786D01*
X10285900Y-14411500D01*
X10314471Y-14397214D01*
X10514471Y-14397214D02*
X10700186Y-14397214D01*
X10600186Y-14511500D01*
X10643043Y-14511500D01*
X10671614Y-14525786D01*
X10685900Y-14540071D01*
X10700186Y-14568643D01*
X10700186Y-14640071D01*
X10685900Y-14668643D01*
X10671614Y-14682929D01*
X10643043Y-14697214D01*
X10557328Y-14697214D01*
X10528757Y-14682929D01*
X10514471Y-14668643D01*
X10814471Y-14425786D02*
X10828757Y-14411500D01*
X10857328Y-14397214D01*
X10928757Y-14397214D01*
X10957328Y-14411500D01*
X10971614Y-14425786D01*
X10985900Y-14454357D01*
X10985900Y-14482929D01*
X10971614Y-14525786D01*
X10800186Y-14697214D01*
X10985900Y-14697214D01*
X11100186Y-14397214D02*
X11100186Y-14454357D01*
X11214471Y-14397214D02*
X11214471Y-14454357D01*
X11657328Y-14811500D02*
X11643043Y-14797214D01*
X11614471Y-14754357D01*
X11600185Y-14725786D01*
X11585900Y-14682929D01*
X11571614Y-14611500D01*
X11571614Y-14554357D01*
X11585900Y-14482929D01*
X11600185Y-14440071D01*
X11614471Y-14411500D01*
X11643043Y-14368643D01*
X11657328Y-14354357D01*
X11743043Y-14397214D02*
X11928757Y-14397214D01*
X11828757Y-14511500D01*
X11871614Y-14511500D01*
X11900185Y-14525786D01*
X11914471Y-14540071D01*
X11928757Y-14568643D01*
X11928757Y-14640071D01*
X11914471Y-14668643D01*
X11900185Y-14682929D01*
X11871614Y-14697214D01*
X11785900Y-14697214D01*
X11757328Y-14682929D01*
X11743043Y-14668643D01*
X12285900Y-14697214D02*
X12285900Y-14397214D01*
X12414471Y-14697214D02*
X12414471Y-14540071D01*
X12400185Y-14511500D01*
X12371614Y-14497214D01*
X12328757Y-14497214D01*
X12300185Y-14511500D01*
X12285900Y-14525786D01*
X12600185Y-14697214D02*
X12571614Y-14682929D01*
X12557328Y-14668643D01*
X12543043Y-14640071D01*
X12543043Y-14554357D01*
X12557328Y-14525786D01*
X12571614Y-14511500D01*
X12600185Y-14497214D01*
X12643043Y-14497214D01*
X12671614Y-14511500D01*
X12685900Y-14525786D01*
X12700185Y-14554357D01*
X12700185Y-14640071D01*
X12685900Y-14668643D01*
X12671614Y-14682929D01*
X12643043Y-14697214D01*
X12600185Y-14697214D01*
X12871614Y-14697214D02*
X12843043Y-14682929D01*
X12828757Y-14654357D01*
X12828757Y-14397214D01*
X13100186Y-14682929D02*
X13071614Y-14697214D01*
X13014471Y-14697214D01*
X12985900Y-14682929D01*
X12971614Y-14654357D01*
X12971614Y-14540071D01*
X12985900Y-14511500D01*
X13014471Y-14497214D01*
X13071614Y-14497214D01*
X13100186Y-14511500D01*
X13114471Y-14540071D01*
X13114471Y-14568643D01*
X12971614Y-14597214D01*
X13228757Y-14682929D02*
X13257328Y-14697214D01*
X13314471Y-14697214D01*
X13343043Y-14682929D01*
X13357328Y-14654357D01*
X13357328Y-14640071D01*
X13343043Y-14611500D01*
X13314471Y-14597214D01*
X13271614Y-14597214D01*
X13243043Y-14582929D01*
X13228757Y-14554357D01*
X13228757Y-14540071D01*
X13243043Y-14511500D01*
X13271614Y-14497214D01*
X13314471Y-14497214D01*
X13343043Y-14511500D01*
X13457328Y-14811500D02*
X13471614Y-14797214D01*
X13500186Y-14754357D01*
X13514471Y-14725786D01*
X13528757Y-14682929D01*
X13543043Y-14611500D01*
X13543043Y-14554357D01*
X13528757Y-14482929D01*
X13514471Y-14440071D01*
X13500186Y-14411500D01*
X13471614Y-14368643D01*
X13457328Y-14354357D01*
X6985900Y-14957500D02*
G75*
G03X6985900Y-14957500I-40640J0D01*
G01*
X7314471Y-14793214D02*
X7343043Y-14793214D01*
X7371614Y-14807500D01*
X7385900Y-14821786D01*
X7400186Y-14850357D01*
X7414471Y-14907500D01*
X7414471Y-14978929D01*
X7400186Y-15036071D01*
X7385900Y-15064643D01*
X7371614Y-15078929D01*
X7343043Y-15093214D01*
X7314471Y-15093214D01*
X7285900Y-15078929D01*
X7271614Y-15064643D01*
X7257328Y-15036071D01*
X7243043Y-14978929D01*
X7243043Y-14907500D01*
X7257328Y-14850357D01*
X7271614Y-14821786D01*
X7285900Y-14807500D01*
X7314471Y-14793214D01*
X7543043Y-15064643D02*
X7557328Y-15078929D01*
X7543043Y-15093214D01*
X7528757Y-15078929D01*
X7543043Y-15064643D01*
X7543043Y-15093214D01*
X7728757Y-14921786D02*
X7700186Y-14907500D01*
X7685900Y-14893214D01*
X7671614Y-14864643D01*
X7671614Y-14850357D01*
X7685900Y-14821786D01*
X7700186Y-14807500D01*
X7728757Y-14793214D01*
X7785900Y-14793214D01*
X7814471Y-14807500D01*
X7828757Y-14821786D01*
X7843043Y-14850357D01*
X7843043Y-14864643D01*
X7828757Y-14893214D01*
X7814471Y-14907500D01*
X7785900Y-14921786D01*
X7728757Y-14921786D01*
X7700186Y-14936071D01*
X7685900Y-14950357D01*
X7671614Y-14978929D01*
X7671614Y-15036071D01*
X7685900Y-15064643D01*
X7700186Y-15078929D01*
X7728757Y-15093214D01*
X7785900Y-15093214D01*
X7814471Y-15078929D01*
X7828757Y-15064643D01*
X7843043Y-15036071D01*
X7843043Y-14978929D01*
X7828757Y-14950357D01*
X7814471Y-14936071D01*
X7785900Y-14921786D01*
X8128757Y-15093214D02*
X7957328Y-15093214D01*
X8043043Y-15093214D02*
X8043043Y-14793214D01*
X8014471Y-14836071D01*
X7985900Y-14864643D01*
X7957328Y-14878929D01*
X8257328Y-15093214D02*
X8257328Y-14893214D01*
X8257328Y-14921786D02*
X8271614Y-14907500D01*
X8300186Y-14893214D01*
X8343043Y-14893214D01*
X8371614Y-14907500D01*
X8385900Y-14936071D01*
X8385900Y-15093214D01*
X8385900Y-14936071D02*
X8400186Y-14907500D01*
X8428757Y-14893214D01*
X8471614Y-14893214D01*
X8500186Y-14907500D01*
X8514471Y-14936071D01*
X8514471Y-15093214D01*
X8657329Y-15093214D02*
X8657329Y-14893214D01*
X8657329Y-14921786D02*
X8671614Y-14907500D01*
X8700186Y-14893214D01*
X8743043Y-14893214D01*
X8771614Y-14907500D01*
X8785900Y-14936071D01*
X8785900Y-15093214D01*
X8785900Y-14936071D02*
X8800186Y-14907500D01*
X8828757Y-14893214D01*
X8871614Y-14893214D01*
X8900186Y-14907500D01*
X8914471Y-14936071D01*
X8914471Y-15093214D01*
X9500186Y-14778929D02*
X9243043Y-15164643D01*
X9885900Y-14793214D02*
X9914471Y-14793214D01*
X9943043Y-14807500D01*
X9957328Y-14821786D01*
X9971614Y-14850357D01*
X9985900Y-14907500D01*
X9985900Y-14978929D01*
X9971614Y-15036071D01*
X9957328Y-15064643D01*
X9943043Y-15078929D01*
X9914471Y-15093214D01*
X9885900Y-15093214D01*
X9857328Y-15078929D01*
X9843043Y-15064643D01*
X9828757Y-15036071D01*
X9814471Y-14978929D01*
X9814471Y-14907500D01*
X9828757Y-14850357D01*
X9843043Y-14821786D01*
X9857328Y-14807500D01*
X9885900Y-14793214D01*
X10114471Y-15064643D02*
X10128757Y-15078929D01*
X10114471Y-15093214D01*
X10100186Y-15078929D01*
X10114471Y-15064643D01*
X10114471Y-15093214D01*
X10314471Y-14793214D02*
X10343043Y-14793214D01*
X10371614Y-14807500D01*
X10385900Y-14821786D01*
X10400186Y-14850357D01*
X10414471Y-14907500D01*
X10414471Y-14978929D01*
X10400186Y-15036071D01*
X10385900Y-15064643D01*
X10371614Y-15078929D01*
X10343043Y-15093214D01*
X10314471Y-15093214D01*
X10285900Y-15078929D01*
X10271614Y-15064643D01*
X10257328Y-15036071D01*
X10243043Y-14978929D01*
X10243043Y-14907500D01*
X10257328Y-14850357D01*
X10271614Y-14821786D01*
X10285900Y-14807500D01*
X10314471Y-14793214D01*
X10514471Y-14793214D02*
X10700186Y-14793214D01*
X10600186Y-14907500D01*
X10643043Y-14907500D01*
X10671614Y-14921786D01*
X10685900Y-14936071D01*
X10700186Y-14964643D01*
X10700186Y-15036071D01*
X10685900Y-15064643D01*
X10671614Y-15078929D01*
X10643043Y-15093214D01*
X10557328Y-15093214D01*
X10528757Y-15078929D01*
X10514471Y-15064643D01*
X10814471Y-14821786D02*
X10828757Y-14807500D01*
X10857328Y-14793214D01*
X10928757Y-14793214D01*
X10957328Y-14807500D01*
X10971614Y-14821786D01*
X10985900Y-14850357D01*
X10985900Y-14878929D01*
X10971614Y-14921786D01*
X10800186Y-15093214D01*
X10985900Y-15093214D01*
X11100186Y-14793214D02*
X11100186Y-14850357D01*
X11214471Y-14793214D02*
X11214471Y-14850357D01*
X11657328Y-15207500D02*
X11643043Y-15193214D01*
X11614471Y-15150357D01*
X11600185Y-15121786D01*
X11585900Y-15078929D01*
X11571614Y-15007500D01*
X11571614Y-14950357D01*
X11585900Y-14878929D01*
X11600185Y-14836071D01*
X11614471Y-14807500D01*
X11643043Y-14764643D01*
X11657328Y-14750357D01*
X11900185Y-14893214D02*
X11900185Y-15093214D01*
X11828757Y-14778929D02*
X11757328Y-14993214D01*
X11943043Y-14993214D01*
X12043043Y-14821786D02*
X12057328Y-14807500D01*
X12085900Y-14793214D01*
X12157328Y-14793214D01*
X12185900Y-14807500D01*
X12200185Y-14821786D01*
X12214471Y-14850357D01*
X12214471Y-14878929D01*
X12200185Y-14921786D01*
X12028757Y-15093214D01*
X12214471Y-15093214D01*
X12571614Y-15093214D02*
X12571614Y-14793214D01*
X12700185Y-15093214D02*
X12700185Y-14936071D01*
X12685900Y-14907500D01*
X12657328Y-14893214D01*
X12614471Y-14893214D01*
X12585900Y-14907500D01*
X12571614Y-14921786D01*
X12885900Y-15093214D02*
X12857328Y-15078929D01*
X12843043Y-15064643D01*
X12828757Y-15036071D01*
X12828757Y-14950357D01*
X12843043Y-14921786D01*
X12857328Y-14907500D01*
X12885900Y-14893214D01*
X12928757Y-14893214D01*
X12957328Y-14907500D01*
X12971614Y-14921786D01*
X12985900Y-14950357D01*
X12985900Y-15036071D01*
X12971614Y-15064643D01*
X12957328Y-15078929D01*
X12928757Y-15093214D01*
X12885900Y-15093214D01*
X13157328Y-15093214D02*
X13128757Y-15078929D01*
X13114471Y-15050357D01*
X13114471Y-14793214D01*
X13385900Y-15078929D02*
X13357328Y-15093214D01*
X13300186Y-15093214D01*
X13271614Y-15078929D01*
X13257328Y-15050357D01*
X13257328Y-14936071D01*
X13271614Y-14907500D01*
X13300186Y-14893214D01*
X13357328Y-14893214D01*
X13385900Y-14907500D01*
X13400186Y-14936071D01*
X13400186Y-14964643D01*
X13257328Y-14993214D01*
X13514471Y-15078929D02*
X13543043Y-15093214D01*
X13600186Y-15093214D01*
X13628757Y-15078929D01*
X13643043Y-15050357D01*
X13643043Y-15036071D01*
X13628757Y-15007500D01*
X13600186Y-14993214D01*
X13557328Y-14993214D01*
X13528757Y-14978929D01*
X13514471Y-14950357D01*
X13514471Y-14936071D01*
X13528757Y-14907500D01*
X13557328Y-14893214D01*
X13600186Y-14893214D01*
X13628757Y-14907500D01*
X13743043Y-15207500D02*
X13757328Y-15193214D01*
X13785900Y-15150357D01*
X13800186Y-15121786D01*
X13814471Y-15078929D01*
X13828757Y-15007500D01*
X13828757Y-14950357D01*
X13814471Y-14878929D01*
X13800186Y-14836071D01*
X13785900Y-14807500D01*
X13757328Y-14764643D01*
X13743043Y-14750357D01*
X6940900Y-15308500D02*
X6940900Y-15398500D01*
X6895900Y-15353500D02*
X6985900Y-15353500D01*
X7314471Y-15189214D02*
X7343043Y-15189214D01*
X7371614Y-15203500D01*
X7385900Y-15217786D01*
X7400186Y-15246357D01*
X7414471Y-15303500D01*
X7414471Y-15374929D01*
X7400186Y-15432071D01*
X7385900Y-15460643D01*
X7371614Y-15474929D01*
X7343043Y-15489214D01*
X7314471Y-15489214D01*
X7285900Y-15474929D01*
X7271614Y-15460643D01*
X7257328Y-15432071D01*
X7243043Y-15374929D01*
X7243043Y-15303500D01*
X7257328Y-15246357D01*
X7271614Y-15217786D01*
X7285900Y-15203500D01*
X7314471Y-15189214D01*
X7543043Y-15460643D02*
X7557328Y-15474929D01*
X7543043Y-15489214D01*
X7528757Y-15474929D01*
X7543043Y-15460643D01*
X7543043Y-15489214D01*
X7700186Y-15489214D02*
X7757328Y-15489214D01*
X7785900Y-15474929D01*
X7800186Y-15460643D01*
X7828757Y-15417786D01*
X7843043Y-15360643D01*
X7843043Y-15246357D01*
X7828757Y-15217786D01*
X7814471Y-15203500D01*
X7785900Y-15189214D01*
X7728757Y-15189214D01*
X7700186Y-15203500D01*
X7685900Y-15217786D01*
X7671614Y-15246357D01*
X7671614Y-15317786D01*
X7685900Y-15346357D01*
X7700186Y-15360643D01*
X7728757Y-15374929D01*
X7785900Y-15374929D01*
X7814471Y-15360643D01*
X7828757Y-15346357D01*
X7843043Y-15317786D01*
X8028757Y-15189214D02*
X8057328Y-15189214D01*
X8085900Y-15203500D01*
X8100186Y-15217786D01*
X8114471Y-15246357D01*
X8128757Y-15303500D01*
X8128757Y-15374929D01*
X8114471Y-15432071D01*
X8100186Y-15460643D01*
X8085900Y-15474929D01*
X8057328Y-15489214D01*
X8028757Y-15489214D01*
X8000186Y-15474929D01*
X7985900Y-15460643D01*
X7971614Y-15432071D01*
X7957328Y-15374929D01*
X7957328Y-15303500D01*
X7971614Y-15246357D01*
X7985900Y-15217786D01*
X8000186Y-15203500D01*
X8028757Y-15189214D01*
X8257328Y-15489214D02*
X8257328Y-15289214D01*
X8257328Y-15317786D02*
X8271614Y-15303500D01*
X8300186Y-15289214D01*
X8343043Y-15289214D01*
X8371614Y-15303500D01*
X8385900Y-15332071D01*
X8385900Y-15489214D01*
X8385900Y-15332071D02*
X8400186Y-15303500D01*
X8428757Y-15289214D01*
X8471614Y-15289214D01*
X8500186Y-15303500D01*
X8514471Y-15332071D01*
X8514471Y-15489214D01*
X8657329Y-15489214D02*
X8657329Y-15289214D01*
X8657329Y-15317786D02*
X8671614Y-15303500D01*
X8700186Y-15289214D01*
X8743043Y-15289214D01*
X8771614Y-15303500D01*
X8785900Y-15332071D01*
X8785900Y-15489214D01*
X8785900Y-15332071D02*
X8800186Y-15303500D01*
X8828757Y-15289214D01*
X8871614Y-15289214D01*
X8900186Y-15303500D01*
X8914471Y-15332071D01*
X8914471Y-15489214D01*
X9500186Y-15174929D02*
X9243043Y-15560643D01*
X9885900Y-15189214D02*
X9914471Y-15189214D01*
X9943043Y-15203500D01*
X9957328Y-15217786D01*
X9971614Y-15246357D01*
X9985900Y-15303500D01*
X9985900Y-15374929D01*
X9971614Y-15432071D01*
X9957328Y-15460643D01*
X9943043Y-15474929D01*
X9914471Y-15489214D01*
X9885900Y-15489214D01*
X9857328Y-15474929D01*
X9843043Y-15460643D01*
X9828757Y-15432071D01*
X9814471Y-15374929D01*
X9814471Y-15303500D01*
X9828757Y-15246357D01*
X9843043Y-15217786D01*
X9857328Y-15203500D01*
X9885900Y-15189214D01*
X10114471Y-15460643D02*
X10128757Y-15474929D01*
X10114471Y-15489214D01*
X10100186Y-15474929D01*
X10114471Y-15460643D01*
X10114471Y-15489214D01*
X10314471Y-15189214D02*
X10343043Y-15189214D01*
X10371614Y-15203500D01*
X10385900Y-15217786D01*
X10400186Y-15246357D01*
X10414471Y-15303500D01*
X10414471Y-15374929D01*
X10400186Y-15432071D01*
X10385900Y-15460643D01*
X10371614Y-15474929D01*
X10343043Y-15489214D01*
X10314471Y-15489214D01*
X10285900Y-15474929D01*
X10271614Y-15460643D01*
X10257328Y-15432071D01*
X10243043Y-15374929D01*
X10243043Y-15303500D01*
X10257328Y-15246357D01*
X10271614Y-15217786D01*
X10285900Y-15203500D01*
X10314471Y-15189214D01*
X10514471Y-15189214D02*
X10700186Y-15189214D01*
X10600186Y-15303500D01*
X10643043Y-15303500D01*
X10671614Y-15317786D01*
X10685900Y-15332071D01*
X10700186Y-15360643D01*
X10700186Y-15432071D01*
X10685900Y-15460643D01*
X10671614Y-15474929D01*
X10643043Y-15489214D01*
X10557328Y-15489214D01*
X10528757Y-15474929D01*
X10514471Y-15460643D01*
X10971614Y-15189214D02*
X10828757Y-15189214D01*
X10814471Y-15332071D01*
X10828757Y-15317786D01*
X10857328Y-15303500D01*
X10928757Y-15303500D01*
X10957328Y-15317786D01*
X10971614Y-15332071D01*
X10985900Y-15360643D01*
X10985900Y-15432071D01*
X10971614Y-15460643D01*
X10957328Y-15474929D01*
X10928757Y-15489214D01*
X10857328Y-15489214D01*
X10828757Y-15474929D01*
X10814471Y-15460643D01*
X11100186Y-15189214D02*
X11100186Y-15246357D01*
X11214471Y-15189214D02*
X11214471Y-15246357D01*
X11657328Y-15603500D02*
X11643043Y-15589214D01*
X11614471Y-15546357D01*
X11600185Y-15517786D01*
X11585900Y-15474929D01*
X11571614Y-15403500D01*
X11571614Y-15346357D01*
X11585900Y-15274929D01*
X11600185Y-15232071D01*
X11614471Y-15203500D01*
X11643043Y-15160643D01*
X11657328Y-15146357D01*
X11900185Y-15289214D02*
X11900185Y-15489214D01*
X11828757Y-15174929D02*
X11757328Y-15389214D01*
X11943043Y-15389214D01*
X12114471Y-15189214D02*
X12143043Y-15189214D01*
X12171614Y-15203500D01*
X12185900Y-15217786D01*
X12200185Y-15246357D01*
X12214471Y-15303500D01*
X12214471Y-15374929D01*
X12200185Y-15432071D01*
X12185900Y-15460643D01*
X12171614Y-15474929D01*
X12143043Y-15489214D01*
X12114471Y-15489214D01*
X12085900Y-15474929D01*
X12071614Y-15460643D01*
X12057328Y-15432071D01*
X12043043Y-15374929D01*
X12043043Y-15303500D01*
X12057328Y-15246357D01*
X12071614Y-15217786D01*
X12085900Y-15203500D01*
X12114471Y-15189214D01*
X12571614Y-15489214D02*
X12571614Y-15189214D01*
X12700185Y-15489214D02*
X12700185Y-15332071D01*
X12685900Y-15303500D01*
X12657328Y-15289214D01*
X12614471Y-15289214D01*
X12585900Y-15303500D01*
X12571614Y-15317786D01*
X12885900Y-15489214D02*
X12857328Y-15474929D01*
X12843043Y-15460643D01*
X12828757Y-15432071D01*
X12828757Y-15346357D01*
X12843043Y-15317786D01*
X12857328Y-15303500D01*
X12885900Y-15289214D01*
X12928757Y-15289214D01*
X12957328Y-15303500D01*
X12971614Y-15317786D01*
X12985900Y-15346357D01*
X12985900Y-15432071D01*
X12971614Y-15460643D01*
X12957328Y-15474929D01*
X12928757Y-15489214D01*
X12885900Y-15489214D01*
X13157328Y-15489214D02*
X13128757Y-15474929D01*
X13114471Y-15446357D01*
X13114471Y-15189214D01*
X13385900Y-15474929D02*
X13357328Y-15489214D01*
X13300186Y-15489214D01*
X13271614Y-15474929D01*
X13257328Y-15446357D01*
X13257328Y-15332071D01*
X13271614Y-15303500D01*
X13300186Y-15289214D01*
X13357328Y-15289214D01*
X13385900Y-15303500D01*
X13400186Y-15332071D01*
X13400186Y-15360643D01*
X13257328Y-15389214D01*
X13514471Y-15474929D02*
X13543043Y-15489214D01*
X13600186Y-15489214D01*
X13628757Y-15474929D01*
X13643043Y-15446357D01*
X13643043Y-15432071D01*
X13628757Y-15403500D01*
X13600186Y-15389214D01*
X13557328Y-15389214D01*
X13528757Y-15374929D01*
X13514471Y-15346357D01*
X13514471Y-15332071D01*
X13528757Y-15303500D01*
X13557328Y-15289214D01*
X13600186Y-15289214D01*
X13628757Y-15303500D01*
X13743043Y-15603500D02*
X13757328Y-15589214D01*
X13785900Y-15546357D01*
X13800186Y-15517786D01*
X13814471Y-15474929D01*
X13828757Y-15403500D01*
X13828757Y-15346357D01*
X13814471Y-15274929D01*
X13800186Y-15232071D01*
X13785900Y-15203500D01*
X13757328Y-15160643D01*
X13743043Y-15146357D01*
X6971282Y-15784793D02*
X6971282Y-15714207D01*
X6900696Y-15714207D01*
X6900696Y-15784793D01*
X6971282Y-15784793D01*
X7414471Y-15885214D02*
X7243043Y-15885214D01*
X7328757Y-15885214D02*
X7328757Y-15585214D01*
X7300186Y-15628071D01*
X7271614Y-15656643D01*
X7243043Y-15670929D01*
X7543043Y-15856643D02*
X7557328Y-15870929D01*
X7543043Y-15885214D01*
X7528757Y-15870929D01*
X7543043Y-15856643D01*
X7543043Y-15885214D01*
X7743043Y-15585214D02*
X7771614Y-15585214D01*
X7800186Y-15599500D01*
X7814471Y-15613786D01*
X7828757Y-15642357D01*
X7843043Y-15699500D01*
X7843043Y-15770929D01*
X7828757Y-15828071D01*
X7814471Y-15856643D01*
X7800186Y-15870929D01*
X7771614Y-15885214D01*
X7743043Y-15885214D01*
X7714471Y-15870929D01*
X7700186Y-15856643D01*
X7685900Y-15828071D01*
X7671614Y-15770929D01*
X7671614Y-15699500D01*
X7685900Y-15642357D01*
X7700186Y-15613786D01*
X7714471Y-15599500D01*
X7743043Y-15585214D01*
X8028757Y-15585214D02*
X8057328Y-15585214D01*
X8085900Y-15599500D01*
X8100186Y-15613786D01*
X8114471Y-15642357D01*
X8128757Y-15699500D01*
X8128757Y-15770929D01*
X8114471Y-15828071D01*
X8100186Y-15856643D01*
X8085900Y-15870929D01*
X8057328Y-15885214D01*
X8028757Y-15885214D01*
X8000186Y-15870929D01*
X7985900Y-15856643D01*
X7971614Y-15828071D01*
X7957328Y-15770929D01*
X7957328Y-15699500D01*
X7971614Y-15642357D01*
X7985900Y-15613786D01*
X8000186Y-15599500D01*
X8028757Y-15585214D01*
X8257328Y-15885214D02*
X8257328Y-15685214D01*
X8257328Y-15713786D02*
X8271614Y-15699500D01*
X8300186Y-15685214D01*
X8343043Y-15685214D01*
X8371614Y-15699500D01*
X8385900Y-15728071D01*
X8385900Y-15885214D01*
X8385900Y-15728071D02*
X8400186Y-15699500D01*
X8428757Y-15685214D01*
X8471614Y-15685214D01*
X8500186Y-15699500D01*
X8514471Y-15728071D01*
X8514471Y-15885214D01*
X8657329Y-15885214D02*
X8657329Y-15685214D01*
X8657329Y-15713786D02*
X8671614Y-15699500D01*
X8700186Y-15685214D01*
X8743043Y-15685214D01*
X8771614Y-15699500D01*
X8785900Y-15728071D01*
X8785900Y-15885214D01*
X8785900Y-15728071D02*
X8800186Y-15699500D01*
X8828757Y-15685214D01*
X8871614Y-15685214D01*
X8900186Y-15699500D01*
X8914471Y-15728071D01*
X8914471Y-15885214D01*
X9500186Y-15570929D02*
X9243043Y-15956643D01*
X9885900Y-15585214D02*
X9914471Y-15585214D01*
X9943043Y-15599500D01*
X9957328Y-15613786D01*
X9971614Y-15642357D01*
X9985900Y-15699500D01*
X9985900Y-15770929D01*
X9971614Y-15828071D01*
X9957328Y-15856643D01*
X9943043Y-15870929D01*
X9914471Y-15885214D01*
X9885900Y-15885214D01*
X9857328Y-15870929D01*
X9843043Y-15856643D01*
X9828757Y-15828071D01*
X9814471Y-15770929D01*
X9814471Y-15699500D01*
X9828757Y-15642357D01*
X9843043Y-15613786D01*
X9857328Y-15599500D01*
X9885900Y-15585214D01*
X10114471Y-15856643D02*
X10128757Y-15870929D01*
X10114471Y-15885214D01*
X10100186Y-15870929D01*
X10114471Y-15856643D01*
X10114471Y-15885214D01*
X10314471Y-15585214D02*
X10343043Y-15585214D01*
X10371614Y-15599500D01*
X10385900Y-15613786D01*
X10400186Y-15642357D01*
X10414471Y-15699500D01*
X10414471Y-15770929D01*
X10400186Y-15828071D01*
X10385900Y-15856643D01*
X10371614Y-15870929D01*
X10343043Y-15885214D01*
X10314471Y-15885214D01*
X10285900Y-15870929D01*
X10271614Y-15856643D01*
X10257328Y-15828071D01*
X10243043Y-15770929D01*
X10243043Y-15699500D01*
X10257328Y-15642357D01*
X10271614Y-15613786D01*
X10285900Y-15599500D01*
X10314471Y-15585214D01*
X10514471Y-15585214D02*
X10700186Y-15585214D01*
X10600186Y-15699500D01*
X10643043Y-15699500D01*
X10671614Y-15713786D01*
X10685900Y-15728071D01*
X10700186Y-15756643D01*
X10700186Y-15828071D01*
X10685900Y-15856643D01*
X10671614Y-15870929D01*
X10643043Y-15885214D01*
X10557328Y-15885214D01*
X10528757Y-15870929D01*
X10514471Y-15856643D01*
X10843043Y-15885214D02*
X10900186Y-15885214D01*
X10928757Y-15870929D01*
X10943043Y-15856643D01*
X10971614Y-15813786D01*
X10985900Y-15756643D01*
X10985900Y-15642357D01*
X10971614Y-15613786D01*
X10957328Y-15599500D01*
X10928757Y-15585214D01*
X10871614Y-15585214D01*
X10843043Y-15599500D01*
X10828757Y-15613786D01*
X10814471Y-15642357D01*
X10814471Y-15713786D01*
X10828757Y-15742357D01*
X10843043Y-15756643D01*
X10871614Y-15770929D01*
X10928757Y-15770929D01*
X10957328Y-15756643D01*
X10971614Y-15742357D01*
X10985900Y-15713786D01*
X11100186Y-15585214D02*
X11100186Y-15642357D01*
X11214471Y-15585214D02*
X11214471Y-15642357D01*
X11657328Y-15999500D02*
X11643043Y-15985214D01*
X11614471Y-15942357D01*
X11600185Y-15913786D01*
X11585900Y-15870929D01*
X11571614Y-15799500D01*
X11571614Y-15742357D01*
X11585900Y-15670929D01*
X11600185Y-15628071D01*
X11614471Y-15599500D01*
X11643043Y-15556643D01*
X11657328Y-15542357D01*
X11928757Y-15885214D02*
X11757328Y-15885214D01*
X11843043Y-15885214D02*
X11843043Y-15585214D01*
X11814471Y-15628071D01*
X11785900Y-15656643D01*
X11757328Y-15670929D01*
X12185900Y-15585214D02*
X12128757Y-15585214D01*
X12100185Y-15599500D01*
X12085900Y-15613786D01*
X12057328Y-15656643D01*
X12043043Y-15713786D01*
X12043043Y-15828071D01*
X12057328Y-15856643D01*
X12071614Y-15870929D01*
X12100185Y-15885214D01*
X12157328Y-15885214D01*
X12185900Y-15870929D01*
X12200185Y-15856643D01*
X12214471Y-15828071D01*
X12214471Y-15756643D01*
X12200185Y-15728071D01*
X12185900Y-15713786D01*
X12157328Y-15699500D01*
X12100185Y-15699500D01*
X12071614Y-15713786D01*
X12057328Y-15728071D01*
X12043043Y-15756643D01*
X12571614Y-15885214D02*
X12571614Y-15585214D01*
X12700185Y-15885214D02*
X12700185Y-15728071D01*
X12685900Y-15699500D01*
X12657328Y-15685214D01*
X12614471Y-15685214D01*
X12585900Y-15699500D01*
X12571614Y-15713786D01*
X12885900Y-15885214D02*
X12857328Y-15870929D01*
X12843043Y-15856643D01*
X12828757Y-15828071D01*
X12828757Y-15742357D01*
X12843043Y-15713786D01*
X12857328Y-15699500D01*
X12885900Y-15685214D01*
X12928757Y-15685214D01*
X12957328Y-15699500D01*
X12971614Y-15713786D01*
X12985900Y-15742357D01*
X12985900Y-15828071D01*
X12971614Y-15856643D01*
X12957328Y-15870929D01*
X12928757Y-15885214D01*
X12885900Y-15885214D01*
X13157328Y-15885214D02*
X13128757Y-15870929D01*
X13114471Y-15842357D01*
X13114471Y-15585214D01*
X13385900Y-15870929D02*
X13357328Y-15885214D01*
X13300186Y-15885214D01*
X13271614Y-15870929D01*
X13257328Y-15842357D01*
X13257328Y-15728071D01*
X13271614Y-15699500D01*
X13300186Y-15685214D01*
X13357328Y-15685214D01*
X13385900Y-15699500D01*
X13400186Y-15728071D01*
X13400186Y-15756643D01*
X13257328Y-15785214D01*
X13514471Y-15870929D02*
X13543043Y-15885214D01*
X13600186Y-15885214D01*
X13628757Y-15870929D01*
X13643043Y-15842357D01*
X13643043Y-15828071D01*
X13628757Y-15799500D01*
X13600186Y-15785214D01*
X13557328Y-15785214D01*
X13528757Y-15770929D01*
X13514471Y-15742357D01*
X13514471Y-15728071D01*
X13528757Y-15699500D01*
X13557328Y-15685214D01*
X13600186Y-15685214D01*
X13628757Y-15699500D01*
X13743043Y-15999500D02*
X13757328Y-15985214D01*
X13785900Y-15942357D01*
X13800186Y-15913786D01*
X13814471Y-15870929D01*
X13828757Y-15799500D01*
X13828757Y-15742357D01*
X13814471Y-15670929D01*
X13800186Y-15628071D01*
X13785900Y-15599500D01*
X13757328Y-15556643D01*
X13743043Y-15542357D01*
X6935100Y-16196300D02*
X6985900Y-16145500D01*
X6935100Y-16094700D01*
X6884300Y-16145500D01*
X6935100Y-16196300D01*
X7414471Y-16281214D02*
X7243043Y-16281214D01*
X7328757Y-16281214D02*
X7328757Y-15981214D01*
X7300186Y-16024071D01*
X7271614Y-16052643D01*
X7243043Y-16066929D01*
X7543043Y-16252643D02*
X7557328Y-16266929D01*
X7543043Y-16281214D01*
X7528757Y-16266929D01*
X7543043Y-16252643D01*
X7543043Y-16281214D01*
X7743043Y-15981214D02*
X7771614Y-15981214D01*
X7800186Y-15995500D01*
X7814471Y-16009786D01*
X7828757Y-16038357D01*
X7843043Y-16095500D01*
X7843043Y-16166929D01*
X7828757Y-16224071D01*
X7814471Y-16252643D01*
X7800186Y-16266929D01*
X7771614Y-16281214D01*
X7743043Y-16281214D01*
X7714471Y-16266929D01*
X7700186Y-16252643D01*
X7685900Y-16224071D01*
X7671614Y-16166929D01*
X7671614Y-16095500D01*
X7685900Y-16038357D01*
X7700186Y-16009786D01*
X7714471Y-15995500D01*
X7743043Y-15981214D01*
X7957328Y-16009786D02*
X7971614Y-15995500D01*
X8000186Y-15981214D01*
X8071614Y-15981214D01*
X8100186Y-15995500D01*
X8114471Y-16009786D01*
X8128757Y-16038357D01*
X8128757Y-16066929D01*
X8114471Y-16109786D01*
X7943043Y-16281214D01*
X8128757Y-16281214D01*
X8257328Y-16281214D02*
X8257328Y-16081214D01*
X8257328Y-16109786D02*
X8271614Y-16095500D01*
X8300186Y-16081214D01*
X8343043Y-16081214D01*
X8371614Y-16095500D01*
X8385900Y-16124071D01*
X8385900Y-16281214D01*
X8385900Y-16124071D02*
X8400186Y-16095500D01*
X8428757Y-16081214D01*
X8471614Y-16081214D01*
X8500186Y-16095500D01*
X8514471Y-16124071D01*
X8514471Y-16281214D01*
X8657329Y-16281214D02*
X8657329Y-16081214D01*
X8657329Y-16109786D02*
X8671614Y-16095500D01*
X8700186Y-16081214D01*
X8743043Y-16081214D01*
X8771614Y-16095500D01*
X8785900Y-16124071D01*
X8785900Y-16281214D01*
X8785900Y-16124071D02*
X8800186Y-16095500D01*
X8828757Y-16081214D01*
X8871614Y-16081214D01*
X8900186Y-16095500D01*
X8914471Y-16124071D01*
X8914471Y-16281214D01*
X9500186Y-15966929D02*
X9243043Y-16352643D01*
X9885900Y-15981214D02*
X9914471Y-15981214D01*
X9943043Y-15995500D01*
X9957328Y-16009786D01*
X9971614Y-16038357D01*
X9985900Y-16095500D01*
X9985900Y-16166929D01*
X9971614Y-16224071D01*
X9957328Y-16252643D01*
X9943043Y-16266929D01*
X9914471Y-16281214D01*
X9885900Y-16281214D01*
X9857328Y-16266929D01*
X9843043Y-16252643D01*
X9828757Y-16224071D01*
X9814471Y-16166929D01*
X9814471Y-16095500D01*
X9828757Y-16038357D01*
X9843043Y-16009786D01*
X9857328Y-15995500D01*
X9885900Y-15981214D01*
X10114471Y-16252643D02*
X10128757Y-16266929D01*
X10114471Y-16281214D01*
X10100186Y-16266929D01*
X10114471Y-16252643D01*
X10114471Y-16281214D01*
X10314471Y-15981214D02*
X10343043Y-15981214D01*
X10371614Y-15995500D01*
X10385900Y-16009786D01*
X10400186Y-16038357D01*
X10414471Y-16095500D01*
X10414471Y-16166929D01*
X10400186Y-16224071D01*
X10385900Y-16252643D01*
X10371614Y-16266929D01*
X10343043Y-16281214D01*
X10314471Y-16281214D01*
X10285900Y-16266929D01*
X10271614Y-16252643D01*
X10257328Y-16224071D01*
X10243043Y-16166929D01*
X10243043Y-16095500D01*
X10257328Y-16038357D01*
X10271614Y-16009786D01*
X10285900Y-15995500D01*
X10314471Y-15981214D01*
X10671614Y-16081214D02*
X10671614Y-16281214D01*
X10600186Y-15966929D02*
X10528757Y-16181214D01*
X10714471Y-16181214D01*
X10885900Y-15981214D02*
X10914471Y-15981214D01*
X10943043Y-15995500D01*
X10957328Y-16009786D01*
X10971614Y-16038357D01*
X10985900Y-16095500D01*
X10985900Y-16166929D01*
X10971614Y-16224071D01*
X10957328Y-16252643D01*
X10943043Y-16266929D01*
X10914471Y-16281214D01*
X10885900Y-16281214D01*
X10857328Y-16266929D01*
X10843043Y-16252643D01*
X10828757Y-16224071D01*
X10814471Y-16166929D01*
X10814471Y-16095500D01*
X10828757Y-16038357D01*
X10843043Y-16009786D01*
X10857328Y-15995500D01*
X10885900Y-15981214D01*
X11100186Y-15981214D02*
X11100186Y-16038357D01*
X11214471Y-15981214D02*
X11214471Y-16038357D01*
X11657328Y-16395500D02*
X11643043Y-16381214D01*
X11614471Y-16338357D01*
X11600185Y-16309786D01*
X11585900Y-16266929D01*
X11571614Y-16195500D01*
X11571614Y-16138357D01*
X11585900Y-16066929D01*
X11600185Y-16024071D01*
X11614471Y-15995500D01*
X11643043Y-15952643D01*
X11657328Y-15938357D01*
X11900185Y-15981214D02*
X11843043Y-15981214D01*
X11814471Y-15995500D01*
X11800185Y-16009786D01*
X11771614Y-16052643D01*
X11757328Y-16109786D01*
X11757328Y-16224071D01*
X11771614Y-16252643D01*
X11785900Y-16266929D01*
X11814471Y-16281214D01*
X11871614Y-16281214D01*
X11900185Y-16266929D01*
X11914471Y-16252643D01*
X11928757Y-16224071D01*
X11928757Y-16152643D01*
X11914471Y-16124071D01*
X11900185Y-16109786D01*
X11871614Y-16095500D01*
X11814471Y-16095500D01*
X11785900Y-16109786D01*
X11771614Y-16124071D01*
X11757328Y-16152643D01*
X12285900Y-16281214D02*
X12285900Y-15981214D01*
X12414471Y-16281214D02*
X12414471Y-16124071D01*
X12400185Y-16095500D01*
X12371614Y-16081214D01*
X12328757Y-16081214D01*
X12300185Y-16095500D01*
X12285900Y-16109786D01*
X12600185Y-16281214D02*
X12571614Y-16266929D01*
X12557328Y-16252643D01*
X12543043Y-16224071D01*
X12543043Y-16138357D01*
X12557328Y-16109786D01*
X12571614Y-16095500D01*
X12600185Y-16081214D01*
X12643043Y-16081214D01*
X12671614Y-16095500D01*
X12685900Y-16109786D01*
X12700185Y-16138357D01*
X12700185Y-16224071D01*
X12685900Y-16252643D01*
X12671614Y-16266929D01*
X12643043Y-16281214D01*
X12600185Y-16281214D01*
X12871614Y-16281214D02*
X12843043Y-16266929D01*
X12828757Y-16238357D01*
X12828757Y-15981214D01*
X13100186Y-16266929D02*
X13071614Y-16281214D01*
X13014471Y-16281214D01*
X12985900Y-16266929D01*
X12971614Y-16238357D01*
X12971614Y-16124071D01*
X12985900Y-16095500D01*
X13014471Y-16081214D01*
X13071614Y-16081214D01*
X13100186Y-16095500D01*
X13114471Y-16124071D01*
X13114471Y-16152643D01*
X12971614Y-16181214D01*
X13228757Y-16266929D02*
X13257328Y-16281214D01*
X13314471Y-16281214D01*
X13343043Y-16266929D01*
X13357328Y-16238357D01*
X13357328Y-16224071D01*
X13343043Y-16195500D01*
X13314471Y-16181214D01*
X13271614Y-16181214D01*
X13243043Y-16166929D01*
X13228757Y-16138357D01*
X13228757Y-16124071D01*
X13243043Y-16095500D01*
X13271614Y-16081214D01*
X13314471Y-16081214D01*
X13343043Y-16095500D01*
X13457328Y-16395500D02*
X13471614Y-16381214D01*
X13500186Y-16338357D01*
X13514471Y-16309786D01*
X13528757Y-16266929D01*
X13543043Y-16195500D01*
X13543043Y-16138357D01*
X13528757Y-16066929D01*
X13514471Y-16024071D01*
X13500186Y-15995500D01*
X13471614Y-15952643D01*
X13457328Y-15938357D01*
X6835786Y-16466443D02*
X6985900Y-16616557D01*
X6985900Y-16466443D02*
X6835786Y-16616557D01*
X6985900Y-16541500D02*
G75*
G03X6985900Y-16541500I-75057J0D01*
G01*
X7414471Y-16677214D02*
X7243043Y-16677214D01*
X7328757Y-16677214D02*
X7328757Y-16377214D01*
X7300186Y-16420071D01*
X7271614Y-16448643D01*
X7243043Y-16462929D01*
X7543043Y-16648643D02*
X7557328Y-16662929D01*
X7543043Y-16677214D01*
X7528757Y-16662929D01*
X7543043Y-16648643D01*
X7543043Y-16677214D01*
X7828757Y-16377214D02*
X7685900Y-16377214D01*
X7671614Y-16520071D01*
X7685900Y-16505786D01*
X7714471Y-16491500D01*
X7785900Y-16491500D01*
X7814471Y-16505786D01*
X7828757Y-16520071D01*
X7843043Y-16548643D01*
X7843043Y-16620071D01*
X7828757Y-16648643D01*
X7814471Y-16662929D01*
X7785900Y-16677214D01*
X7714471Y-16677214D01*
X7685900Y-16662929D01*
X7671614Y-16648643D01*
X8028757Y-16377214D02*
X8057328Y-16377214D01*
X8085900Y-16391500D01*
X8100186Y-16405786D01*
X8114471Y-16434357D01*
X8128757Y-16491500D01*
X8128757Y-16562929D01*
X8114471Y-16620071D01*
X8100186Y-16648643D01*
X8085900Y-16662929D01*
X8057328Y-16677214D01*
X8028757Y-16677214D01*
X8000186Y-16662929D01*
X7985900Y-16648643D01*
X7971614Y-16620071D01*
X7957328Y-16562929D01*
X7957328Y-16491500D01*
X7971614Y-16434357D01*
X7985900Y-16405786D01*
X8000186Y-16391500D01*
X8028757Y-16377214D01*
X8257328Y-16677214D02*
X8257328Y-16477214D01*
X8257328Y-16505786D02*
X8271614Y-16491500D01*
X8300186Y-16477214D01*
X8343043Y-16477214D01*
X8371614Y-16491500D01*
X8385900Y-16520071D01*
X8385900Y-16677214D01*
X8385900Y-16520071D02*
X8400186Y-16491500D01*
X8428757Y-16477214D01*
X8471614Y-16477214D01*
X8500186Y-16491500D01*
X8514471Y-16520071D01*
X8514471Y-16677214D01*
X8657329Y-16677214D02*
X8657329Y-16477214D01*
X8657329Y-16505786D02*
X8671614Y-16491500D01*
X8700186Y-16477214D01*
X8743043Y-16477214D01*
X8771614Y-16491500D01*
X8785900Y-16520071D01*
X8785900Y-16677214D01*
X8785900Y-16520071D02*
X8800186Y-16491500D01*
X8828757Y-16477214D01*
X8871614Y-16477214D01*
X8900186Y-16491500D01*
X8914471Y-16520071D01*
X8914471Y-16677214D01*
X9500186Y-16362929D02*
X9243043Y-16748643D01*
X9885900Y-16377214D02*
X9914471Y-16377214D01*
X9943043Y-16391500D01*
X9957328Y-16405786D01*
X9971614Y-16434357D01*
X9985900Y-16491500D01*
X9985900Y-16562929D01*
X9971614Y-16620071D01*
X9957328Y-16648643D01*
X9943043Y-16662929D01*
X9914471Y-16677214D01*
X9885900Y-16677214D01*
X9857328Y-16662929D01*
X9843043Y-16648643D01*
X9828757Y-16620071D01*
X9814471Y-16562929D01*
X9814471Y-16491500D01*
X9828757Y-16434357D01*
X9843043Y-16405786D01*
X9857328Y-16391500D01*
X9885900Y-16377214D01*
X10114471Y-16648643D02*
X10128757Y-16662929D01*
X10114471Y-16677214D01*
X10100186Y-16662929D01*
X10114471Y-16648643D01*
X10114471Y-16677214D01*
X10314471Y-16377214D02*
X10343043Y-16377214D01*
X10371614Y-16391500D01*
X10385900Y-16405786D01*
X10400186Y-16434357D01*
X10414471Y-16491500D01*
X10414471Y-16562929D01*
X10400186Y-16620071D01*
X10385900Y-16648643D01*
X10371614Y-16662929D01*
X10343043Y-16677214D01*
X10314471Y-16677214D01*
X10285900Y-16662929D01*
X10271614Y-16648643D01*
X10257328Y-16620071D01*
X10243043Y-16562929D01*
X10243043Y-16491500D01*
X10257328Y-16434357D01*
X10271614Y-16405786D01*
X10285900Y-16391500D01*
X10314471Y-16377214D01*
X10685900Y-16377214D02*
X10543043Y-16377214D01*
X10528757Y-16520071D01*
X10543043Y-16505786D01*
X10571614Y-16491500D01*
X10643043Y-16491500D01*
X10671614Y-16505786D01*
X10685900Y-16520071D01*
X10700186Y-16548643D01*
X10700186Y-16620071D01*
X10685900Y-16648643D01*
X10671614Y-16662929D01*
X10643043Y-16677214D01*
X10571614Y-16677214D01*
X10543043Y-16662929D01*
X10528757Y-16648643D01*
X10843043Y-16677214D02*
X10900186Y-16677214D01*
X10928757Y-16662929D01*
X10943043Y-16648643D01*
X10971614Y-16605786D01*
X10985900Y-16548643D01*
X10985900Y-16434357D01*
X10971614Y-16405786D01*
X10957328Y-16391500D01*
X10928757Y-16377214D01*
X10871614Y-16377214D01*
X10843043Y-16391500D01*
X10828757Y-16405786D01*
X10814471Y-16434357D01*
X10814471Y-16505786D01*
X10828757Y-16534357D01*
X10843043Y-16548643D01*
X10871614Y-16562929D01*
X10928757Y-16562929D01*
X10957328Y-16548643D01*
X10971614Y-16534357D01*
X10985900Y-16505786D01*
X11100186Y-16377214D02*
X11100186Y-16434357D01*
X11214471Y-16377214D02*
X11214471Y-16434357D01*
X11657328Y-16791500D02*
X11643043Y-16777214D01*
X11614471Y-16734357D01*
X11600185Y-16705786D01*
X11585900Y-16662929D01*
X11571614Y-16591500D01*
X11571614Y-16534357D01*
X11585900Y-16462929D01*
X11600185Y-16420071D01*
X11614471Y-16391500D01*
X11643043Y-16348643D01*
X11657328Y-16334357D01*
X11757328Y-16405786D02*
X11771614Y-16391500D01*
X11800185Y-16377214D01*
X11871614Y-16377214D01*
X11900185Y-16391500D01*
X11914471Y-16405786D01*
X11928757Y-16434357D01*
X11928757Y-16462929D01*
X11914471Y-16505786D01*
X11743043Y-16677214D01*
X11928757Y-16677214D01*
X12285900Y-16677214D02*
X12285900Y-16377214D01*
X12414471Y-16677214D02*
X12414471Y-16520071D01*
X12400185Y-16491500D01*
X12371614Y-16477214D01*
X12328757Y-16477214D01*
X12300185Y-16491500D01*
X12285900Y-16505786D01*
X12600185Y-16677214D02*
X12571614Y-16662929D01*
X12557328Y-16648643D01*
X12543043Y-16620071D01*
X12543043Y-16534357D01*
X12557328Y-16505786D01*
X12571614Y-16491500D01*
X12600185Y-16477214D01*
X12643043Y-16477214D01*
X12671614Y-16491500D01*
X12685900Y-16505786D01*
X12700185Y-16534357D01*
X12700185Y-16620071D01*
X12685900Y-16648643D01*
X12671614Y-16662929D01*
X12643043Y-16677214D01*
X12600185Y-16677214D01*
X12871614Y-16677214D02*
X12843043Y-16662929D01*
X12828757Y-16634357D01*
X12828757Y-16377214D01*
X13100186Y-16662929D02*
X13071614Y-16677214D01*
X13014471Y-16677214D01*
X12985900Y-16662929D01*
X12971614Y-16634357D01*
X12971614Y-16520071D01*
X12985900Y-16491500D01*
X13014471Y-16477214D01*
X13071614Y-16477214D01*
X13100186Y-16491500D01*
X13114471Y-16520071D01*
X13114471Y-16548643D01*
X12971614Y-16577214D01*
X13228757Y-16662929D02*
X13257328Y-16677214D01*
X13314471Y-16677214D01*
X13343043Y-16662929D01*
X13357328Y-16634357D01*
X13357328Y-16620071D01*
X13343043Y-16591500D01*
X13314471Y-16577214D01*
X13271614Y-16577214D01*
X13243043Y-16562929D01*
X13228757Y-16534357D01*
X13228757Y-16520071D01*
X13243043Y-16491500D01*
X13271614Y-16477214D01*
X13314471Y-16477214D01*
X13343043Y-16491500D01*
X13457328Y-16791500D02*
X13471614Y-16777214D01*
X13500186Y-16734357D01*
X13514471Y-16705786D01*
X13528757Y-16662929D01*
X13543043Y-16591500D01*
X13543043Y-16534357D01*
X13528757Y-16462929D01*
X13514471Y-16420071D01*
X13500186Y-16391500D01*
X13471614Y-16348643D01*
X13457328Y-16334357D01*
X6755776Y-16822438D02*
X6985900Y-17052562D01*
X6985900Y-16822438D02*
X6755776Y-17052562D01*
X6870838Y-16822438D02*
X6870838Y-17052562D01*
X6755776Y-16937500D02*
X6985900Y-16937500D01*
X7243043Y-16801786D02*
X7257328Y-16787500D01*
X7285900Y-16773214D01*
X7357328Y-16773214D01*
X7385900Y-16787500D01*
X7400186Y-16801786D01*
X7414471Y-16830357D01*
X7414471Y-16858929D01*
X7400186Y-16901786D01*
X7228757Y-17073214D01*
X7414471Y-17073214D01*
X7543043Y-17044643D02*
X7557328Y-17058929D01*
X7543043Y-17073214D01*
X7528757Y-17058929D01*
X7543043Y-17044643D01*
X7543043Y-17073214D01*
X7657328Y-16773214D02*
X7843043Y-16773214D01*
X7743043Y-16887500D01*
X7785900Y-16887500D01*
X7814471Y-16901786D01*
X7828757Y-16916072D01*
X7843043Y-16944643D01*
X7843043Y-17016072D01*
X7828757Y-17044643D01*
X7814471Y-17058929D01*
X7785900Y-17073214D01*
X7700186Y-17073214D01*
X7671614Y-17058929D01*
X7657328Y-17044643D01*
X8028757Y-16773214D02*
X8057328Y-16773214D01*
X8085900Y-16787500D01*
X8100186Y-16801786D01*
X8114471Y-16830357D01*
X8128757Y-16887500D01*
X8128757Y-16958929D01*
X8114471Y-17016072D01*
X8100186Y-17044643D01*
X8085900Y-17058929D01*
X8057328Y-17073214D01*
X8028757Y-17073214D01*
X8000186Y-17058929D01*
X7985900Y-17044643D01*
X7971614Y-17016072D01*
X7957328Y-16958929D01*
X7957328Y-16887500D01*
X7971614Y-16830357D01*
X7985900Y-16801786D01*
X8000186Y-16787500D01*
X8028757Y-16773214D01*
X8257328Y-17073214D02*
X8257328Y-16873214D01*
X8257328Y-16901786D02*
X8271614Y-16887500D01*
X8300186Y-16873214D01*
X8343043Y-16873214D01*
X8371614Y-16887500D01*
X8385900Y-16916072D01*
X8385900Y-17073214D01*
X8385900Y-16916072D02*
X8400186Y-16887500D01*
X8428757Y-16873214D01*
X8471614Y-16873214D01*
X8500186Y-16887500D01*
X8514471Y-16916072D01*
X8514471Y-17073214D01*
X8657329Y-17073214D02*
X8657329Y-16873214D01*
X8657329Y-16901786D02*
X8671614Y-16887500D01*
X8700186Y-16873214D01*
X8743043Y-16873214D01*
X8771614Y-16887500D01*
X8785900Y-16916072D01*
X8785900Y-17073214D01*
X8785900Y-16916072D02*
X8800186Y-16887500D01*
X8828757Y-16873214D01*
X8871614Y-16873214D01*
X8900186Y-16887500D01*
X8914471Y-16916072D01*
X8914471Y-17073214D01*
X9500186Y-16758929D02*
X9243043Y-17144643D01*
X9885900Y-16773214D02*
X9914471Y-16773214D01*
X9943043Y-16787500D01*
X9957328Y-16801786D01*
X9971614Y-16830357D01*
X9985900Y-16887500D01*
X9985900Y-16958929D01*
X9971614Y-17016072D01*
X9957328Y-17044643D01*
X9943043Y-17058929D01*
X9914471Y-17073214D01*
X9885900Y-17073214D01*
X9857328Y-17058929D01*
X9843043Y-17044643D01*
X9828757Y-17016072D01*
X9814471Y-16958929D01*
X9814471Y-16887500D01*
X9828757Y-16830357D01*
X9843043Y-16801786D01*
X9857328Y-16787500D01*
X9885900Y-16773214D01*
X10114471Y-17044643D02*
X10128757Y-17058929D01*
X10114471Y-17073214D01*
X10100186Y-17058929D01*
X10114471Y-17044643D01*
X10114471Y-17073214D01*
X10314471Y-16773214D02*
X10343043Y-16773214D01*
X10371614Y-16787500D01*
X10385900Y-16801786D01*
X10400186Y-16830357D01*
X10414471Y-16887500D01*
X10414471Y-16958929D01*
X10400186Y-17016072D01*
X10385900Y-17044643D01*
X10371614Y-17058929D01*
X10343043Y-17073214D01*
X10314471Y-17073214D01*
X10285900Y-17058929D01*
X10271614Y-17044643D01*
X10257328Y-17016072D01*
X10243043Y-16958929D01*
X10243043Y-16887500D01*
X10257328Y-16830357D01*
X10271614Y-16801786D01*
X10285900Y-16787500D01*
X10314471Y-16773214D01*
X10557328Y-17073214D02*
X10614471Y-17073214D01*
X10643043Y-17058929D01*
X10657328Y-17044643D01*
X10685900Y-17001786D01*
X10700186Y-16944643D01*
X10700186Y-16830357D01*
X10685900Y-16801786D01*
X10671614Y-16787500D01*
X10643043Y-16773214D01*
X10585900Y-16773214D01*
X10557328Y-16787500D01*
X10543043Y-16801786D01*
X10528757Y-16830357D01*
X10528757Y-16901786D01*
X10543043Y-16930357D01*
X10557328Y-16944643D01*
X10585900Y-16958929D01*
X10643043Y-16958929D01*
X10671614Y-16944643D01*
X10685900Y-16930357D01*
X10700186Y-16901786D01*
X10985900Y-17073214D02*
X10814471Y-17073214D01*
X10900186Y-17073214D02*
X10900186Y-16773214D01*
X10871614Y-16816072D01*
X10843043Y-16844643D01*
X10814471Y-16858929D01*
X11100186Y-16773214D02*
X11100186Y-16830357D01*
X11214471Y-16773214D02*
X11214471Y-16830357D01*
X11657328Y-17187500D02*
X11643043Y-17173214D01*
X11614471Y-17130357D01*
X11600185Y-17101786D01*
X11585900Y-17058929D01*
X11571614Y-16987500D01*
X11571614Y-16930357D01*
X11585900Y-16858929D01*
X11600185Y-16816072D01*
X11614471Y-16787500D01*
X11643043Y-16744643D01*
X11657328Y-16730357D01*
X11757328Y-16801786D02*
X11771614Y-16787500D01*
X11800185Y-16773214D01*
X11871614Y-16773214D01*
X11900185Y-16787500D01*
X11914471Y-16801786D01*
X11928757Y-16830357D01*
X11928757Y-16858929D01*
X11914471Y-16901786D01*
X11743043Y-17073214D01*
X11928757Y-17073214D01*
X12285900Y-17073214D02*
X12285900Y-16773214D01*
X12414471Y-17073214D02*
X12414471Y-16916072D01*
X12400185Y-16887500D01*
X12371614Y-16873214D01*
X12328757Y-16873214D01*
X12300185Y-16887500D01*
X12285900Y-16901786D01*
X12600185Y-17073214D02*
X12571614Y-17058929D01*
X12557328Y-17044643D01*
X12543043Y-17016072D01*
X12543043Y-16930357D01*
X12557328Y-16901786D01*
X12571614Y-16887500D01*
X12600185Y-16873214D01*
X12643043Y-16873214D01*
X12671614Y-16887500D01*
X12685900Y-16901786D01*
X12700185Y-16930357D01*
X12700185Y-17016072D01*
X12685900Y-17044643D01*
X12671614Y-17058929D01*
X12643043Y-17073214D01*
X12600185Y-17073214D01*
X12871614Y-17073214D02*
X12843043Y-17058929D01*
X12828757Y-17030357D01*
X12828757Y-16773214D01*
X13100186Y-17058929D02*
X13071614Y-17073214D01*
X13014471Y-17073214D01*
X12985900Y-17058929D01*
X12971614Y-17030357D01*
X12971614Y-16916072D01*
X12985900Y-16887500D01*
X13014471Y-16873214D01*
X13071614Y-16873214D01*
X13100186Y-16887500D01*
X13114471Y-16916072D01*
X13114471Y-16944643D01*
X12971614Y-16973214D01*
X13228757Y-17058929D02*
X13257328Y-17073214D01*
X13314471Y-17073214D01*
X13343043Y-17058929D01*
X13357328Y-17030357D01*
X13357328Y-17016072D01*
X13343043Y-16987500D01*
X13314471Y-16973214D01*
X13271614Y-16973214D01*
X13243043Y-16958929D01*
X13228757Y-16930357D01*
X13228757Y-16916072D01*
X13243043Y-16887500D01*
X13271614Y-16873214D01*
X13314471Y-16873214D01*
X13343043Y-16887500D01*
X13457328Y-17187500D02*
X13471614Y-17173214D01*
X13500186Y-17130357D01*
X13514471Y-17101786D01*
X13528757Y-17058929D01*
X13543043Y-16987500D01*
X13543043Y-16930357D01*
X13528757Y-16858929D01*
X13514471Y-16816072D01*
X13500186Y-16787500D01*
X13471614Y-16744643D01*
X13457328Y-16730357D01*
X6615822Y-17148461D02*
X6985900Y-17518539D01*
X6985900Y-17148461D02*
X6615822Y-17518539D01*
X6931704Y-17464344D02*
X6931704Y-17202657D01*
X6670017Y-17202657D01*
X6670017Y-17464344D01*
X6931704Y-17464344D01*
X7228757Y-17169214D02*
X7414471Y-17169214D01*
X7314471Y-17283500D01*
X7357328Y-17283500D01*
X7385900Y-17297786D01*
X7400186Y-17312072D01*
X7414471Y-17340643D01*
X7414471Y-17412072D01*
X7400186Y-17440643D01*
X7385900Y-17454929D01*
X7357328Y-17469214D01*
X7271614Y-17469214D01*
X7243043Y-17454929D01*
X7228757Y-17440643D01*
X7543043Y-17440643D02*
X7557328Y-17454929D01*
X7543043Y-17469214D01*
X7528757Y-17454929D01*
X7543043Y-17440643D01*
X7543043Y-17469214D01*
X7657328Y-17169214D02*
X7857328Y-17169214D01*
X7728757Y-17469214D01*
X8028757Y-17169214D02*
X8057328Y-17169214D01*
X8085900Y-17183500D01*
X8100186Y-17197786D01*
X8114471Y-17226357D01*
X8128757Y-17283500D01*
X8128757Y-17354929D01*
X8114471Y-17412072D01*
X8100186Y-17440643D01*
X8085900Y-17454929D01*
X8057328Y-17469214D01*
X8028757Y-17469214D01*
X8000186Y-17454929D01*
X7985900Y-17440643D01*
X7971614Y-17412072D01*
X7957328Y-17354929D01*
X7957328Y-17283500D01*
X7971614Y-17226357D01*
X7985900Y-17197786D01*
X8000186Y-17183500D01*
X8028757Y-17169214D01*
X8257328Y-17469214D02*
X8257328Y-17269214D01*
X8257328Y-17297786D02*
X8271614Y-17283500D01*
X8300186Y-17269214D01*
X8343043Y-17269214D01*
X8371614Y-17283500D01*
X8385900Y-17312072D01*
X8385900Y-17469214D01*
X8385900Y-17312072D02*
X8400186Y-17283500D01*
X8428757Y-17269214D01*
X8471614Y-17269214D01*
X8500186Y-17283500D01*
X8514471Y-17312072D01*
X8514471Y-17469214D01*
X8657329Y-17469214D02*
X8657329Y-17269214D01*
X8657329Y-17297786D02*
X8671614Y-17283500D01*
X8700186Y-17269214D01*
X8743043Y-17269214D01*
X8771614Y-17283500D01*
X8785900Y-17312072D01*
X8785900Y-17469214D01*
X8785900Y-17312072D02*
X8800186Y-17283500D01*
X8828757Y-17269214D01*
X8871614Y-17269214D01*
X8900186Y-17283500D01*
X8914471Y-17312072D01*
X8914471Y-17469214D01*
X9500186Y-17154929D02*
X9243043Y-17540643D01*
X9885900Y-17169214D02*
X9914471Y-17169214D01*
X9943043Y-17183500D01*
X9957328Y-17197786D01*
X9971614Y-17226357D01*
X9985900Y-17283500D01*
X9985900Y-17354929D01*
X9971614Y-17412072D01*
X9957328Y-17440643D01*
X9943043Y-17454929D01*
X9914471Y-17469214D01*
X9885900Y-17469214D01*
X9857328Y-17454929D01*
X9843043Y-17440643D01*
X9828757Y-17412072D01*
X9814471Y-17354929D01*
X9814471Y-17283500D01*
X9828757Y-17226357D01*
X9843043Y-17197786D01*
X9857328Y-17183500D01*
X9885900Y-17169214D01*
X10114471Y-17440643D02*
X10128757Y-17454929D01*
X10114471Y-17469214D01*
X10100186Y-17454929D01*
X10114471Y-17440643D01*
X10114471Y-17469214D01*
X10414471Y-17469214D02*
X10243043Y-17469214D01*
X10328757Y-17469214D02*
X10328757Y-17169214D01*
X10300186Y-17212072D01*
X10271614Y-17240643D01*
X10243043Y-17254929D01*
X10671614Y-17269214D02*
X10671614Y-17469214D01*
X10600186Y-17154929D02*
X10528757Y-17369214D01*
X10714471Y-17369214D01*
X10957328Y-17169214D02*
X10900186Y-17169214D01*
X10871614Y-17183500D01*
X10857328Y-17197786D01*
X10828757Y-17240643D01*
X10814471Y-17297786D01*
X10814471Y-17412072D01*
X10828757Y-17440643D01*
X10843043Y-17454929D01*
X10871614Y-17469214D01*
X10928757Y-17469214D01*
X10957328Y-17454929D01*
X10971614Y-17440643D01*
X10985900Y-17412072D01*
X10985900Y-17340643D01*
X10971614Y-17312072D01*
X10957328Y-17297786D01*
X10928757Y-17283500D01*
X10871614Y-17283500D01*
X10843043Y-17297786D01*
X10828757Y-17312072D01*
X10814471Y-17340643D01*
X11100186Y-17169214D02*
X11100186Y-17226357D01*
X11214471Y-17169214D02*
X11214471Y-17226357D01*
X11657328Y-17583500D02*
X11643043Y-17569214D01*
X11614471Y-17526357D01*
X11600185Y-17497786D01*
X11585900Y-17454929D01*
X11571614Y-17383500D01*
X11571614Y-17326357D01*
X11585900Y-17254929D01*
X11600185Y-17212072D01*
X11614471Y-17183500D01*
X11643043Y-17140643D01*
X11657328Y-17126357D01*
X11900185Y-17269214D02*
X11900185Y-17469214D01*
X11828757Y-17154929D02*
X11757328Y-17369214D01*
X11943043Y-17369214D01*
X12285900Y-17469214D02*
X12285900Y-17169214D01*
X12414471Y-17469214D02*
X12414471Y-17312072D01*
X12400185Y-17283500D01*
X12371614Y-17269214D01*
X12328757Y-17269214D01*
X12300185Y-17283500D01*
X12285900Y-17297786D01*
X12600185Y-17469214D02*
X12571614Y-17454929D01*
X12557328Y-17440643D01*
X12543043Y-17412072D01*
X12543043Y-17326357D01*
X12557328Y-17297786D01*
X12571614Y-17283500D01*
X12600185Y-17269214D01*
X12643043Y-17269214D01*
X12671614Y-17283500D01*
X12685900Y-17297786D01*
X12700185Y-17326357D01*
X12700185Y-17412072D01*
X12685900Y-17440643D01*
X12671614Y-17454929D01*
X12643043Y-17469214D01*
X12600185Y-17469214D01*
X12871614Y-17469214D02*
X12843043Y-17454929D01*
X12828757Y-17426357D01*
X12828757Y-17169214D01*
X13100186Y-17454929D02*
X13071614Y-17469214D01*
X13014471Y-17469214D01*
X12985900Y-17454929D01*
X12971614Y-17426357D01*
X12971614Y-17312072D01*
X12985900Y-17283500D01*
X13014471Y-17269214D01*
X13071614Y-17269214D01*
X13100186Y-17283500D01*
X13114471Y-17312072D01*
X13114471Y-17340643D01*
X12971614Y-17369214D01*
X13228757Y-17454929D02*
X13257328Y-17469214D01*
X13314471Y-17469214D01*
X13343043Y-17454929D01*
X13357328Y-17426357D01*
X13357328Y-17412072D01*
X13343043Y-17383500D01*
X13314471Y-17369214D01*
X13271614Y-17369214D01*
X13243043Y-17354929D01*
X13228757Y-17326357D01*
X13228757Y-17312072D01*
X13243043Y-17283500D01*
X13271614Y-17269214D01*
X13314471Y-17269214D01*
X13343043Y-17283500D01*
X13457328Y-17583500D02*
X13471614Y-17569214D01*
X13500186Y-17526357D01*
X13514471Y-17497786D01*
X13528757Y-17454929D01*
X13543043Y-17383500D01*
X13543043Y-17326357D01*
X13528757Y-17254929D01*
X13514471Y-17212072D01*
X13500186Y-17183500D01*
X13471614Y-17140643D01*
X13457328Y-17126357D01*
M02*
